<svg version="1.1" id="Layer_1" xmlns="http://www.w3.org/2000/svg" x="0" y="0" viewBox="0 0 59 39" xml:space="preserve"><style type="text/css">.st0{fill:#846ea0}</style><path class="st0" d="M57.6 33.5h-.8v-.8c0-.3-.3-.6-.6-.6s-.6.3-.6.6v.8h-.8c-.3 0-.6.3-.6.6s.3.6.6.6h.8v.8c0 .3.3.6.6.6s.6-.3.6-.6v-.8h.8c.3 0 .6-.3.6-.6s-.3-.6-.6-.6zM4 34.5c-1.7 0-3.1-1.4-3.1-3.1 0-1.7 1.4-3.1 3.1-3.1s3.1 1.4 3.1 3.1c.1 1.7-1.3 3.1-3.1 3.1zm0-5c-1 0-1.9.9-1.9 1.9 0 1 .9 1.9 1.9 1.9s1.9-.9 1.9-1.9c0-1.1-.8-1.9-1.9-1.9zm44.9-17.6c-1.7 0-3.1-1.4-3.1-3.1s1.4-3.1 3.1-3.1c1.7 0 3.1 1.4 3.1 3.1s-1.4 3.1-3.1 3.1zm0-5.1c-1 0-1.9.9-1.9 1.9 0 1 .9 1.9 1.9 1.9 1 0 1.9-.9 1.9-1.9 0-1-.8-1.9-1.9-1.9zM20.9 22c-.1-.1-.1-.1 0 0l-1.3-.8 1.2-.7s.1 0 .1-.1v-.9c-.1-.1-.1-.1-.2-.1-.2 0-.3 0-.5.1l-1.2.7v-1.4c0-.3-.3-.6-.6-.6s-.6.3-.6.6v1.4l-1.2-.7c-.3-.2-.7-.1-.8.2-.1.1-.1.3-.1.5s.1.3.3.4l1.2.7-1.2.7c-.1.1-.2.2-.3.4 0 .2 0 .3.1.5.2.3.5.4.8.2l1.2-.7v1.4c0 .3.3.6.6.6s.6-.3.6-.6v-1.4l1.2.7c.1.1.3.1.5.1.1 0 .2-.1.2-.1V22z"/><path class="st0" d="M20.9 37.3c-.5.3-1 .5-1.6.5-1.7 0-3-1.4-3-3 0-1.5 1-2.7 2.4-3 .2 0 .4-.1.6-.1.2 0 .4 0 .6.1.4.1.7.2 1 .4V31s-.1 0-.1-.1c-.2-.1-.3-.1-.5-.2-.1 0-.2-.1-.3-.1-.3-.1-.5-.1-.8-.1-.3 0-.5 0-.8.1-.1 0-.2 0-.3.1-.2 0-.3.1-.5.2-.1 0-.2.1-.3.1-.1.1-.3.1-.4.2-.1.1-.2.1-.3.2l-.3.3-.2.2-.3.3c-.1.1-.1.2-.2.3-.1.1-.1.3-.2.4 0 .1-.1.2-.1.3-.1.1-.1.3-.1.4 0 .1-.1.2-.1.3v.1H13c-.3 0-.5-.2-.5-.5v-4.6h8.3v-1.1h-8.3V15.2c0-.3.2-.5.5-.5h7.8v-1.1H13c-.9 0-1.6.7-1.6 1.6v18.5c0 .9.7 1.6 1.6 1.6h2.1c.3 2 2 3.6 4.1 3.6.6 0 1.1-.1 1.6-.3v-1.3z"/><path class="st0" d="M26.1 7.6h.2c.3-.1.4-.4.3-.7l-1.4-3.6c-.1-.3-.4-.4-.7-.3-.3.1-.4.4-.3.7l1.4 3.6c.1.1.3.3.5.3zm2.7-1.8c.3 0 .6-.3.5-.6V1.5c0-.2-.3-.5-.6-.5s-.5.3-.5.6v3.7c0 .2.3.5.6.5zm3.9-3.2c-.3-.1-.6 0-.7.3l-1.5 3.8c-.1.3 0 .6.3.7h.2c.2 0 .4-.1.5-.3L33 3.3c.2-.3 0-.6-.3-.7zm-2.5 5.9h-3.3c-.3 0-.5.2-.5.5l-.7 5.1c0 .2 0 .3.1.4.1.1.3.2.4.2H31c.2 0 .3-.1.4-.2.1-.1.2-.3.1-.4L30.8 9c-.1-.3-.3-.5-.6-.5zm-3.4 5.1l.6-4h2.4l.6 4h-3.6zm-5.7 6.3c0-.1 0-.2-.1-.3-.1-.1-.2-.2-.4-.3-.2 0-.3 0-.5.1l-1.2.7v-1.4c0-.3-.3-.6-.6-.6s-.6.3-.6.6v1.4l-1.2-.7c-.3-.2-.7-.1-.8.2-.1.1-.1.3-.1.5s.1.3.3.4l1.2.7-1.2.7c-.1.1-.2.2-.3.4 0 .2 0 .3.1.5.2.3.5.4.8.2l1.2-.7v1.4c0 .3.3.6.6.6s.6-.3.6-.6v-1.4l1.2.7c.1.1.3.1.5.1s.3-.1.4-.3c.1-.1.1-.2.1-.3 0-.2-.1-.4-.3-.5l-1.2-.7 1.2-.7c.2-.2.3-.4.3-.7zm-.3 2.7z"/><path class="st0" d="M47.9 24c-1.1 0-2.1-.5-2.7-1.5l-3.3-5.2c-.3-.5-.8-.7-1.3-.7h-4.9v-1.4c0-.9-.7-1.6-1.6-1.6h-19v1.1h19.1c.3 0 .5.2.5.5v12.9h-2.1V17.7c0-.3-.2-.6-.6-.6h-7.2c-.3 0-.6.2-.6.6v10.4h-9.1v1.1h9.1v5.1h-.9v-.1c0-.1 0-.2-.1-.3 0-.1-.1-.3-.1-.4 0-.1-.1-.2-.1-.3-.1-.1-.1-.3-.2-.4-.1-.1-.1-.2-.2-.3l-.3-.3c-.1-.1-.1-.2-.2-.2l-.3-.3c-.1-.1-.2-.1-.3-.2-.1-.1-.3-.2-.4-.2-.1 0-.2-.1-.3-.1-.2-.1-.3-.1-.5-.2-.1 0-.2-.1-.3-.1-.3-.1-.5-.1-.8-.1-.3 0-.5 0-.8.1-.1 0-.2 0-.3.1-.2 0-.3.1-.5.2-.1 0-.2.1-.3.1-.1.1-.3.1-.4.2-.1.1-.2.1-.3.2l-.3.3-.2.2-.3.3c-.1.1-.1.2-.2.3-.1.1-.1.3-.2.4 0 .1-.1.2-.1.3-.1.1-.1.3-.1.4 0 .1-.1.2-.1.3v.1H15v1.1h.1c.3 2 2 3.6 4.1 3.6 2.1 0 3.8-1.6 4.1-3.6H38c.3 2 2 3.6 4.1 3.6 2.1 0 3.8-1.6 4.1-3.6H48c.9 0 1.6-.7 1.6-1.6v-8.2c-.1-.9-.8-1.6-1.7-1.6zM19.2 37.8c-1.7 0-3-1.4-3-3 0-1.5 1-2.7 2.4-3 .2 0 .4-.1.6-.1.2 0 .4 0 .6.1 1.4.3 2.4 1.5 2.4 3 0 1.6-1.3 3-3 3zm12.2-3.6h-6.1v-16h6.1v16zm3.2 0h-2.1v-5.1h2.1v5.1zm7.4 3.6c-1.7 0-3-1.4-3-3 0-1.5 1-2.7 2.4-3 .2 0 .4-.1.6-.1.2 0 .4 0 .6.1 1.4.3 2.4 1.5 2.4 3 .1 1.6-1.3 3-3 3zm6.4-4.1c0 .3-.2.5-.5.5h-1.8v-.1c0-.1 0-.2-.1-.3 0-.1-.1-.3-.1-.4 0-.1-.1-.2-.1-.3-.1-.1-.1-.3-.2-.4-.1-.1-.1-.2-.2-.3l-.3-.3c-.1-.1-.1-.2-.2-.2l-.3-.3c-.1-.1-.2-.1-.3-.2-.1-.1-.3-.2-.4-.2-.1 0-.2-.1-.3-.1-.2-.1-.3-.1-.5-.2-.1 0-.2-.1-.3-.1-.3-.1-.5-.1-.8-.1-.3 0-.5 0-.8.1-.1 0-.2 0-.3.1-.2 0-.3.1-.5.2-.1 0-.2.1-.3.1-.1.1-.3.1-.4.2-.1.1-.2.1-.3.2l-.3.3-.2.2-.3.3c-.1.1-.1.2-.2.3-.1.1-.1.3-.2.4 0 .1-.1.2-.1.3-.1.1-.1.3-.1.4 0 .1-.1.2-.1.3v.1h-2.2v-5.1h12.6v4.6zm0-5.6H35.7V17.7h4.9c.2 0 .3.1.4.2l3.3 5.2c.8 1.2 2.1 2 3.6 2 .3 0 .5.2.5.5v2.5z"/><path class="st0" d="M19.2 33.5c-.3 0-.5.2-.5.6v1.6c0 .3.2.5.5.5s.6-.2.6-.5V34c0-.3-.3-.5-.6-.5zm22.8 0c-.3 0-.6.2-.6.6v1.6c0 .3.2.5.6.5.3 0 .6-.2.6-.5V34c0-.3-.3-.5-.6-.5zm-5.2-8.1h6.8c.2 0 .4-.1.5-.3.1-.2.1-.4 0-.5l-3.4-6.1c-.1-.2-.3-.3-.5-.3h-3.4c-.3 0-.5.2-.5.5v6.1c0 .3.2.6.5.6zm.6-6.2h2.5l2.8 5h-5.3v-5zm-7.3 5.7c-.3 0-.6.2-.6.5v2.2c0 .3.2.6.6.6s.5-.2.5-.6v-2.2c.1-.3-.2-.5-.5-.5z"/></svg>