<svg version="1.1" id="Layer_1" xmlns="http://www.w3.org/2000/svg" x="0" y="0" viewBox="0 0 233.4 76.1" xml:space="preserve"><style type="text/css">.st0{fill:#846ea0}</style><path class="st0" d="M75.7 16.5c0-2-1.7-3.7-3.7-3.7-.3 0-.5.2-.5.5s.2.5.5.5c1.4 0 2.6 1.2 2.6 2.6 0 .3.2.5.5.5.4.1.6-.1.6-.4z"/><path class="st0" d="M86.3 13.1c-.3-.2-.7-.4-1-.5V5.8c0-1.4-1.2-2.6-2.6-2.6-.6 0-1.1.2-1.5.5v-.6c0-1.4-1.2-2.6-2.6-2.6C77.2.5 76 1.7 76 3.1v.7c-.4-.3-.9-.5-1.5-.5-1.4 0-2.6 1.2-2.6 2.6v2.9c-.4-.3-.9-.5-1.5-.5-.8 0-1.6.4-2 1-.5-.6-1.2-1-2-1-.6 0-1.1.2-1.5.5v-3c0-1.4-1.2-2.6-2.6-2.6-.6 0-1.1.2-1.5.5v-.6c0-1.4-1.2-2.6-2.6-2.6-1.4 0-2.6 1.2-2.6 2.6v.7c-.4-.3-.9-.5-1.5-.5-1.4 0-2.6 1.2-2.6 2.6v6.8c-.4.1-.7.2-1 .5-.6.5-1 1.2-1 2v13.7c0 5.3 4.3 9.7 9.7 9.7 4.2 0 7.8-2.7 9.1-6.5 1.3 3.8 4.9 6.5 9.1 6.5 5.3 0 9.7-4.3 9.7-9.7V15.2c.2-.8-.2-1.6-.8-2.1zM68.5 26.3l-6.8-6.8c-.8-.8-1.3-2-1.3-3.2 0-1.2.5-2.3 1.3-3.2.8-.8 2-1.3 3.2-1.3 1.2 0 2.3.5 3.2 1.3.1.1.1.1.2.1.2.1.4 0 .6-.1.8-.8 2-1.3 3.2-1.3 1.2 0 2.3.5 3.2 1.3.8.8 1.3 2 1.3 3.2 0 1.2-.5 2.3-1.3 3.2l-6.8 6.8zm4.6-20.5c0-.8.7-1.5 1.5-1.5S76 5 76 5.8v6.6c-.8-.8-1.8-1.3-2.9-1.5V5.8zm-2.6 3.5c.8 0 1.5.6 1.5 1.4-1.1 0-2.1.3-3 .9v-.8c0-.8.7-1.5 1.5-1.5zm-4.1 0c.8 0 1.5.7 1.5 1.5v.8c-.9-.6-1.9-.9-3-.9.1-.7.7-1.4 1.5-1.4zm-4-5c.8 0 1.5.7 1.5 1.5v5c-1.1.2-2.1.7-2.9 1.5V5.8c-.1-.8.5-1.5 1.4-1.5zm15.2 33.2c-4.7 0-8.6-3.8-8.6-8.6 0-.3-.2-.5-.5-.5s-.5.2-.5.5c0 4.7-3.9 8.6-8.6 8.6-4.7 0-8.6-3.9-8.6-8.6V15.2c0-.5.2-.9.6-1.2.4-.3.8-.4 1.3-.3.6.2 1.1.8 1.1 1.5V20c0 2.5 1.3 4.8 3.3 6 1.6 1 2.6 2.7 2.6 4.5 0 1.7-.8 3.3-2.2 4.3-.2.2-.3.5-.1.8.1.1.3.2.4.2.1 0 .2 0 .3-.1 1.6-1.2 2.6-3.1 2.6-5.2 0-2.3-1.2-4.3-3.1-5.5-1.7-1-2.8-3-2.8-5.1v-4.8c0-1.2-.8-2.3-1.9-2.6h-.1V5.8c0-.8.7-1.5 1.5-1.5s1.5.7 1.5 1.5v13c0 .3.2.5.5.5s.5-.2.5-.5V3.1c0-.8.7-1.5 1.5-1.5s1.5.7 1.5 1.5v11c-.3.7-.5 1.5-.5 2.4 0 1.5.6 2.9 1.6 4l7.2 7.2c.1.1.2.2.4.2.1 0 .3-.1.4-.2l7.2-7.2c1.1-1.1 1.6-2.5 1.6-4 0-.8-.2-1.6-.5-2.3V3.1c0-.8.7-1.5 1.5-1.5s1.5.7 1.5 1.5v15.8c0 .3.2.5.5.5s.5-.2.5-.5V5.8c0-.8.7-1.5 1.5-1.5s1.5.7 1.5 1.5v6.8h-.1c-1.1.3-1.9 1.3-1.9 2.6V20c0 2.1-1.1 4-2.8 5.1-1.9 1.2-3.1 3.2-3.1 5.5 0 2 1 4 2.6 5.2.1.1.2.1.3.1.2 0 .3-.1.4-.2.2-.2.1-.6-.1-.8-1.4-1-2.2-2.6-2.2-4.3 0-1.9 1-3.6 2.6-4.5 2-1.2 3.3-3.5 3.3-6v-4.8c0-.7.5-1.3 1.1-1.5.5-.1.9 0 1.3.3s.6.7.6 1.2V29c0 4.6-3.9 8.5-8.6 8.5zm72.3 7.4c.5 0 1 .1 1.5.1 4.8 0 9.5-1.7 13.2-4.9 8.5-7.3 9.4-20.1 2.1-28.5-7.3-8.5-20.1-9.4-28.5-2.1-2.5 2.1-4.3 4.8-5.5 7.6v.1c0 .1 0 .1-.1.2C129.9 24 131 32 136 37.9c3.6 4.1 8.5 6.6 13.9 7zm-16.4-26.6c1.6 1.1 2.5 2.6 3.3 4 1.1 1.8 2.2 3.8 4.9 4.7.7.2 1.3.4 1.9.5 1 .2 2 .4 3.5 1.2 1.2.6 2.3 1.4 3.2 2.4v.2l-2.2-1.3c-1-.6-2.4-.2-3.1.6l-4.1 5.3c-.3.4-.4.8-.4 1.3.1.5.3.9.7 1.2.4.3.8.4 1.3.4.5-.1.9-.3 1.2-.7l2.8-3.6 6.3 3.7c.1.1.3.1.4.2.3.1.5.2.8.3.4.1.7.2 1.1.2 1.3 0 2.7-.6 4-1.9 1.6-1.5 2.8-3.7 3.6-6.3 1.3-4.4-.8-10.3-3.6-12.6-.5-.4-.6-1-.4-1.6.6-1.7.3-3.3-.7-4.9-1.3-2-3.7-3-6.1-2.6-2.9.5-5.1 2.2-6 4.8-.9 2.4-.4 5.1 1.3 7 1.4 1.6 3.4 2.5 5.5 2.4 0 0 0 .1-.1.1-.6 1-1.9 1.3-2.9.7l-3.3-2c-.4-.3-1-.3-1.5-.2-.5.1-.9.4-1.2.9-.3.4-.3 1-.2 1.5.1.5.4.9.9 1.2l6 3.6c0 .2-.1.4-.1.6-.9-.7-1.8-1.4-2.8-1.9-1.7-.9-2.8-1.1-3.9-1.3-.6-.1-1.1-.2-1.7-.4-2.3-.8-3.2-2.4-4.2-4.2-.9-1.5-1.9-3.2-3.9-4.5 1.1-2.5 2.8-4.9 5-6.8 3.6-3.1 8-4.6 12.4-4.6 5.3 0 10.7 2.2 14.4 6.6 6.8 7.9 5.9 19.9-2 26.8-3.8 3.3-8.8 4.9-13.8 4.5-5.1-.4-9.7-2.7-13-6.5-4.4-5.6-5.5-12.8-3.3-19zm21.3 3.7c-.1-.2-.4-.3-.7-.3-2.1.5-4.3-.2-5.7-1.8-1.4-1.6-1.8-3.8-1.1-5.8.8-2.1 2.6-3.5 5-3.9 1.9-.3 3.8.5 4.8 2.1.8 1.3 1 2.5.6 3.8-.4 1.1 0 2.3.8 3 2.4 2 4.3 7.4 3.2 11.3-.7 2.3-1.8 4.3-3.2 5.7-1.3 1.3-2.7 1.8-3.9 1.4-.2 0-.4-.1-.6-.2 0 0-.1 0-.1-.1h-.2l-6.3-3.7c-.2-.1-.4-.2-.6-.2-.4 0-.8.2-1 .5l-2.8 3.6c-.1.1-.2.2-.4.2-.1 0-.3 0-.4-.1-.1-.1-.2-.2-.2-.4 0-.1 0-.3.1-.4l4.1-5.3c.3-.4 1.1-.6 1.5-.3l3.1 1.8c.2.1.4.1.6 0 .2-.1.3-.3.3-.6-.1-1.2 0-2.4.3-3.6.1-.3-.1-.5-.3-.7l-6.4-3.8c-.2-.1-.3-.2-.3-.4s0-.4.1-.5c.1-.2.2-.3.4-.3s.4 0 .5.1l3.3 2c1.6.9 3.6.4 4.6-1.1.3-.4.6-.8.8-1.2.2-.2.3-.5.1-.8zm-34.3 35.8c-1.9 0-3.4 1.5-3.4 3.4 0 1.6 1.2 3 2.7 3.3V69c0 2.9-2.3 5.2-5.2 5.2-2.9 0-5.2-2.3-5.2-5.2V58.6c1.1-.1 2.1-.6 2.9-1.4l2.9-3c.6-.6.8-1.6.5-2.4-.1-.3-.3-.6-.6-.8.6-.4 1.2-.9 1.7-1.4 4.4-4.4 4.5-11.4.3-15.9.1-.3.2-.6.2-1 0-1.2-1-2.2-2.2-2.2-1.2 0-2.2 1-2.2 2.2s1 2.2 2.2 2.2c.4 0 .8-.1 1.1-.3 3.7 4 3.6 10.3-.3 14.1-4 4-10.5 4-14.5 0-3.9-3.9-4-10.1-.4-14.1.3.2.7.3 1.1.3 1.2 0 2.2-1 2.2-2.2s-1-2.2-2.2-2.2-2.2 1-2.2 2.2c0 .4.1.7.3 1-4.1 4.5-4 11.5.3 15.9.5.5 1.1 1 1.7 1.4-.2.2-.4.5-.6.8-.3.8-.2 1.8.5 2.4l2.9 3c.8.8 1.8 1.3 2.9 1.4v10.3c0 3.6 2.9 6.5 6.5 6.5s6.5-2.9 6.5-6.5v-4.5c1.6-.3 2.7-1.7 2.7-3.3.3-1.8-1.3-3.3-3.1-3.3zm-6.3-25c0-.5.4-1 1-1 .5 0 1 .4 1 1 0 .5-.4 1-1 1-.5 0-1-.5-1-1zm-11.9-1c.5 0 1 .4 1 1 0 .5-.4 1-1 1-.5 0-1-.4-1-1s.4-1 1-1zm.9 21.6c-.3-.3-.3-.8-.2-1 .1-.1.2-.5.7-.5 1.6.8 3.4 1.2 5.1 1.2 1.8 0 3.5-.4 5.1-1.2.4 0 .6.4.7.5.1.3.1.7-.2 1l-2.9 3c-.7.7-1.7 1.1-2.6 1.1-1 0-1.9-.4-2.6-1.1l-3.1-3zm17.3 9.9c-1.2 0-2.1-1-2.1-2.1 0-1.2 1-2.1 2.1-2.1 1.2 0 2.1 1 2.1 2.1s-.9 2.1-2.1 2.1z"/><path class="st0" d="M106.1 66.4h-2.2l-1.1-1.9c-.1-.2-.3-.3-.6-.3-.2 0-.4.1-.5.4l-1.2 2.7-1.9-4.5c-.1-.2-.3-.4-.5-.4s-.4.1-.6.3L94.9 66h-1.3l-.8-10.8c0-.3-.3-.6-.6-.6s-.6.2-.7.5L89.2 66c-.1-.2-.3-.3-.5-.3h-2.6c-.3 0-.6.3-.6.6s.3.6.6.6h2.1l.4 2c.1.3.3.5.6.5s.5-.2.6-.5l2.1-9.4.5 7.2c0 .3.3.6.6.6h2.2c.2 0 .4-.1.5-.3l2.1-2.8 2 4.8c.1.2.3.4.6.4.2 0 .5-.1.6-.4l1.3-2.9.7 1.2c.1.2.3.3.5.3h2.6c.3 0 .6-.3.6-.6s-.2-.6-.6-.6zM39.8 35.7H39v-.8c0-.3-.3-.6-.6-.6s-.6.3-.6.6v.8H37c-.3 0-.6.3-.6.6s.3.6.6.6h.8v.8c0 .3.3.6.6.6s.6-.3.6-.6v-.8h.8c.3 0 .6-.3.6-.6 0-.4-.3-.6-.6-.6zM181 45.4h-.8v-.8c0-.3-.3-.6-.6-.6s-.6.3-.6.6v.8h-.8c-.3 0-.6.3-.6.6s.3.6.6.6h.8v.8c0 .3.3.6.6.6s.6-.3.6-.6v-.8h.8c.3 0 .6-.3.6-.6s-.2-.6-.6-.6zM206.3 66h-.8v-.8c0-.3-.3-.6-.6-.6s-.6.3-.6.6v.8h-.8c-.3 0-.6.3-.6.6s.3.6.6.6h.8v.8c0 .3.3.6.6.6s.6-.3.6-.6v-.8h.8c.3 0 .6-.3.6-.6s-.3-.6-.6-.6zM68.8 52.5H68v-.8c0-.3-.3-.6-.6-.6s-.6.3-.6.6v.8H66c-.3 0-.6.3-.6.6s.3.6.6.6h.8v.8c0 .3.3.6.6.6s.6-.3.6-.6v-.8h.8c.3 0 .6-.3.6-.6s-.3-.6-.6-.6zm-65 2h-.9v-.8c0-.3-.3-.6-.6-.6s-.6.3-.6.6v.8H.9c-.3 0-.6.3-.6.6s.3.6.6.6h.8v.8c0 .3.3.6.6.6s.6-.3.6-.6v-.8h.8c.3 0 .6-.3.6-.6s-.2-.6-.5-.6zm226.1-3.4c-1.7 0-3.1-1.4-3.1-3.1 0-1.7 1.4-3.1 3.1-3.1 1.7 0 3.1 1.4 3.1 3.1.1 1.7-1.4 3.1-3.1 3.1zm0-5c-1 0-1.9.9-1.9 1.9 0 1 .9 1.9 1.9 1.9 1 0 1.9-.9 1.9-1.9 0-1.1-.8-1.9-1.9-1.9zM112.4 7.9c-1.7 0-3.1-1.4-3.1-3.1 0-1.7 1.4-3.1 3.1-3.1 1.7 0 3.1 1.4 3.1 3.1 0 1.7-1.4 3.1-3.1 3.1zm0-5c-1 0-1.9.9-1.9 1.9 0 1 .9 1.9 1.9 1.9 1 0 1.9-.9 1.9-1.9 0-1.1-.9-1.9-1.9-1.9zm86 31.5c-1.7 0-3.1-1.4-3.1-3.1 0-1.7 1.4-3.1 3.1-3.1 1.7 0 3.1 1.4 3.1 3.1 0 1.7-1.4 3.1-3.1 3.1zm0-5c-1 0-1.9.9-1.9 1.9 0 1 .9 1.9 1.9 1.9 1 0 1.9-.9 1.9-1.9 0-1.1-.9-1.9-1.9-1.9zm-44.2 45.8c-1.7 0-3.1-1.4-3.1-3.1 0-1.7 1.4-3.1 3.1-3.1 1.7 0 3.1 1.4 3.1 3.1 0 1.6-1.4 3.1-3.1 3.1zm0-5.1c-1 0-1.9.9-1.9 1.9 0 1 .9 1.9 1.9 1.9 1 0 1.9-.9 1.9-1.9 0-1-.9-1.9-1.9-1.9zM30.7 59.9c-1.7 0-3.1-1.4-3.1-3.1 0-1.7 1.4-3.1 3.1-3.1 1.7 0 3.1 1.4 3.1 3.1 0 1.7-1.4 3.1-3.1 3.1zm0-5c-1 0-1.9.9-1.9 1.9 0 1 .9 1.9 1.9 1.9 1 0 1.9-.9 1.9-1.9 0-1.1-.9-1.9-1.9-1.9z"/></svg>