<svg version="1.1" id="Layer_1" xmlns="http://www.w3.org/2000/svg" x="0" y="0" viewBox="0 0 49.5 40.7" xml:space="preserve"><style type="text/css">.st0{fill:#846ea0}</style><path class="st0" d="M20.2 13.1h-1.8c-.3 0-.6.3-.6.6s.3.6.6.6h1.8c.3 0 .6-.3.6-.6s-.3-.6-.6-.6zm8.7.6c0-.3-.3-.6-.6-.6h-1.8c-.3 0-.6.3-.6.6s.3.6.6.6h1.8c.3 0 .6-.2.6-.6zm-5.7 4.6c.8 0 1.4-.6 1.4-1.4V14c0-.3-.3-.6-.6-.6s-.6.3-.6.6v2.8c0 .2-.4.2-.4 0V14c0-.3-.3-.6-.6-.6s-.6.3-.6.6v2.8c-.1.8.6 1.5 1.4 1.5zm.8 1.1s-.3.5-.9.4c-.5 0-.7-.4-.8-.4-.2-.3-.6-.4-.9-.2-.3.2-.4.6-.2.9.3.4.9.9 1.7 1h.1c1.1 0 1.8-.9 1.8-1 .2-.3.1-.7-.2-.9 0-.1-.4-.1-.6.2z"/><path class="st0" d="M36 22l2.4-.9c.2-.1.3-.2.4-.4.1-.2.1-.4 0-.5L37 16.8c-1.6-3-2.7-5.7-3.4-8.4-1.1-4.3-4.7-7.3-8.6-7.3h-3.6c-3.9 0-7.5 3-8.6 7.3-.7 2.7-1.8 5.4-3.4 8.4l-1.8 3.4c-.1.2-.1.3 0 .5s.2.3.4.4l2.5.9c1.1.4 2.1.6 3.1.6h.6c.2.9.5 1.7.9 2.5l-2.4.2c-2.5.2-4.4 2.1-4.4 4.5v6c0 2.5 2 4.5 4.5 4.5h20.9c2.5 0 4.5-2 4.5-4.5v-6c0-2.3-1.8-4.1-4.4-4.5l-2.4-.3c.3-.8.6-1.6.9-2.5 1.1.1 2.3-.1 3.7-.5zm-25.2-1.2l-1.7-.6 1.4-2.7c1.6-3.1 2.8-5.9 3.5-8.7 1-3.7 4-6.3 7.4-6.3H25c3.4 0 6.4 2.6 7.4 6.3.7 2.8 1.9 5.6 3.5 8.6l1.5 2.7-1.8.6c-1.1.4-2 .6-2.9.5.5-2 .7-4 .7-5.3v-.1c0-1.4-1.1-2.5-2.5-2.5v-1.8h.7c.3 0 .6-.3.6-.6s-.3-.6-.7-.6c-2.3 0-4.4-1.2-5.6-3.2-.6-1-1.5-1.9-2.5-2.5l-.2-.2c-1.2-.7-2.6-1.1-4-1.1h-.5c-.3 0-.6.3-.6.6s.3.6.6.6h.5c.5 0 1 .1 1.5.2-2.9 1-5.1 3.8-5.1 7v1.5c-1.4.1-2.5 1.2-2.5 2.6 0 1.3.2 3.3.7 5.3-.9.3-1.9.1-3-.3zm8.2 5.1l2.6 4.8c-1.6-1.1-3.3-2.8-4.5-4.6l1.9-.2zm8.4 0l2 .2c-1.2 1.8-3 3.5-4.6 4.6l2.6-4.8zm-1-.8l-3.2 6-3.2-6v-2.2c.9.4 1.9.6 3 .6h.4c1.1 0 2.1-.2 3-.6v2.2zm-3-2.9H23c-3.4 0-6.2-2.8-6.2-6.2v-4.1c0-3.3 2.6-6 5.9-6.1.8.5 1.5 1.2 2 2.1 1.1 1.8 2.8 3 4.8 3.5V16c.1 3.5-2.7 6.2-6.1 6.2zM14.3 16c0-.7.5-1.3 1.2-1.3v1.4c0 1.5.4 2.9 1.2 4-.5.5-1.1.8-1.7 1-.4-1.9-.7-3.8-.7-5.1zm16.5.1v-1.4c.7.1 1.2.6 1.2 1.3 0 1.3-.2 3.2-.7 5.1-.6-.2-1.2-.5-1.7-1 .8-1.2 1.2-2.5 1.2-4zm-15.4 6.2c.8-.2 1.5-.6 2.2-1.2.4.4.7.7 1.2 1v2.5l-2.4.2c-.4-.7-.8-1.6-1-2.5zm-6 13.4v-6c0-1.7 1.4-3.1 3.3-3.2l2.9-.3c.1.1.1.2.2.3 1.6 2.5 4.4 5 6.8 6.2v4.1c0 .8.3 1.6.8 2.2H12.7c-1.8 0-3.3-1.5-3.3-3.3zm24.2-9.2c1.6.2 3.3 1.3 3.3 3.2v6c0 1.8-1.5 3.2-3.2 3.2h-2.6c.5-.6.8-1.4.8-2.2v-2c1.1-.3 2-1.3 2-2.5 0-1.4-1.2-2.6-2.6-2.6s-2.6 1.2-2.6 2.6c0 1.2.8 2.2 2 2.5v2c0 1.2-1 2.2-2.2 2.2H26c-1.2 0-2.2-1-2.2-2.2v-4.1c2.3-1.1 5.2-3.7 6.8-6.2.1-.1.1-.2.2-.3l2.8.4zm-2.3 7.2c-.7 0-1.3-.6-1.3-1.3 0-.7.6-1.3 1.3-1.3s1.3.6 1.3 1.3c.1.6-.5 1.3-1.3 1.3zm-1.2-8.8l-2.4-.2v-2.5c.4-.3.8-.7 1.2-1 .7.6 1.4 1 2.2 1.2-.3.8-.7 1.7-1 2.5z"/><path class="st0" d="M17.6 31.8h-2v-2c0-.3-.3-.6-.6-.6s-.6.3-.6.6v2h-2c-.3 0-.6.3-.6.6s.2.6.6.6h2v2c0 .3.3.6.6.6s.6-.3.6-.6v-2h2c.3 0 .6-.3.6-.6s-.2-.6-.6-.6zM41.3 3.3h-.8v-.9c0-.3-.3-.6-.6-.6s-.6.3-.6.6v.8h-.8c-.3 0-.6.3-.6.6s.3.6.6.6h.8v.8c0 .3.3.6.6.6s.6-.3.6-.6v-.7h.8c.3 0 .6-.3.6-.6s-.2-.6-.6-.6zm4.5 26.4c-1.7 0-3.1-1.4-3.1-3.1s1.4-3.1 3.1-3.1c1.7 0 3.1 1.4 3.1 3.1s-1.3 3.1-3.1 3.1zm0-5c-1 0-1.9.9-1.9 1.9 0 1 .9 1.9 1.9 1.9 1 0 1.9-.9 1.9-1.9 0-1-.8-1.9-1.9-1.9zm-42-8.3C2.1 16.4.7 15 .7 13.3s1.4-3.1 3.1-3.1S7 11.5 7 13.3s-1.4 3.1-3.2 3.1zm0-5c-1 0-1.9.9-1.9 1.9 0 1 .9 1.9 1.9 1.9s1.9-.9 1.9-1.9c0-1.1-.8-1.9-1.9-1.9z"/></svg>