<svg version="1.1" id="Layer_1" xmlns="http://www.w3.org/2000/svg" x="0" y="0" viewBox="0 0 53.4 45.9" xml:space="preserve"><style type="text/css">.st0{fill:#846ea0}</style><path class="st0" d="M48.5 17.3L27.3 6.7c-.2-.1-.4-.1-.6 0L7.4 17.3c-.2.1-.3.3-.3.5v4.3c0 .3.3.6.6.6h2.9V45c0 .3.3.6.6.6h33.5c.3 0 .6-.3.6-.6V22.7h2.9c.3 0 .6-.3.6-.6v-4.3c.1-.2 0-.4-.3-.5zm-.9 4.2h-2.9c-.3 0-.6.3-.6.6v22.2H11.9V22.7h29.4c.3 0 .6-.3.6-.6s-.3-.6-.6-.6h-33v-3.3L27.1 7.9l20.6 10.3v3.3z"/><path class="st0" d="M35.3 30.2h-4v-4c0-.3-.3-.6-.6-.6h-5.4c-.3 0-.6.3-.6.6v4h-4c-.3 0-.6.3-.6.6v5.4c0 .3.3.6.6.6h4v4c0 .3.3.6.6.6h5.4c.3 0 .6-.3.6-.6v-4h4c.3 0 .6-.3.6-.6v-5.4c0-.3-.2-.6-.6-.6zm-.6 5.4h-4c-.3 0-.6.3-.6.6v4H26v-4c0-.3-.3-.6-.6-.6h-4v-4.1h4c.3 0 .6-.3.6-.6v-4h4v4c0 .3.3.6.6.6h4v4.1zm17.4 4.1h-.8v-.8c0-.3-.3-.6-.6-.6s-.7.2-.7.6v.8h-.8c-.3 0-.6.3-.6.6s.3.6.6.6h.8v.8c0 .3.3.6.6.6s.6-.3.6-.6V41h.8c.3 0 .6-.3.6-.6s-.1-.7-.5-.7zM43.9 7.2c-1.7 0-3.1-1.4-3.1-3.1S42.2 1 43.9 1C45.6 1 47 2.4 47 4.1s-1.3 3.1-3.1 3.1zm0-5.1c-1 0-1.9.9-1.9 1.9 0 1 .9 1.9 1.9 1.9 1 0 1.9-.9 1.9-1.9 0-1-.8-1.9-1.9-1.9zm-40 32.4c-1.7 0-3.1-1.4-3.1-3.1 0-1.7 1.4-3.1 3.1-3.1s3.1 1.3 3.1 3-1.4 3.2-3.1 3.2zm0-5.1c-1 0-1.9.9-1.9 1.9 0 1 .9 1.9 1.9 1.9s1.9-.9 1.9-1.9c0-1-.9-1.9-1.9-1.9z"/></svg>