<svg version="1.1" id="Layer_1" xmlns="http://www.w3.org/2000/svg" x="0" y="0" viewBox="0 0 44.6 61.3" xml:space="preserve"><style type="text/css">.st0{fill:#846ea0}</style><path class="st0" d="M44 47.1l-11.5-7.4c-1-.7-2.2-.9-3.4-.8l-11.6 1.5-3.9-2.7c-.9-.7-2.1-.7-3-.1-1.2-.8-2.7-.5-3.6.6-.4.6-.6 1.3-.5 2 .1.7.5 1.3 1 1.7l12.9 9.6c.5.4 1 .5 1.6.5h.4l10.3-1.4c.6-.1 1.1.1 1.6.4l5.1 3.3c.1.1.2.1.3.1.2 0 .4-.1.5-.3l3.9-6c.3-.4.2-.8-.1-1zm-31.1-8.4l3.2 2.2c-.1.1-.2.1-.3.2-1.4-.9-2.8-1.8-4-2.7.3 0 .7 0 1.1.3zm26.7 14.1l-4.6-3c-.7-.5-1.6-.7-2.4-.5l-10.3 1.4c-.4.1-.7 0-1-.3l-13-9.5c-.3-.2-.5-.6-.6-.9-.1-.4 0-.7.3-1 .5-.6 1.3-.7 1.9-.3 1.5 1.2 3.3 2.4 5.2 3.5-.1.4-.2.8-.1 1.2.1.7.5 1.3 1 1.7.6.4 1.3.6 1.9.5l2.8-.4c2 .9 4.6 2 6.3 2h.5c1.1-.2 1.9-1.2 1.7-2.3-.2-1.1-1.2-1.9-2.3-1.8l-9.2 1.3c-.4.1-.7 0-1-.3-.3-.2-.5-.5-.5-.9s0-.7.3-1c.2-.3.5-.5.9-.5l11.8-1.5c.9-.1 1.8.1 2.6.6l10.9 7.1-3.1 4.9zm-12.4-8.4c.2 0 .4 0 .6.2.2.1.3.3.3.5.1.4-.2.8-.7.9-.8.1-2.3-.2-4.3-1l4.1-.6zM15.7 25.7h.6L28 24.2l3.9 2.7c.5.3 1 .5 1.6.5.5 0 1-.2 1.5-.5.4.3 1 .5 1.5.5.8 0 1.6-.4 2.1-1.1.4-.6.6-1.3.5-2-.1-.7-.5-1.3-1-1.7L25 13.2c-.6-.4-1.3-.6-1.9-.5L12.7 14c-.6.1-1.1 0-1.6-.4L6 10.4c-.3-.2-.7-.1-.9.2l-3.9 6c-.2.3-.1.7.2.9l11.5 7.4c.9.5 1.8.8 2.8.8zm16.9.2l-3.2-2.2c.1-.1.2-.1.3-.2 1.4.9 2.8 1.8 4 2.7-.4 0-.8 0-1.1-.3zM5.9 11.8l4.6 3c.7.5 1.6.7 2.4.5l10.3-1.4c.4-.1.7 0 1 .3l12.9 9.6c.3.2.5.5.5.9.1.4 0 .7-.3 1-.5.6-1.3.7-1.9.3-.1-.1-.2-.1-.2-.2-1.5-1.1-3.2-2.3-4.9-3.4.1-.4.2-.8.1-1.2-.2-1.4-1.5-2.5-3-2.3l-2.8.4c-2.2-1.1-5.2-2.2-6.8-1.9-.5.1-1 .4-1.3.8-.3.4-.5 1-.4 1.5.1.5.4 1 .8 1.4.4.3.8.4 1.2.4h.3l9.2-1.3c.7-.1 1.5.4 1.6 1.2 0 .4 0 .7-.3 1-.2.3-.5.5-.9.5l-11.8 1.5c-.9.1-1.8-.1-2.6-.6l-10.9-7 3.2-5zm12.4 8.4c-.4.1-.8-.2-.9-.7 0-.2 0-.4.2-.6.1-.2.3-.3.5-.3.8-.1 2.3.2 4.3 1l-4.1.6z"/><path class="st0" d="M21.7 26.9c-1.7-1.3-4.2-1.2-5.8.4-1.7 1.7-1.7 4.5 0 6.3l5.4 5.4c.1.1.3.2.4.2.2 0 .3-.1.4-.2l5.4-5.4c.8-.8 1.3-2 1.3-3.1 0-1.2-.5-2.3-1.3-3.1-1.6-1.8-4.1-1.9-5.8-.5zm5.9 3.5c0 .9-.3 1.7-.9 2.3l-5 5-5-5c-1.2-1.2-1.2-3.3 0-4.5 1.2-1.2 3.3-1.2 4.5 0 .2.2.6.2.9 0 1.2-1.2 3.3-1.2 4.5 0 .6.5 1 1.3 1 2.2z"/><path class="st0" d="M23.1 28.6c0 .3.3.6.6.6 1 0 1.7.8 1.7 1.7 0 .3.3.6.6.6s.6-.3.6-.6c0-1.6-1.3-3-3-3-.2.1-.5.4-.5.7zM5.4 29.8h-.9V29c0-.3-.3-.6-.6-.6s-.6.3-.6.6v.8h-.9c-.3 0-.6.3-.6.6s.3.6.6.6h.8v.8c0 .3.3.6.6.6s.6-.3.6-.6V31h.8c.5 0 .8-.3.8-.6s-.3-.6-.6-.6zm33.8 4.6h-.8v-.8c0-.3-.3-.6-.6-.6s-.6.3-.6.6v.8h-.8c-.3 0-.6.3-.6.6s.3.6.6.6h.8v.8c0 .3.3.6.6.6s.6-.3.6-.6v-.8h.8c.3 0 .6-.3.6-.6s-.3-.6-.6-.6zM16.5 7.6c-1.7 0-3.1-1.4-3.1-3.1s1.4-3.1 3.1-3.1c1.7 0 3.1 1.4 3.1 3.1s-1.3 3.1-3.1 3.1zm0-5.1c-1 0-1.9.9-1.9 1.9 0 1 .9 1.9 1.9 1.9 1 0 1.9-.9 1.9-1.9 0-1-.8-1.9-1.9-1.9zm16.7 57.8c-1.7 0-3.1-1.4-3.1-3.1 0-1.7 1.4-3.1 3.1-3.1 1.7 0 3.1 1.4 3.1 3.1.1 1.6-1.4 3.1-3.1 3.1zm0-5.1c-1 0-1.9.9-1.9 1.9 0 1 .9 1.9 1.9 1.9 1 0 1.9-.9 1.9-1.9 0-1-.8-1.9-1.9-1.9z"/></svg>