<svg version="1.1" id="Layer_1" xmlns="http://www.w3.org/2000/svg" x="0" y="0" viewBox="0 0 233.4 82.6" xml:space="preserve"><style type="text/css">.st0{fill:#846ea0}</style><path class="st0" d="M151.6 12.3l3.4-.3 1.2 5.4c0 .1.1.2.1.4.1.2.1.4.2.6.6 1.2 2 2 3.8 2.1h.5c1.6 0 3.3-.4 5-1.3 3.2-1.6 5.5-6 5.4-8.8 0-.4.2-.8.6-1 1.3-.6 2.1-1.6 2.5-3.1.5-1.8-.2-3.8-1.7-5-1.9-1.4-4-1.8-6-1-1.9.8-3.2 2.5-3.4 4.5-.2 1.6.3 3.2 1.3 4.3-.7.1-1.4-.4-1.6-1.2l-.6-3c-.1-.4-.3-.8-.7-1-.4-.2-.8-.3-1.2-.2-.4.1-.8.3-1 .7-.2.4-.3.8-.2 1.2l1.1 5.2-1.2.9-.4-1.7c-.2-.9-1.2-1.6-2.1-1.6l-5.2.4c-.8.1-1.5.8-1.4 1.7 0 1.2.8 1.8 1.6 1.8zm-.1-1.8l5.2-.4c.4 0 .8.3.8.6l.6 2.7c0 .2.2.4.4.5.2.1.5 0 .6-.2.6-.6 1.4-1.2 2.2-1.7.2-.1.3-.4.3-.7l-1.2-5.7c0-.1 0-.2.1-.3l.2-.2c.1 0 .2 0 .3.1l.2.2.6 3c.3 1.5 1.7 2.4 3.2 2.1.4-.1.7-.1 1.1-.1.3 0 .5-.2.6-.5.1-.3 0-.5-.3-.7-1.4-.9-2.1-2.5-1.9-4.1.2-1.6 1.2-2.9 2.7-3.5 1.5-.6 3.3-.4 4.8.8 1.1.9 1.7 2.3 1.3 3.7-.3 1.1-.9 1.8-1.8 2.2-.9.4-1.4 1.2-1.4 2.1.1 2.4-2 6.2-4.7 7.6-1.7.8-3.4 1.2-4.9 1.1-1.4-.1-2.4-.6-2.8-1.4-.1-.1-.1-.2-.1-.4v-.1l-.1-.1-1.2-5.5c-.1-.5-.6-.9-1.1-.9h-.1l-3.5.3c-.1 0-.3-.1-.3-.3-.1-.1 0-.2.2-.2z"/><path class="st0" d="M148.1 31.5l6.1 7.2c.3.4.5.9.5 1.4v5.5c0 .3.3.6.6.6h6.5c.2 0 .4-.1.5-.3V33.2c0-1.1-.4-2.2-1.1-3l-6.8-8.1.2-4.3c.1-1-.5-2-1.4-2.4 0-1.3-1-2.4-2.3-2.5-.6 0-1.3.2-1.8.6-.5.4-.8 1-.8 1.7l-1 14.5c.2.7.4 1.3.8 1.8zm5.3-10.4c-.1 0-.1-.1-.2-.1 0-1.4 0-2.9.1-4.2.2.2.3.5.3.9l-.2 3.4zm-3.6-5.8c0-.3.2-.6.4-.8.2-.2.5-.3.9-.3.7 0 1.2.6 1.1 1.3-.2 1.8-.2 3.7-.2 5.7-.3.1-.7.2-.9.5-.5.4-.8 1-.8 1.7-.1.7.2 1.3.6 1.8l1.6 1.9c.3 2.2.9 5 1.9 6.2.4.4.9.7 1.4.7.4 0 .9-.2 1.2-.5.4-.3.6-.8.7-1.3 0-.5-.1-1-.4-1.4l-5.5-6.4c-.2-.2-.3-.6-.3-.9 0-.3.2-.6.4-.8.5-.4 1.3-.4 1.7.1l7 8.3c.5.6.8 1.4.8 2.2v11.8h-5.3v-4.9c0-.8-.3-1.6-.8-2.2l-6.1-7.2c-.2-.2-.3-.6-.3-.9l.9-14.6zm6.5 16.2c.1.1.2.3.2.5s-.1.3-.2.5c-.1.1-.3.2-.5.2s-.3-.1-.5-.2c-.5-.5-.9-1.8-1.3-3.5l2.3 2.5zm15.5-16.1c-.9.4-1.5 1.4-1.4 2.4l.2 4.3-6.8 8.1c-.7.9-1.1 1.9-1.1 3v12.7s0 .1.1.1c.1.2.3.3.5.3h6.5c.3 0 .6-.3.6-.6v-5.5c0-.5.2-1 .5-1.4l6.1-7.2c.4-.5.6-1.1.6-1.8l-1-14.5c-.1-1.3-1.3-2.4-2.6-2.3-1.2 0-2.2 1.1-2.2 2.4zm.1 1.4c.1 1.4.1 2.8.1 4.2-.1 0-.1 0-.2.1l-.2-3.5c0-.2.1-.5.3-.8zm3.5-1.5l1 14.5c0 .3-.1.6-.3.9l-6.1 7.2c-.5.6-.8 1.4-.8 2.2V45h-5.3V33.2c0-.8.3-1.6.8-2.2l7-8.3c.2-.2.5-.4.8-.4.3 0 .6.1.9.3.2.2.4.5.4.8 0 .3-.1.6-.3.9l-5.5 6.4c-.7.8-.6 2 .2 2.7.4.3.8.5 1.2.5.5 0 1.1-.2 1.4-.7 1-1.2 1.6-4 1.9-6.2l1.6-1.9c.4-.5.6-1.1.6-1.8-.1-.7-.4-1.2-.8-1.7-.3-.2-.6-.4-.9-.5 0-2 0-3.9-.2-5.6 0-.7.5-1.2 1.1-1.3.7-.1 1.3.4 1.3 1.1zm-5.4 17c-.3.3-.7.3-1 .1-.3-.2-.3-.7-.1-.9l2.3-2.7c-.3 1.7-.8 3-1.2 3.5zM80.3 20.6h-1.8c-.3 0-.6.3-.6.6s.3.6.6.6h1.8c.3 0 .6-.3.6-.6s-.3-.6-.6-.6zm8.7.6c0-.3-.3-.6-.6-.6h-1.8c-.3 0-.6.3-.6.6s.3.6.6.6h1.8c.3 0 .6-.3.6-.6zm-5.7 4.6c.8 0 1.4-.6 1.4-1.4v-2.8c0-.3-.3-.6-.6-.6s-.6.3-.6.6v2.8c0 .2-.4.2-.4 0v-2.8c0-.3-.3-.6-.6-.6s-.6.3-.6.6v2.8c-.1.7.6 1.4 1.4 1.4zm.8 1.1s-.3.5-.9.4c-.5 0-.7-.4-.8-.4-.2-.3-.6-.4-.9-.2-.3.2-.4.6-.2.9.3.4.9.9 1.7 1h.1c1.1 0 1.8-.9 1.8-1 .2-.3.1-.7-.2-.9 0-.1-.4-.1-.6.2z"/><path class="st0" d="M96.1 29.4l2.4-.9c.2-.1.3-.2.4-.4s.1-.4 0-.5L97 24.3c-1.6-3-2.7-5.7-3.4-8.4-1.1-4.3-4.7-7.3-8.6-7.3h-3.6c-3.9 0-7.5 3-8.6 7.3-.7 2.7-1.8 5.4-3.4 8.4l-1.8 3.4c-.1.2-.1.3 0 .5s.2.3.4.4l2.5.9c1.1.4 2.1.6 3.1.6h.6c.2.9.5 1.7.9 2.5l-2.4.2c-2.5.2-4.4 2.1-4.4 4.5v6c0 2.5 2 4.5 4.5 4.5h21c2.5 0 4.5-2 4.5-4.5v-6c0-2.3-1.8-4.1-4.4-4.5l-2.4-.2c.3-.8.6-1.6.9-2.5 1.1 0 2.3-.2 3.7-.7zm-25.2-1.1l-1.7-.6 1.4-2.7c1.6-3.1 2.8-5.9 3.5-8.7 1-3.7 4-6.3 7.4-6.3h3.6c3.4 0 6.4 2.6 7.4 6.3.7 2.8 1.9 5.6 3.5 8.6l1.5 2.7-1.8.6c-1.1.4-2 .6-2.9.5.5-2 .7-4 .7-5.3v-.1c0-1.4-1.1-2.5-2.5-2.5V19h.7c.3 0 .6-.3.6-.6s-.3-.6-.7-.6c-2.3 0-4.4-1.2-5.6-3.2-.6-1-1.5-1.9-2.5-2.5l-.2-.2c-1.2-.7-2.6-1.1-4-1.1h-.5c-.3 0-.6.3-.6.6s.3.6.6.6h.5c.5 0 1 .1 1.5.2-2.9 1-5.1 3.8-5.1 7v1.5c-1.4.1-2.5 1.2-2.5 2.6 0 1.3.2 3.3.7 5.3-.9.2-1.9.1-3-.3zm8.2 5.1l2.6 4.8c-1.6-1.1-3.3-2.8-4.5-4.6l1.9-.2zm8.4 0l2 .2c-1.2 1.8-3 3.5-4.6 4.6l2.6-4.8zm-1-.9l-3.2 6-3.2-6v-2.2c.9.4 1.9.6 3 .6h.4c1.1 0 2.1-.2 3-.6v2.2zm-3-2.8H83c-3.4 0-6.2-2.8-6.2-6.2v-4.1c0-3.3 2.6-6 5.9-6.1.8.5 1.5 1.2 2 2.1 1.1 1.8 2.8 3 4.8 3.5v4.6c.1 3.5-2.6 6.2-6 6.2zm-9.1-6.2c0-.7.5-1.3 1.2-1.3v1.4c0 1.5.4 2.9 1.2 4-.5.5-1.1.8-1.7 1-.5-1.9-.7-3.8-.7-5.1zm16.5.1v-1.4c.7.1 1.2.6 1.2 1.3 0 1.3-.2 3.2-.7 5.1-.6-.2-1.2-.5-1.7-1 .7-1.2 1.2-2.6 1.2-4zm-15.5 6.2c.8-.2 1.5-.6 2.2-1.2.4.4.7.7 1.2 1v2.5l-2.4.2c-.4-.7-.7-1.6-1-2.5zm-5.9 13.4v-6c0-1.7 1.4-3.1 3.3-3.2l2.9-.3c.1.1.1.2.2.3 1.6 2.5 4.4 5 6.8 6.2v4.1c0 .8.3 1.6.8 2.2H72.7c-1.8-.1-3.2-1.5-3.2-3.3zM93.7 34c1.6.2 3.3 1.3 3.3 3.2v6c0 1.8-1.5 3.2-3.2 3.2h-2.6c.5-.6.8-1.4.8-2.2v-2c1.1-.3 2-1.3 2-2.5 0-1.4-1.2-2.6-2.6-2.6s-2.6 1.2-2.6 2.6c0 1.2.8 2.2 2 2.5v2c0 1.2-1 2.2-2.2 2.2h-2.5c-1.2 0-2.2-1-2.2-2.2v-4.1c2.3-1.1 5.2-3.7 6.8-6.2.1-.1.1-.2.2-.3l2.8.4zm-2.3 7.1c-.7 0-1.3-.6-1.3-1.3 0-.7.6-1.3 1.3-1.3.7 0 1.3.6 1.3 1.3 0 .7-.6 1.3-1.3 1.3zm-1.3-8.7l-2.4-.2v-2.5c.4-.3.8-.7 1.2-1 .7.6 1.4 1 2.2 1.2-.3.8-.6 1.7-1 2.5z"/><path class="st0" d="M77.7 39.3h-2v-2c0-.3-.3-.6-.6-.6s-.6.3-.6.6v2h-2c-.3 0-.6.3-.6.6s.3.6.6.6h2v2c0 .3.3.6.6.6s.6-.3.6-.6v-2h2c.3 0 .6-.3.6-.6s-.3-.6-.6-.6zm115.6 2.4h.8v-.8c0-.3.3-.6.6-.6s.6.3.6.6v.8h.8c.3 0 .6.3.6.6s-.3.6-.6.6h-.8v.8c0 .3-.3.6-.6.6s-.6-.3-.6-.6V43h-.8c-.3 0-.6-.3-.6-.6-.1-.4.2-.7.6-.7zM52 51.5h.8v-.8c0-.3.3-.6.6-.6s.6.3.6.6v.8h.8c.3 0 .6.3.6.6s-.3.6-.6.6H54v.8c0 .3-.3.6-.6.6s-.6-.3-.6-.6v-.8H52c-.3 0-.6-.3-.6-.6s.3-.6.6-.6zM26.8 72.1h.8v-.8c0-.3.3-.6.6-.6s.6.3.6.6v.8h.8c.3 0 .6.3.6.6s-.3.6-.6.6h-.8v.8c0 .3-.3.6-.6.6s-.6-.3-.6-.6v-.8h-.8c-.3 0-.6-.3-.6-.6-.1-.3.2-.6.6-.6zm137.5-13.5h.8v-.8c0-.3.3-.6.6-.6s.6.3.6.6v.8h.8c.3 0 .6.3.6.6s-.3.6-.6.6h-.8v.8c0 .3-.3.6-.6.6s-.6-.3-.6-.6v-.8h-.8c-.3 0-.6-.3-.6-.6-.1-.3.2-.6.6-.6zm65 2h.8v-.8c0-.3.3-.6.6-.6s.6.3.6.6v.8h.8c.3 0 .6.3.6.6s-.3.6-.6.6h-.8v.8c0 .3-.3.6-.6.6s-.6-.3-.6-.6v-.8h-.8c-.3 0-.6-.3-.6-.6-.1-.3.2-.6.6-.6zM0 54.1C0 52.4 1.4 51 3.1 51c1.7 0 3.1 1.4 3.1 3.1 0 1.7-1.4 3.1-3.1 3.1-1.7 0-3.1-1.4-3.1-3.1zm1.2 0c0 1 .9 1.9 1.9 1.9 1 0 1.9-.9 1.9-1.9 0-1-.9-1.9-1.9-1.9-1 0-1.9.8-1.9 1.9zm116.3-43.3c0-1.7 1.4-3.1 3.1-3.1 1.7 0 3.1 1.4 3.1 3.1 0 1.7-1.4 3.1-3.1 3.1-1.7.1-3.1-1.3-3.1-3.1zm1.3 0c0 1 .9 1.9 1.9 1.9 1 0 1.9-.9 1.9-1.9 0-1-.9-1.9-1.9-1.9-1.1 0-1.9.9-1.9 1.9zM31.5 37.3c0-1.7 1.4-3.1 3.1-3.1 1.7 0 3.1 1.4 3.1 3.1 0 1.7-1.4 3.1-3.1 3.1-1.7.1-3.1-1.3-3.1-3.1zm1.3 0c0 1 .9 1.9 1.9 1.9 1 0 1.9-.9 1.9-1.9 0-1-.9-1.9-1.9-1.9-1.1 0-1.9.9-1.9 1.9zm42.9 40.8c0-1.7 1.4-3.1 3.1-3.1 1.7 0 3.1 1.4 3.1 3.1 0 1.7-1.4 3.1-3.1 3.1-1.7 0-3.1-1.4-3.1-3.1zm1.2 0c0 1 .9 1.9 1.9 1.9 1 0 1.9-.9 1.9-1.9 0-1-.9-1.9-1.9-1.9-1 0-1.9.9-1.9 1.9zm122.3-15.2c0-1.7 1.4-3.1 3.1-3.1 1.7 0 3.1 1.4 3.1 3.1 0 1.7-1.4 3.1-3.1 3.1-1.7 0-3.1-1.4-3.1-3.1zm1.2 0c0 1 .9 1.9 1.9 1.9 1 0 1.9-.9 1.9-1.9 0-1-.9-1.9-1.9-1.9-1 0-1.9.8-1.9 1.9zm-83.8-.6c0 .3.3.6.6.6h18c.3 0 .6-.3.6-.6s-.3-.6-.6-.6h-18c-.3 0-.6.2-.6.6zm.6 4.7h10.4c.3 0 .6-.3.6-.6s-.3-.6-.6-.6h-10.4c-.3 0-.6.3-.6.6s.3.6.6.6zm18 0c.3 0 .6-.3.6-.6s-.3-.6-.6-.6h-4.7c-.3 0-.6.3-.6.6s.3.6.6.6h4.7zm.1 6.7h-18.1c-.3 0-.6.3-.6.6s.3.6.6.6h18.1c.3 0 .6-.3.6-.6s-.3-.6-.6-.6zm0-4.2h-10.5c-.3 0-.6.3-.6.6s.3.6.6.6h10.5c.3 0 .6-.3.6-.6s-.3-.6-.6-.6zm-18.1 1.2h4.6c.3 0 .6-.3.6-.6s-.3-.6-.6-.6h-4.6c-.3 0-.6.3-.6.6s.3.6.6.6zM133.5 48H129c-.3 0-.6.3-.6.6s.3.6.6.6h4.6c.3 0 .6-.3.6-.6-.1-.3-.3-.6-.7-.6zm-4.5 4h4.6c.3 0 .6-.3.6-.6s-.3-.6-.6-.6H129c-.3 0-.6.3-.6.6-.1.3.2.6.6.6zm0 2.7h4.6c.3 0 .6-.3.6-.6s-.3-.6-.6-.6H129c-.3 0-.6.3-.6.6-.1.3.2.6.6.6z"/><path class="st0" d="M112.6 82.1h27.3c1.2 0 2.2-1 2.2-2.2V43.1c0-1.2-1-2.2-2.2-2.2h-27.3c-1.2 0-2.2 1-2.2 2.2v36.8c0 1.2 1 2.2 2.2 2.2zm21.7-37.5h3.4V78h-22.9V44.6h3.3c.2.2.4.4.7.6.3.2.5.4.8.5l.9.3h.1c.3.1.6.1 1 .1h9.3c.3 0 .7 0 1-.1h.1l.9-.3c.3-.1.6-.3.8-.5l.6-.6zm-.8-1.1c-.2.2-.4.4-.5.6-.2.1-.3.3-.5.4l-.1.1c-.2.1-.3.1-.5.2-.1 0-.1 0-.2.1-.2.1-.5.1-.7.1h-9.3c-.2 0-.5 0-.7-.1-.1 0-.1 0-.2-.1-.2-.1-.4-.1-.5-.2 0 0-.1 0-.1-.1-.2-.1-.4-.2-.5-.4-.2-.2-.4-.4-.5-.6-.3-.4-.5-.8-.6-1.3h15.8c-.4.5-.6.9-.9 1.3zm-21.9-.4c0-.5.4-.9.9-.9h4.5c.1.4.1.7.3 1.1h-3.2c-.3 0-.6.3-.6.6v34.7c0 .3.3.6.6.6h24.1c.3 0 .6-.3.6-.6V43.9c0-.3-.3-.6-.6-.6H135c.1-.3.2-.7.3-1.1h4.5c.5 0 .9.4.9.9v36.8c0 .5-.4.9-.9.9h-27.3c-.5 0-.9-.4-.9-.9V43.1z"/><path class="st0" d="M117.2 57.8h7.6c.3 0 .6-.3.6-.6v-8.6c0-.3-.3-.6-.6-.6h-7.6c-.3 0-.6.3-.6.6v8.6c0 .3.3.6.6.6zm.9-1.3c.4-.8 1.5-1.4 2.9-1.4 1.3 0 2.5.6 2.9 1.4h-5.8zm1.5-4c0-.8.6-1.4 1.4-1.4.8 0 1.4.6 1.4 1.4 0 .8-.6 1.4-1.4 1.4-.8 0-1.4-.6-1.4-1.4zm4.6-3.3V55c-.4-.3-.8-.6-1.3-.8.4-.5.7-1.1.7-1.7 0-1.4-1.2-2.6-2.6-2.6-1.4 0-2.6 1.2-2.6 2.6 0 .7.3 1.3.7 1.7-.4.2-.8.4-1.1.6v-5.7h6.2z"/></svg>