<svg version="1.1" id="Layer_1" xmlns="http://www.w3.org/2000/svg" x="0" y="0" viewBox="0 0 48.2 55.7" xml:space="preserve"><style type="text/css">.st0{fill:#846ea0}</style><path class="st0" d="M7.8 29.5c1 0 1.8.8 1.8 1.8V35c0 .3.3.6.6.6h2.6v11.9c0 3.5 2.8 6.3 6.3 6.3h.4c3.5 0 6.3-2.8 6.3-6.3v-31c0-2.8 2.3-5.1 5.1-5.1h.4c2.8 0 5.1 2.3 5.1 5.1v17.6c-.8.3-1.3 1-1.3 1.8s.9 2.7 1.3 3.5v3c0 .3.3.6.6.6s.6-.3.6-.6v-3c.4-.8 1.3-2.7 1.3-3.5 0-.8-.5-1.5-1.3-1.8V16.5c0-3.5-2.8-6.3-6.3-6.3H31c-3.5 0-6.3 2.8-6.3 6.3v31c0 2.8-2.3 5.1-5.1 5.1h-.4c-2.8 0-5.1-2.3-5.1-5.1V35.6h2.6c.3 0 .6-.3.6-.6v-3.6c0-1 .8-1.8 1.8-1.8 1.7 0 3.1-1.4 3.1-3.1v-14c0-1.5-1.2-2.7-2.7-2.7H7.4c-1.5 0-2.7 1.2-2.7 2.7v13.9c0 1.7 1.4 3.1 3.1 3.1zm29.3 8.3c-.4-.9-.7-1.6-.7-1.9 0-.4.3-.7.7-.7.4 0 .7.3.7.7 0 .3-.3 1-.7 1.9zM6 12.5c0-.8.6-1.4 1.4-1.4h12.3c.8 0 1.4.6 1.4 1.4v.8h-5.6c-.3 0-.6.3-.6.6s.3.6.6.6H21V17h-5.6c-.3 0-.6.3-.6.6s.3.6.6.6H21v2.5h-5.6c-.3 0-.6.3-.6.6s.3.6.6.6H21v2.5h-5.6c-.3 0-.6.3-.6.6s.3.6.6.6H21v.5c0 1-.8 1.8-1.8 1.8-1.7 0-3.1 1.4-3.1 3.1v3h-5.3v-3c0-1.7-1.4-3.1-3.1-3.1-1 0-1.8-.8-1.8-1.8V12.5zm17-9.9h-.8v-.8c0-.3-.3-.6-.6-.6s-.6.3-.6.6v.8h-.8c-.3 0-.6.3-.6.6s.3.6.6.6h.8v.8c0 .3.3.6.6.6s.6-.3.6-.6v-.8h.8c.3 0 .6-.3.6-.6s-.3-.6-.6-.6zm21.7 26.3c-1.7 0-3.1-1.4-3.1-3.1s1.4-3.1 3.1-3.1c1.7 0 3.1 1.4 3.1 3.1s-1.3 3.1-3.1 3.1zm0-5.1c-1 0-1.9.9-1.9 1.9 0 1 .9 1.9 1.9 1.9 1 0 1.9-.9 1.9-1.9 0-1-.8-1.9-1.9-1.9zM4.1 46.4C2.4 46.4 1 45 1 43.3c0-1.7 1.4-3.1 3.1-3.1s3.1 1.4 3.1 3.1c0 1.7-1.4 3.1-3.1 3.1zm0-5c-1 0-1.9.9-1.9 1.9 0 1 .9 1.9 1.9 1.9S6 44.3 6 43.3c0-1.1-.9-1.9-1.9-1.9z"/></svg>