<svg version="1.1" id="Layer_1" xmlns="http://www.w3.org/2000/svg" x="0" y="0" viewBox="0 0 221 63.3" xml:space="preserve"><style type="text/css">.st0{fill:#846ea0}</style><path class="st0" d="M98.7 24.1h-.8v-.8c0-.3-.3-.6-.6-.6s-.6.3-.6.6v.8h-.8c-.3 0-.6.3-.6.6s.3.6.6.6h.8v.8c0 .3.3.6.6.6s.6-.3.6-.6v-.8h.8c.3 0 .6-.3.6-.6.1-.3-.2-.6-.6-.6zM25 40.6h-.8v-.8c0-.3-.3-.6-.6-.6s-.6.3-.6.6v.8h-.8c-.3 0-.6.3-.6.6s.3.6.6.6h.8v.8c0 .3.3.6.6.6s.6-.3.6-.6v-.8h.8c.3 0 .6-.3.6-.6s-.3-.6-.6-.6zM156.5 52h-.8v-.8c0-.3-.3-.6-.6-.6s-.6.3-.6.6v.8h-.8c-.3 0-.6.3-.6.6s.3.6.6.6h.8v.8c0 .3.3.6.6.6s.6-.3.6-.6v-.8h.8c.3 0 .6-.3.6-.6s-.3-.6-.6-.6zm-125-35.9h-.8v-.8c0-.3-.3-.6-.6-.6s-.6.3-.6.6v.8h-.8c-.3 0-.6.3-.6.6s.3.6.6.6h.8v.8c0 .3.3.6.6.6s.6-.3.6-.6v-.8h.8c.3 0 .6-.3.6-.6s-.3-.6-.6-.6zM196 27.2h-.8v-.8c0-.3-.3-.6-.6-.6s-.6.3-.6.6v.8h-.8c-.3 0-.6.3-.6.6s.3.6.6.6h.8v.8c0 .3.3.6.6.6s.6-.3.6-.6v-.8h.8c.3 0 .6-.3.6-.6s-.3-.6-.6-.6zM188.1 56c-1.7 0-3.1-1.4-3.1-3.1 0-1.7 1.4-3.1 3.1-3.1 1.7 0 3.1 1.4 3.1 3.1 0 1.7-1.4 3.1-3.1 3.1zm0-5.1c-1 0-1.9.9-1.9 1.9 0 1 .9 1.9 1.9 1.9 1 0 1.9-.9 1.9-1.9 0-1-.9-1.9-1.9-1.9zm-138 .6c-1.7 0-3.1-1.4-3.1-3.1 0-1.7 1.4-3.1 3.1-3.1 1.7 0 3.1 1.4 3.1 3.1 0 1.7-1.4 3.1-3.1 3.1zm0-5.1c-1 0-1.9.9-1.9 1.9 0 1 .9 1.9 1.9 1.9 1 0 1.9-.9 1.9-1.9 0-1-.9-1.9-1.9-1.9zm66.3-29.9c-1.7 0-3.1-1.4-3.1-3.1 0-1.7 1.4-3.1 3.1-3.1 1.7 0 3.1 1.4 3.1 3.1 0 1.7-1.4 3.1-3.1 3.1zm0-5.1c-1 0-1.9.9-1.9 1.9 0 1 .9 1.9 1.9 1.9 1 0 1.9-.9 1.9-1.9 0-1-.9-1.9-1.9-1.9zM3.3 32.9c-1.7 0-3.1-1.4-3.1-3.1 0-1.7 1.4-3.1 3.1-3.1 1.7 0 3.1 1.4 3.1 3.1 0 1.7-1.4 3.1-3.1 3.1zm0-5.1c-1 0-1.9.9-1.9 1.9 0 1 .9 1.9 1.9 1.9 1 0 1.9-.9 1.9-1.9 0-1-.9-1.9-1.9-1.9zm214.2 6.1c-1.7 0-3.1-1.4-3.1-3.1 0-1.7 1.4-3.1 3.1-3.1 1.7 0 3.1 1.4 3.1 3.1.1 1.7-1.4 3.1-3.1 3.1zm0-5.1c-1 0-1.9.9-1.9 1.9 0 1 .9 1.9 1.9 1.9 1 0 1.9-.9 1.9-1.9 0-1-.8-1.9-1.9-1.9zM57.2 31.5H41.5V-.1h15.7c.3 0 .6.3.6.6s-.3.6-.6.6H42.8v29.1h14.5c.3 0 .6.3.6.6s-.3.7-.7.7zm26 0H67.4c-.3 0-.6-.3-.6-.6s.3-.6.6-.6h14.5V1.2H67.4c-.3 0-.6-.3-.6-.6s.3-.6.6-.6h15.7v31.5z"/><path class="st0" d="M85.9 33.9H71.4c-.3 0-.6-.3-.6-.6s.3-.6.6-.6h13.2V3.5h-1.5c-.3 0-.6-.3-.6-.6s.3-.6.6-.6h2.8v31.6zm-32.6 0H38.8V2.2h2.8c.3 0 .6.3.6.6s-.3.6-.6.6h-1.5v29.2h13.2c.3 0 .6.3.6.6s-.2.7-.6.7zm9.1-27.1c-.3 0-.6-.3-.6-.6 0-2.7-2-5-4.4-5-.3 0-.6-.3-.6-.6s.3-.6.6-.6c3.1 0 5.7 2.8 5.7 6.2 0 .3-.3.6-.7.6z"/><path class="st0" d="M62.4 6.8c-.3 0-.6-.3-.6-.6 0-3.4 2.6-6.2 5.7-6.2.3 0 .6.3.6.6s-.3.6-.6.6c-2.4 0-4.4 2.2-4.4 5-.1.3-.4.6-.7.6zm0 30c-.3 0-.6-.3-.6-.6 0-2.6-2-4.6-4.4-4.6-.3 0-.6-.3-.6-.6s.3-.6.6-.6c3.1 0 5.7 2.6 5.7 5.9 0 .2-.3.5-.7.5z"/><path class="st0" d="M62.4 36.8c-.3 0-.6-.3-.6-.6 0-3.2 2.6-5.9 5.7-5.9.3 0 .6.3.6.6s-.3.6-.6.6c-2.4 0-4.4 2.1-4.4 4.6-.1.4-.4.7-.7.7zm3.4 2.1h-7.1c-.3 0-.6-.3-.6-.6s.3-.6.6-.6h7.1c.3 0 .6.3.6.6s-.3.6-.6.6z"/><path class="st0" d="M58.7 38.9c-.3 0-.6-.3-.6-.6 0-2.4-2.1-4.4-4.6-4.4-.3 0-.6-.3-.6-.6s.3-.6.6-.6c3.2 0 5.9 2.5 5.9 5.6-.1.3-.4.6-.7.6zm7.1 0c-.3 0-.6-.3-.6-.6 0-3.1 2.6-5.6 5.9-5.6.3 0 .6.3.6.6s-.3.6-.6.6c-2.6 0-4.6 2-4.6 4.4 0 .3-.3.6-.7.6zM55.1 12.7l-3.8-3.5-3.9 3.4V-.1h7.7v12.8zM48.7 1.2v8.7l2.7-2.4 2.5 2.3V1.2h-5.2zm30.5 13.9H65.9c-.3 0-.6-.3-.6-.6s.3-.6.6-.6h13.3c.3 0 .6.3.6.6s-.3.6-.6.6zm0 7.5H65.9c-.3 0-.6-.3-.6-.6s.3-.6.6-.6h13.3c.3 0 .6.3.6.6 0 .4-.3.6-.6.6zm0-3.7H65.9c-.3 0-.6-.3-.6-.6s.3-.6.6-.6h13.3c.3 0 .6.3.6.6s-.3.6-.6.6zm0-7.6H65.9c-.3 0-.6-.3-.6-.6s.3-.6.6-.6h13.3c.3 0 .6.3.6.6 0 .4-.3.6-.6.6zm0-3.7H65.9c-.3 0-.6-.3-.6-.6s.3-.6.6-.6h13.3c.3 0 .6.3.6.6s-.3.6-.6.6zm0 18.8H65.9c-.3 0-.6-.3-.6-.6s.3-.6.6-.6h13.3c.3 0 .6.3.6.6s-.3.6-.6.6zm-20.3-3.8H45.6c-.3 0-.6-.3-.6-.6s.3-.6.6-.6h13.3c.3 0 .6.3.6.6 0 .4-.3.6-.6.6zm0-3.7H45.6c-.3 0-.6-.3-.6-.6s.3-.6.6-.6h13.3c.3 0 .6.3.6.6s-.3.6-.6.6z"/><path class="st0" d="M58.9 11.3h-4.1c-.3 0-.6-.3-.6-.6s.3-.6.6-.6h4.1c.3 0 .6.3.6.6 0 .4-.3.6-.6.6zm0-3.7h-4.1c-.3 0-.6-.3-.6-.6s.3-.6.6-.6h4.1c.3 0 .6.3.6.6s-.3.6-.6.6zm0 7.5H45.6c-.3 0-.6-.3-.6-.6s.3-.6.6-.6h13.3c.3 0 .6.3.6.6s-.3.6-.6.6zm-11.2-3.8h-2.1c-.3 0-.6-.3-.6-.6s.3-.6.6-.6h2.1c.3 0 .6.3.6.6 0 .4-.3.6-.6.6zm0-3.7h-2.1c-.3 0-.6-.3-.6-.6s.3-.6.6-.6h2.1c.3 0 .6.3.6.6s-.3.6-.6.6zm11.2 19H45.6c-.3 0-.6-.3-.6-.6s.3-.6.6-.6h13.3c.3 0 .6.3.6.6s-.3.6-.6.6zm66 28h-2.4c-.1 0-.2 0-.3.1-1.8 1.7-6.5 2.8-7.8 3.1.2-1.3-.7-2.5-2.1-3 0-.5 0-1.2-.5-2-.2-.3-.4-.6-.7-.8 1.3 0 2.6-.2 3.8-.7.3-.1.4-.4.3-.6-.1-.3-.4-.4-.6-.3-4.4 1.7-10.1-.5-10.1-.5-.2-.1-.3 0-.5.1-1.9 1.5-3.5 1.9-4.7 1.9h-.6c-.1 0-.3 0-.4-.1h-.1c-.2 0-.4-.2-.5-.4-.1-.2 0-.5.1-.7l4.9-6.2 8-.4c.3 0 .5-.2.5-.5s-.2-.5-.5-.5l-3.1.1 2.4-2.9c4.2 1.4 8.5 3.7 8.5 3.7.1 0 .1 0 .2.1l6.3-.1c.3 0 .5-.2.5-.5s-.2-.5-.5-.5l-6.2.1c-.7-.4-4.4-2.2-8.2-3.6l1.7-2c1.1-1.4 1-3.4-.3-4.5l-.1-.1c-1.3-1.1-3.3-.8-4.4.6l-4 4.9c-1.6.4-4.3 1.1-6.5 1.8-.6.2-1.1.5-1.5 1l-6.4 7.6c-.3.4-.4.9-.3 1.3.1.5.4.8.8 1 .7.4 2 .7 3.4.2l-3.3 4c0 .1-.1.1-.1.2L88 60.9c-.1.4 0 .8.3 1.1.2.2.4.2.7.2.2 0 .3 0 .5-.1l4.9-2.6c.1 0 .1-.1.2-.1L99 54c.1.7.3 1.5 1 2.1.2.2.5.3.9.3.2 1.3 1.2 3.5 3.8 3.5h.1c.3.6 1.2 1.8 2.9 2 .5.1 1.3.1 2.2.1 2.2 0 4.9-.4 5.4-2 .2-.5.1-1-.1-1.4 1.7-.4 5.7-1.4 7.7-3.1h2.2c.3 0 .5-.2.5-.5s-.5-.4-.7-.4zm-30.5-5.8c-2 2.1-3.6 1.9-4.7 1.4-.2-.1-.2-.3-.3-.4 0-.2 0-.4.1-.5l6.4-7.6c.3-.3.6-.5 1-.6 2.3-.7 4-1.1 5.2-1.4l-6 7.3c-.4.5-1 1.1-1.7 1.8zm-.7 9.7L88.8 61l1.5-5.3L108 34.1c.8-1 2.2-1.2 3.1-.4l.3-.4-.3.4.1.1c.9.8 1 2.2.2 3.1l-5.2 6.4-3.9.2c-.1 0-.3.1-.4.2l-5 6.4c-.4.5-.4 1.1-.2 1.6s.7.9 1.2 1c.2 0 .3.1.5.1l-4.7 5.7zm6-5.6c1.3-.1 2.8-.6 4.5-1.9.6.2 1.9.6 3.6.9 1.5.2 2.6.8 3.1 1.5.3.5.4 1 .3 1.3-3.8.6-9.8 1.3-10.9.5-.6-.5-.7-1.7-.6-2.3zm1.9 3.6c.4 0 .9.1 1.3.1 3 0 7.1-.6 8.5-.9h.1c1.1.3 1.8 1.1 1.7 2 0 .2-.2.4-.4.4-1.6.1-5.6.5-8.2.8-2.1.2-2.8-1.7-3-2.4zm12.5 3.2c-.4 1.2-4.2 1.6-6.5 1.2-1-.2-1.6-.7-1.9-1.2 2.6-.2 6-.6 7.5-.7.3 0 .5-.1.7-.3.1.2.4.5.2 1zm25.5-23.9c-.2 0-.4-.1-.5-.2-.3-.3-.3-.7-.1-1 2.9-3.9 5.5-6.9 7.6-9.1l18.6-20.1c1.2-1.3 2.2-1.9 3.2-1.9.7 0 1.3.3 1.9.9.6.6.9 1.2.9 1.9 0 1-.6 2-1.9 3.2l-20.1 18.6c-2.2 2.1-5.2 4.7-9.1 7.6-.2.1-.3.1-.5.1zm28.8-31.1c-.7 0-1.4.5-2.4 1.5l-18.6 20.1c-1.6 1.7-3.6 3.9-5.7 6.7 2.7-2.2 5-4.1 6.7-5.7l20.1-18.6c1-1 1.5-1.7 1.5-2.4 0-.4-.2-.7-.5-1.1-.4-.4-.7-.5-1.1-.5z"/><path transform="rotate(-51.552 169.305 11.86)" class="st0" d="M168.7 6.9h1.2v9.9h-1.2z"/><path class="st0" d="M163.1 12.1c-.1 0-.3-.1-.4-.2s-.2-.3-.2-.4.1-.3.2-.4l3.8-3.8c.2-.2.6-.2.8 0 .1.1.2.3.2.4s-.1.3-.2.4l-3.8 3.8c-.1.2-.3.2-.4.2zm-7.8 22.4c-2.5 0-5.4-1.1-7.9-3l.7-.9c2.8 2.2 6.2 3.2 8.6 2.6.7-.2 1.6-.6 2-1.4 1.2-2.6-2.4-8.2-6.9-15.2-2.4-3.7-5.7-8.8-2.4-12.3 3.4-3.6 11.8 1.5 12.8 2.1l-.6 1c-2.9-1.8-9.1-4.7-11.3-2.3-2.7 2.8.3 7.5 2.5 10.9 4.9 7.6 8.5 13.1 7 16.3-.5 1-1.4 1.7-2.7 2.1-.7 0-1.2.1-1.8.1zm-12-7.4c-1.1-1.6-1.7-3.1-2.2-4.2l-.1-.3 1.1-.5.1.3c.5 1.1 1.1 2.5 2.1 4l-1 .7z"/></svg>