<svg version="1.1" id="Layer_1" xmlns="http://www.w3.org/2000/svg" x="0" y="0" viewBox="0 0 389.9 61.1" xml:space="preserve"><style type="text/css">.st0{fill:#006980}</style><path class="st0" d="M64.4 18.2h1.9c1.7 0 1.8 1.5 1.7 2.7-.1 1.3-.3 17.9-.1 19.8 0 1.3.7 3-1.7 3h-1.9c-1.8 0-1.8-1.5-1.8-2.7 0-1.2.1-4.5.1-8H50.8c0 3.6 0 6.9.1 7.6.1 1.3.6 3-1.7 3h-1.9c-1.7 0-1.8-1.5-1.7-2.7.1-3 .1-18.9.1-19.8 0-1.3-.7-3 1.7-3h1.9c1.8 0 1.8 1.5 1.7 2.7 0 .6-.1 4.3-.1 8.3h11.8v-8c0-1.1-.6-2.9 1.7-2.9m22.8 25.9c-1.8 0-2.6-1.2-2.3-3.6h-.2s-1.8 3.6-6.2 3.6c-4.1 0-6.3-2.8-6.3-6.2-.1-4.1 3-6.5 7.5-6.4 2.2 0 4.4.6 5 .9v-1.8c0-2.4-1.7-3.5-4.2-3.5-3 0-5.6 1.4-5.6 1.4s-2-2.5-.3-4.1c1-.9 3.3-1.6 6.5-1.6 5.3 0 8.4 3 8.4 7.6 0 3.1-.1 8.7 0 10.8.1 1.5.9 2.9-2.3 2.9M81 34.5c-2.3 0-4.1 1.1-4.1 3 0 1.8 1.3 2.8 3.1 2.8 2.4 0 4.2-1.8 4.6-3.2V35c-.4-.2-1.9-.5-3.6-.5m27.4 9.3c-1.5 0-1.7-.7-1.7-1.8 0-3.3.3-7.1.3-10.8 0-2.4-.8-4.3-3.1-4.3-2.6 0-3.9 2.5-4.5 3.8 0 2.7-.2 5.9-.1 8.1v2.3c.1 1.5.1 2.7-1.6 2.7h-2c-1.5 0-1.7-1.2-1.7-2.3v-3c0-5.1.1-11.6.1-13.3 0-1.2-.7-2.4 2.2-2.4 2.3 0 2.8 1.4 2.9 2.6 0 .3 0 .8.1 1.5h.2c.2-1 1.4-4.1 5.8-4.1 3.6 0 5.3 1.7 6.1 4.1h.3c.2-1 1.7-4.1 6-4.1 5.5 0 6.8 4.3 6.8 8.4 0 3-.3 6.2-.2 10.7 0 1.2.2 2.4-2.3 2.4-2.4 0-3-1.1-3-2.5 0-3.4.2-6.8.2-10.5 0-2.4-.8-4.3-3.1-4.3-2 0-3.3 1.4-4.1 2.7 0 .5.1 1.1.1 1.6 0 3-.3 6.2-.3 10.7 0 1.2-.3 1.9-1.7 1.9h-1.7zm20.9-4.5c0-2.4.3-18 .2-19.8-.1-1.8.1-2.4 2.3-2.4 2.6 0 3 1.2 2.9 2.6-.1 2.5-.6 15.2-.5 19.3 0 1.4.5 1.2 1.9 1.2.6 0 .9.3 1 .8l.1 1.2c0 .7-.1 1-.8 1.3-.8.4-2.3.6-3.5.6-2.7 0-3.6-1.7-3.6-4.8m14.9-23.4c1.5 0 2.7.3 2.8 2.5 0 2.2-1.2 2.4-2.6 2.4-1.6 0-2.7-.3-2.8-2.4-.1-2.3 1.1-2.5 2.6-2.5m-.9 27.9c-1.5 0-1.7-1.2-1.7-2.3v-3c.1-5.1.1-10.2.1-12.9 0-1.2-.6-2.4 2.2-2.4 2.3 0 3.1.5 3 2.3-.2 4.5-.3 10.2-.2 13.3 0 1.1 0 2 .1 2.3.1 1.5.1 2.7-1.6 2.7h-1.9zm22.2-2.1c0-3.4.3-6.9.3-10.5 0-2.4-1.1-4.3-3.4-4.3-2.8 0-4.4 2.8-5 4 0 2.6-.1 5.8 0 7.9v2.3c.2 1.5.1 2.7-1.6 2.7h-2c-1.5 0-1.7-1.2-1.7-2.3v-3c.1-5.1.1-11.6.1-13.3 0-1.2-.7-2.4 2.2-2.4 2.3 0 2.8 1.4 2.9 2.6.1.3.1.7.1 1.5h.3c.3-1 2-4.1 6.3-4.1 5.5 0 7 4.3 6.9 8.4 0 3-.3 6.2-.2 10.8 0 1.2.1 2.3-2.3 2.3-2.3-.2-2.9-1.3-2.9-2.6m23.1-23.5h12.6c1.2 0 1.5.6 1.5 1.7v1.4c0 1.3-.6 1.5-1.8 1.5h-9.1v7.3h8.3c1.1 0 1.5.3 1.5 1.3v1.4c0 1-.3 1.3-1.2 1.2-1.1-.1-6.2-.1-8.6 0 0 3.6.1 6.5.1 7.4 0 1.4-.1 2.5-1.7 2.5h-1.7c-1.6 0-1.8-.9-1.8-2.4V21.4c.1-2-.3-3.2 1.9-3.2m21.3-2.3c1.5 0 2.7.3 2.8 2.5 0 2.2-1.2 2.4-2.6 2.4-1.6 0-2.7-.3-2.8-2.4-.1-2.3 1.1-2.5 2.6-2.5m-.9 27.9c-1.5 0-1.7-1.2-1.7-2.3v-3c.1-5.1.1-10.2.1-12.9 0-1.2-.6-2.4 2.2-2.4 2.3 0 3.1.5 3 2.3-.2 4.5-.3 10.2-.2 13.3 0 1.1 0 2 .1 2.3.2 1.5.1 2.7-1.6 2.7H209zm16.6-17.2c-1.3 0-3.4.3-3.4 2.2 0 1.1.8 1.7 2.3 2.1l2.9.9c4 1.2 5.7 2.8 5.7 5.8 0 3.9-3.2 6.5-8.9 6.5-5.3 0-6.8-1.5-6.9-2.8-.1-1.3.8-2.6 1-2.7 0 0 2.3 1.6 5.7 1.6 2 0 3.9-.6 3.9-2.4 0-1.3-1.3-2-3.1-2.5l-2.8-.9c-3.8-1.2-5-2.9-5-5.6 0-3.8 3.1-6.2 8.2-6.2 5.3 0 6.8 1.5 6.9 2.4.2 1-.7 2.6-1.1 3 0 .1-2.2-1.4-5.4-1.4m9.9-2.1c0-.3.2-.8.9-.9 3.1-.2 3.6-2.3 3.7-3.5.1-.6.3-1 1.1-1 .9 0 2.6-.3 2.5 1.2v2.9c.8.1 3.4.1 4.9 0 .8 0 1.1.3 1.1.8v2.3c0 .5-.1.8-.8.8h-5.1c-.1 3-.2 7.8-.1 10.7 0 1.9.5 2.4 1.9 2.4.9 0 1.8-.3 2.4-.5.8-.2 1.2.1 1.2.6l.2 1.4c.1.7 0 1.1-.6 1.4-1.1.6-3.2 1-4.8 1-4 0-5.6-2-5.5-6 0-2.3.2-9.9.2-11.1h-2c-.7 0-1-.2-1-.8-.1-.4-.2-1.1-.2-1.7m22.9.7c0 3.4-.3 6.9-.3 10.5 0 2.4 1 4.3 3.3 4.3 2.7 0 4.2-2.6 4.8-3.9 0-2.7.1-5.9.1-8 0-1.1 0-2-.1-2.3-.1-1.5-.1-2.7 1.6-2.7h1.9c1.5 0 1.7 1.2 1.7 2.3v3c-.1 5.1-.1 11.6-.1 13.3 0 1.2.7 2.4-2.2 2.4-2.3 0-2.8-1.4-2.9-2.6-.1-.3-.1-.7-.1-1.5h-.3c-.2 1-1.9 4.1-6.1 4.1-5.5 0-6.8-4.3-6.8-8.4 0-3 .3-6.2.2-10.8 0-1.2-.2-2.3 2.2-2.3 2.5.1 3.1 1.2 3.1 2.6m17.9 14.1c0-2.4.3-18 .2-19.8-.1-1.8.1-2.4 2.3-2.4 2.6 0 3 1.2 2.9 2.6-.1 2.5-.6 15.2-.4 19.3 0 1.4.5 1.2 1.9 1.2.6 0 .9.3 1 .8l.1 1.2c0 .7-.1 1-.8 1.3-.8.4-2.3.6-3.5.6-2.7 0-3.7-1.7-3.7-4.8m25.8 4.8c-1.8 0-2.6-1.2-2.3-3.6h-.2s-1.8 3.6-6.2 3.6c-4.1 0-6.3-2.8-6.3-6.2-.1-4.1 3-6.5 7.5-6.4 2.2 0 4.4.6 5 .9v-1.8c0-2.4-1.7-3.5-4.2-3.5-3 0-5.6 1.4-5.6 1.4s-2-2.5-.3-4.1c1-.9 3.3-1.6 6.5-1.6 5.3 0 8.4 3 8.4 7.6 0 3.1-.1 8.7 0 10.8.1 1.5 1 2.9-2.3 2.9m-6.1-9.6c-2.3 0-4.1 1.1-4.1 3 0 1.8 1.3 2.8 3.1 2.8 2.4 0 4.2-1.8 4.6-3.2V35c-.5-.2-2-.5-3.6-.5m34.6 9.6c-8.5 0-10.4-4.7-10.6-12.2-.1-5 0-10.2 0-11.1 0-1.3-.4-2.6 1.6-2.6h1.9c1.7 0 1.8 1.1 1.8 2.3-.1 1.3-.1 6.8-.1 11.4 0 5 1.3 7.9 5.4 7.9 4 0 5.3-2.8 5.3-8v-11c0-1.3-.4-2.6 1.6-2.6h1.9c1.8 0 1.8 1.1 1.8 2.3 0 1.3-.2 9.6-.2 11.4-.4 7.4-2.4 12.2-10.4 12.2M357 29.3c4.8 1.3 6.4 3.7 6.5 7 .1 5-4.1 7.9-9.8 7.9-3.2 0-5.7-.8-6.6-1.3-1.6-.8-2-1.8-1.4-3.3.3-1.1 1.1-1.7 1.1-1.7s2.4 2.1 6.7 2.1c2.9 0 4.7-1.4 4.7-3.5 0-1.5-1.4-2.6-3.9-3.3l-3.2-.8c-3.3-.9-6-2.7-6.1-6.6-.1-4.6 3.5-7.8 9.2-7.8 3.4 0 5.7.9 6.6 1.4 1.3.7 1.8 1.5 1 3.3-.4.8-.9 1.4-.9 1.4S358 22 354.3 22c-2.9 0-4.2 1.4-4.2 3.5 0 1.7 1.8 2.4 3.7 2.9l3.2.9zm18.7-11.1h3.4c1.6 0 2.2.9 2.6 2.1.3 1.3 6 19.2 6.5 21.2.3 1.3.2 2.1-1.2 2.1h-1.5c-1.8 0-1.8-1.2-2.1-1.9-.2-.6-.6-2.1-1.4-4h-9.5c-.7 2-1.2 3.4-1.3 3.9-.3 1.3-.6 2-1.9 2h-2.1c-1 0-1.4-.9-1.1-2 .9-3.1 6.7-20 7.1-21.4.3-1.1.7-2 2.5-2m-2.3 16.1h7.7c-1.5-5-3.3-10.8-3.8-12.5h-.2c-.4 1.8-2.2 7.6-3.7 12.5M18.9 1.6s3.2 8-6 18.9C3.7 31.4-.3 37.9 0 45.4c.3 7.5 7.9 15.5 19.4 15.8 11.6.3 17.2-9.9 16.7-15.6-.5-5.8-4.7-10.1-7.5-12.6s-6.7-7.1-6.4-10.9c.3-3.8 1-4.9 1-4.9s-.3-.9-1.2.7c-.9 1.6-3.7 6.8.4 12.8 4.1 6 11.6 12.4 6.1 22.6 0 0-4.2 6.4-12.9 4.8C7 56.5 5.1 47.6 6.3 42.5c1.2-5.1 4.8-11.3 6.2-12.9 1.4-1.6 5.6-8.3 6.5-10.5.9-2.2 3.4-6 2.3-14.1 0 0-2-5.9-2.7-4.7l.3 1.3z"/><path class="st0" d="M14.4 49s-1.5 0-1.7.9c-.2.9.7 3.8 5.1 4.3 4.3.6 8.6-4.4 8.3-8.6-.3-4.2-2.3-6.7-6.3-4.5s-1.6 5.1-1.6 5.6 1 3.5-3.8 2.3m5-8.5s-.7.4-.9.7c-.3.3-.6.7-.8 1l-.5 1c-.2.4-1.3 1.4-2.6 1-1.2-.3-4-2.8-1.8-7.3 0 0 1.7-2.7 5.4-1.4 0 0 1.4.7 1.8 1.8.4 1.2.4 2.2-.6 3.2"/></svg>