<?xml version="1.0" encoding="utf-8"?>
<!-- Generator: Adobe Illustrator 21.1.0, SVG Export Plug-In . SVG Version: 6.00 Build 0)  -->
<svg version="1.1" id="Layer_1" xmlns="http://www.w3.org/2000/svg" xmlns:xlink="http://www.w3.org/1999/xlink" x="0px" y="0px"
	 viewBox="0 0 59 39" style="enable-background:new 0 0 59 39;" xml:space="preserve">
<style type="text/css">
	.st0{fill:#846EA0;}
</style>
<path class="st0" d="M57.6,33.5h-0.8v-0.8c0-0.3-0.3-0.6-0.6-0.6s-0.6,0.3-0.6,0.6v0.8h-0.8c-0.3,0-0.6,0.3-0.6,0.6
	c0,0.3,0.3,0.6,0.6,0.6h0.8v0.8c0,0.3,0.3,0.6,0.6,0.6s0.6-0.3,0.6-0.6v-0.8h0.8c0.3,0,0.6-0.3,0.6-0.6
	C58.2,33.8,57.9,33.5,57.6,33.5z"/>
<g>
	<path class="st0" d="M4,34.5c-1.7,0-3.1-1.4-3.1-3.1c0-1.7,1.4-3.1,3.1-3.1s3.1,1.4,3.1,3.1C7.2,33.1,5.8,34.5,4,34.5z M4,29.5
		c-1,0-1.9,0.9-1.9,1.9c0,1,0.9,1.9,1.9,1.9s1.9-0.9,1.9-1.9C5.9,30.3,5.1,29.5,4,29.5z"/>
</g>
<g>
	<path class="st0" d="M48.9,11.9c-1.7,0-3.1-1.4-3.1-3.1s1.4-3.1,3.1-3.1c1.7,0,3.1,1.4,3.1,3.1S50.6,11.9,48.9,11.9z M48.9,6.8
		c-1,0-1.9,0.9-1.9,1.9c0,1,0.9,1.9,1.9,1.9c1,0,1.9-0.9,1.9-1.9C50.8,7.7,50,6.8,48.9,6.8z"/>
</g>
<g>
	<g>
		<g>
			<path class="st0" d="M20.9,22C20.8,21.9,20.8,21.9,20.9,22l-1.3-0.8l1.2-0.7c0,0,0.1,0,0.1-0.1v-0.9c-0.1-0.1-0.1-0.1-0.2-0.1
				c-0.2,0-0.3,0-0.5,0.1l-1.2,0.7v-1.4c0-0.3-0.3-0.6-0.6-0.6c-0.3,0-0.6,0.3-0.6,0.6v1.4l-1.2-0.7c-0.3-0.2-0.7-0.1-0.8,0.2
				c-0.1,0.1-0.1,0.3-0.1,0.5c0,0.2,0.1,0.3,0.3,0.4l1.2,0.7l-1.2,0.7c-0.1,0.1-0.2,0.2-0.3,0.4c0,0.2,0,0.3,0.1,0.5
				c0.2,0.3,0.5,0.4,0.8,0.2l1.2-0.7v1.4c0,0.3,0.3,0.6,0.6,0.6c0.3,0,0.6-0.3,0.6-0.6v-1.4l1.2,0.7c0.1,0.1,0.3,0.1,0.5,0.1
				c0.1,0,0.2-0.1,0.2-0.1V22z"/>
		</g>
		<g>
			<path class="st0" d="M20.9,37.3c-0.5,0.3-1,0.5-1.6,0.5c-1.7,0-3-1.4-3-3c0-1.5,1-2.7,2.4-3c0.2,0,0.4-0.1,0.6-0.1
				c0.2,0,0.4,0,0.6,0.1c0.4,0.1,0.7,0.2,1,0.4V31c0,0-0.1,0-0.1-0.1c-0.2-0.1-0.3-0.1-0.5-0.2c-0.1,0-0.2-0.1-0.3-0.1
				c-0.3-0.1-0.5-0.1-0.8-0.1c-0.3,0-0.5,0-0.8,0.1c-0.1,0-0.2,0-0.3,0.1c-0.2,0-0.3,0.1-0.5,0.2c-0.1,0-0.2,0.1-0.3,0.1
				c-0.1,0.1-0.3,0.1-0.4,0.2c-0.1,0.1-0.2,0.1-0.3,0.2c-0.1,0.1-0.2,0.2-0.3,0.3c-0.1,0.1-0.2,0.2-0.2,0.2
				c-0.1,0.1-0.2,0.2-0.3,0.3c-0.1,0.1-0.1,0.2-0.2,0.3c-0.1,0.1-0.1,0.3-0.2,0.4c0,0.1-0.1,0.2-0.1,0.3c-0.1,0.1-0.1,0.3-0.1,0.4
				c0,0.1-0.1,0.2-0.1,0.3c0,0.1,0,0.1,0,0.1H13c-0.3,0-0.5-0.2-0.5-0.5v-4.6h8.3v-1.1h-8.3V15.2c0-0.3,0.2-0.5,0.5-0.5h7.8v-1.1H13
				c-0.9,0-1.6,0.7-1.6,1.6v18.5c0,0.9,0.7,1.6,1.6,1.6h2.1c0.3,2,2,3.6,4.1,3.6c0.6,0,1.1-0.1,1.6-0.3V37.3z"/>
		</g>
	</g>
	<g>
		<g>
			<path class="st0" d="M26.1,7.6c0.1,0,0.1,0,0.2,0c0.3-0.1,0.4-0.4,0.3-0.7l-1.4-3.6C25.1,3,24.8,2.9,24.5,3
				c-0.3,0.1-0.4,0.4-0.3,0.7l1.4,3.6C25.7,7.4,25.9,7.6,26.1,7.6z"/>
			<path class="st0" d="M28.8,5.8C28.8,5.8,28.8,5.8,28.8,5.8c0.3,0,0.6-0.3,0.5-0.6l0-3.7C29.3,1.3,29,1,28.7,1
				c-0.3,0-0.5,0.3-0.5,0.6l0,3.7C28.2,5.5,28.5,5.8,28.8,5.8z"/>
			<path class="st0" d="M32.7,2.6c-0.3-0.1-0.6,0-0.7,0.3l-1.5,3.8c-0.1,0.3,0,0.6,0.3,0.7c0.1,0,0.1,0,0.2,0c0.2,0,0.4-0.1,0.5-0.3
				l1.5-3.8C33.2,3,33,2.7,32.7,2.6z"/>
			<path class="st0" d="M30.2,8.5h-3.3c-0.3,0-0.5,0.2-0.5,0.5l-0.7,5.1c0,0.2,0,0.3,0.1,0.4c0.1,0.1,0.3,0.2,0.4,0.2h4.8
				c0.2,0,0.3-0.1,0.4-0.2c0.1-0.1,0.2-0.3,0.1-0.4L30.8,9C30.7,8.7,30.5,8.5,30.2,8.5z M26.8,13.6l0.6-4h2.4l0.6,4H26.8z"/>
			<path class="st0" d="M21.1,19.9c0-0.1,0-0.2-0.1-0.3c-0.1-0.1-0.2-0.2-0.4-0.3c-0.2,0-0.3,0-0.5,0.1l-1.2,0.7v-1.4
				c0-0.3-0.3-0.6-0.6-0.6c-0.3,0-0.6,0.3-0.6,0.6v1.4l-1.2-0.7c-0.3-0.2-0.7-0.1-0.8,0.2c-0.1,0.1-0.1,0.3-0.1,0.5
				c0,0.2,0.1,0.3,0.3,0.4l1.2,0.7l-1.2,0.7c-0.1,0.1-0.2,0.2-0.3,0.4c0,0.2,0,0.3,0.1,0.5c0.2,0.3,0.5,0.4,0.8,0.2l1.2-0.7v1.4
				c0,0.3,0.3,0.6,0.6,0.6c0.3,0,0.6-0.3,0.6-0.6v-1.4l1.2,0.7c0.1,0.1,0.3,0.1,0.5,0.1c0.2,0,0.3-0.1,0.4-0.3
				c0.1-0.1,0.1-0.2,0.1-0.3c0-0.2-0.1-0.4-0.3-0.5l-1.2-0.7l1.2-0.7C21,20.4,21.1,20.2,21.1,19.9z"/>
			<polygon class="st0" points="20.8,22.6 20.8,22.6 20.8,22.6 			"/>
		</g>
		<g>
			<path class="st0" d="M47.9,24c-1.1,0-2.1-0.5-2.7-1.5l-3.3-5.2c-0.3-0.5-0.8-0.7-1.3-0.7h-4.9v-1.4c0-0.9-0.7-1.6-1.6-1.6H15.1
				v1.1h19.1c0.3,0,0.5,0.2,0.5,0.5v12.9h-2.1V17.7c0-0.3-0.2-0.6-0.6-0.6h-7.2c-0.3,0-0.6,0.2-0.6,0.6v10.4h-9.1v1.1h9.1v5.1h-0.9
				c0-0.1,0-0.1,0-0.1c0-0.1,0-0.2-0.1-0.3c0-0.1-0.1-0.3-0.1-0.4c0-0.1-0.1-0.2-0.1-0.3c-0.1-0.1-0.1-0.3-0.2-0.4
				c-0.1-0.1-0.1-0.2-0.2-0.3c-0.1-0.1-0.2-0.2-0.3-0.3c-0.1-0.1-0.1-0.2-0.2-0.2c-0.1-0.1-0.2-0.2-0.3-0.3
				c-0.1-0.1-0.2-0.1-0.3-0.2c-0.1-0.1-0.3-0.2-0.4-0.2c-0.1,0-0.2-0.1-0.3-0.1c-0.2-0.1-0.3-0.1-0.5-0.2c-0.1,0-0.2-0.1-0.3-0.1
				c-0.3-0.1-0.5-0.1-0.8-0.1c-0.3,0-0.5,0-0.8,0.1c-0.1,0-0.2,0-0.3,0.1c-0.2,0-0.3,0.1-0.5,0.2c-0.1,0-0.2,0.1-0.3,0.1
				c-0.1,0.1-0.3,0.1-0.4,0.2c-0.1,0.1-0.2,0.1-0.3,0.2c-0.1,0.1-0.2,0.2-0.3,0.3c-0.1,0.1-0.2,0.2-0.2,0.2
				c-0.1,0.1-0.2,0.2-0.3,0.3c-0.1,0.1-0.1,0.2-0.2,0.3c-0.1,0.1-0.1,0.3-0.2,0.4c0,0.1-0.1,0.2-0.1,0.3c-0.1,0.1-0.1,0.3-0.1,0.4
				c0,0.1-0.1,0.2-0.1,0.3c0,0.1,0,0.1,0,0.1h-0.1v1.1h0.1c0.3,2,2,3.6,4.1,3.6c2.1,0,3.8-1.6,4.1-3.6H38c0.3,2,2,3.6,4.1,3.6
				c2.1,0,3.8-1.6,4.1-3.6h1.8c0.9,0,1.6-0.7,1.6-1.6v-8.2C49.5,24.7,48.8,24,47.9,24z M19.2,37.8c-1.7,0-3-1.4-3-3
				c0-1.5,1-2.7,2.4-3c0.2,0,0.4-0.1,0.6-0.1c0.2,0,0.4,0,0.6,0.1c1.4,0.3,2.4,1.5,2.4,3C22.2,36.4,20.9,37.8,19.2,37.8z M31.4,34.2
				h-6.1v-16h6.1V34.2z M34.6,34.2h-2.1v-5.1h2.1V34.2z M42,37.8c-1.7,0-3-1.4-3-3c0-1.5,1-2.7,2.4-3c0.2,0,0.4-0.1,0.6-0.1
				c0.2,0,0.4,0,0.6,0.1c1.4,0.3,2.4,1.5,2.4,3C45.1,36.4,43.7,37.8,42,37.8z M48.4,33.7c0,0.3-0.2,0.5-0.5,0.5h-1.8
				c0-0.1,0-0.1,0-0.1c0-0.1,0-0.2-0.1-0.3c0-0.1-0.1-0.3-0.1-0.4c0-0.1-0.1-0.2-0.1-0.3c-0.1-0.1-0.1-0.3-0.2-0.4
				c-0.1-0.1-0.1-0.2-0.2-0.3c-0.1-0.1-0.2-0.2-0.3-0.3c-0.1-0.1-0.1-0.2-0.2-0.2c-0.1-0.1-0.2-0.2-0.3-0.3
				c-0.1-0.1-0.2-0.1-0.3-0.2c-0.1-0.1-0.3-0.2-0.4-0.2c-0.1,0-0.2-0.1-0.3-0.1c-0.2-0.1-0.3-0.1-0.5-0.2c-0.1,0-0.2-0.1-0.3-0.1
				c-0.3-0.1-0.5-0.1-0.8-0.1c-0.3,0-0.5,0-0.8,0.1c-0.1,0-0.2,0-0.3,0.1c-0.2,0-0.3,0.1-0.5,0.2c-0.1,0-0.2,0.1-0.3,0.1
				c-0.1,0.1-0.3,0.1-0.4,0.2c-0.1,0.1-0.2,0.1-0.3,0.2c-0.1,0.1-0.2,0.2-0.3,0.3c-0.1,0.1-0.2,0.2-0.2,0.2
				c-0.1,0.1-0.2,0.2-0.3,0.3c-0.1,0.1-0.1,0.2-0.2,0.3c-0.1,0.1-0.1,0.3-0.2,0.4c0,0.1-0.1,0.2-0.1,0.3c-0.1,0.1-0.1,0.3-0.1,0.4
				c0,0.1-0.1,0.2-0.1,0.3c0,0.1,0,0.1,0,0.1h-2.2v-5.1h12.6V33.7z M48.4,28.1H35.7V17.7h4.9c0.2,0,0.3,0.1,0.4,0.2l3.3,5.2
				c0.8,1.2,2.1,2,3.6,2c0.3,0,0.5,0.2,0.5,0.5V28.1z"/>
			<path class="st0" d="M19.2,33.5c-0.3,0-0.5,0.2-0.5,0.6v1.6c0,0.3,0.2,0.5,0.5,0.5c0.3,0,0.6-0.2,0.6-0.5V34
				C19.8,33.7,19.5,33.5,19.2,33.5z"/>
			<path class="st0" d="M42,33.5c-0.3,0-0.6,0.2-0.6,0.6v1.6c0,0.3,0.2,0.5,0.6,0.5c0.3,0,0.6-0.2,0.6-0.5V34
				C42.6,33.7,42.3,33.5,42,33.5z"/>
			<path class="st0" d="M36.8,25.4h6.8c0.2,0,0.4-0.1,0.5-0.3c0.1-0.2,0.1-0.4,0-0.5l-3.4-6.1c-0.1-0.2-0.3-0.3-0.5-0.3h-3.4
				c-0.3,0-0.5,0.2-0.5,0.5v6.1C36.3,25.1,36.5,25.4,36.8,25.4z M37.4,19.2h2.5l2.8,5h-5.3V19.2z"/>
			<path class="st0" d="M30.1,24.9c-0.3,0-0.6,0.2-0.6,0.5v2.2c0,0.3,0.2,0.6,0.6,0.6s0.5-0.2,0.5-0.6v-2.2
				C30.7,25.1,30.4,24.9,30.1,24.9z"/>
		</g>
	</g>
</g>
</svg>
