<?xml version="1.0" encoding="utf-8"?>
<!-- Generator: Adobe Illustrator 21.1.0, SVG Export Plug-In . SVG Version: 6.00 Build 0)  -->
<svg version="1.1" id="Layer_1" xmlns="http://www.w3.org/2000/svg" xmlns:xlink="http://www.w3.org/1999/xlink" x="0px" y="0px"
	 viewBox="0 0 233.4 76.1" style="enable-background:new 0 0 233.4 76.1;" xml:space="preserve">
<style type="text/css">
	.st0{fill:#846EA0;}
</style>
<g>
	<path class="st0" d="M75.7,16.5c0-2-1.7-3.7-3.7-3.7c-0.3,0-0.5,0.2-0.5,0.5c0,0.3,0.2,0.5,0.5,0.5c1.4,0,2.6,1.2,2.6,2.6
		c0,0.3,0.2,0.5,0.5,0.5C75.5,17,75.7,16.8,75.7,16.5z"/>
	<path class="st0" d="M86.3,13.1c-0.3-0.2-0.7-0.4-1-0.5V5.8c0-1.4-1.2-2.6-2.6-2.6c-0.6,0-1.1,0.2-1.5,0.5V3.1
		c0-1.4-1.2-2.6-2.6-2.6c-1.4,0-2.6,1.2-2.6,2.6v0.7c-0.4-0.3-0.9-0.5-1.5-0.5c-1.4,0-2.6,1.2-2.6,2.6v2.9c-0.4-0.3-0.9-0.5-1.5-0.5
		c-0.8,0-1.6,0.4-2,1c-0.5-0.6-1.2-1-2-1c-0.6,0-1.1,0.2-1.5,0.5V5.8c0-1.4-1.2-2.6-2.6-2.6c-0.6,0-1.1,0.2-1.5,0.5V3.1
		c0-1.4-1.2-2.6-2.6-2.6c-1.4,0-2.6,1.2-2.6,2.6v0.7c-0.4-0.3-0.9-0.5-1.5-0.5c-1.4,0-2.6,1.2-2.6,2.6v6.8c-0.4,0.1-0.7,0.2-1,0.5
		c-0.6,0.5-1,1.2-1,2v13.7c0,5.3,4.3,9.7,9.7,9.7c4.2,0,7.8-2.7,9.1-6.5c1.3,3.8,4.9,6.5,9.1,6.5c5.3,0,9.7-4.3,9.7-9.7V15.2
		C87.3,14.4,86.9,13.6,86.3,13.1z M68.5,26.3l-6.8-6.8c-0.8-0.8-1.3-2-1.3-3.2c0-1.2,0.5-2.3,1.3-3.2c0.8-0.8,2-1.3,3.2-1.3
		c1.2,0,2.3,0.5,3.2,1.3c0,0,0,0,0,0c0.1,0.1,0.1,0.1,0.2,0.1c0.2,0.1,0.4,0,0.6-0.1c0.8-0.8,2-1.3,3.2-1.3c1.2,0,2.3,0.5,3.2,1.3
		c0.8,0.8,1.3,2,1.3,3.2c0,1.2-0.5,2.3-1.3,3.2L68.5,26.3z M73.1,5.8c0-0.8,0.7-1.5,1.5-1.5C75.4,4.3,76,5,76,5.8v6.6c0,0,0,0,0,0
		c-0.8-0.8-1.8-1.3-2.9-1.5V5.8z M70.5,9.3c0.8,0,1.5,0.6,1.5,1.4c-1.1,0-2.1,0.3-3,0.9v-0.8c0,0,0,0,0,0C69,10,69.7,9.3,70.5,9.3z
		 M66.4,9.3c0.8,0,1.5,0.7,1.5,1.5c0,0,0,0,0,0v0.8c-0.9-0.6-1.9-0.9-3-0.9C65,10,65.6,9.3,66.4,9.3z M62.4,4.3
		c0.8,0,1.5,0.7,1.5,1.5v5c-1.1,0.2-2.1,0.7-2.9,1.5c0,0,0,0,0,0V5.8C60.9,5,61.5,4.3,62.4,4.3z M77.6,37.5c-4.7,0-8.6-3.8-8.6-8.6
		c0,0,0,0,0,0c0-0.3-0.2-0.5-0.5-0.5l0,0c0,0,0,0,0,0c-0.3,0-0.5,0.2-0.5,0.5c0,0,0,0,0,0c0,4.7-3.9,8.6-8.6,8.6
		c-4.7,0-8.6-3.9-8.6-8.6V15.2c0-0.5,0.2-0.9,0.6-1.2c0.4-0.3,0.8-0.4,1.3-0.3c0.6,0.2,1.1,0.8,1.1,1.5V20c0,2.5,1.3,4.8,3.3,6
		c1.6,1,2.6,2.7,2.6,4.5c0,1.7-0.8,3.3-2.2,4.3c-0.2,0.2-0.3,0.5-0.1,0.8c0.1,0.1,0.3,0.2,0.4,0.2c0.1,0,0.2,0,0.3-0.1
		c1.6-1.2,2.6-3.1,2.6-5.2c0-2.3-1.2-4.3-3.1-5.5c-1.7-1-2.8-3-2.8-5.1v-4.8c0-1.2-0.8-2.3-1.9-2.6c0,0-0.1,0-0.1,0V5.8
		c0-0.8,0.7-1.5,1.5-1.5c0.8,0,1.5,0.7,1.5,1.5v9.2v3.8c0,0.3,0.2,0.5,0.5,0.5s0.5-0.2,0.5-0.5v-3.8V5.8V3.1c0-0.8,0.7-1.5,1.5-1.5
		c0.8,0,1.5,0.7,1.5,1.5v11c-0.3,0.7-0.5,1.5-0.5,2.4c0,1.5,0.6,2.9,1.6,4l7.2,7.2c0.1,0.1,0.2,0.2,0.4,0.2c0.1,0,0.3-0.1,0.4-0.2
		l7.2-7.2c1.1-1.1,1.6-2.5,1.6-4c0-0.8-0.2-1.6-0.5-2.3V5.8V3.1c0-0.8,0.7-1.5,1.5-1.5c0.8,0,1.5,0.7,1.5,1.5v2.8v9.2v3.8
		c0,0.3,0.2,0.5,0.5,0.5c0.3,0,0.5-0.2,0.5-0.5v-3.8V5.8c0-0.8,0.7-1.5,1.5-1.5s1.5,0.7,1.5,1.5v6.8c0,0-0.1,0-0.1,0
		c-1.1,0.3-1.9,1.3-1.9,2.6V20c0,2.1-1.1,4-2.8,5.1c-1.9,1.2-3.1,3.2-3.1,5.5c0,2,1,4,2.6,5.2c0.1,0.1,0.2,0.1,0.3,0.1
		c0.2,0,0.3-0.1,0.4-0.2c0.2-0.2,0.1-0.6-0.1-0.8c-1.4-1-2.2-2.6-2.2-4.3c0-1.9,1-3.6,2.6-4.5c2-1.2,3.3-3.5,3.3-6v-4.8
		c0-0.7,0.5-1.3,1.1-1.5c0.5-0.1,0.9,0,1.3,0.3c0.4,0.3,0.6,0.7,0.6,1.2v13.7C86.2,33.6,82.3,37.5,77.6,37.5z"/>
</g>
<g>
	<path class="st0" d="M149.9,44.9c0.5,0,1,0.1,1.5,0.1c4.8,0,9.5-1.7,13.2-4.9c8.5-7.3,9.4-20.1,2.1-28.5
		c-7.3-8.5-20.1-9.4-28.5-2.1c-2.5,2.1-4.3,4.8-5.5,7.6c0,0,0,0,0,0.1c0,0.1,0,0.1-0.1,0.2C129.9,24,131,32,136,37.9
		C139.6,42,144.5,44.5,149.9,44.9z M133.5,18.3c1.6,1.1,2.5,2.6,3.3,4c1.1,1.8,2.2,3.8,4.9,4.7c0.7,0.2,1.3,0.4,1.9,0.5
		c1,0.2,2,0.4,3.5,1.2c1.2,0.6,2.3,1.4,3.2,2.4c0,0.1,0,0.1,0,0.2l-2.2-1.3c-1-0.6-2.4-0.2-3.1,0.6l-4.1,5.3
		c-0.3,0.4-0.4,0.8-0.4,1.3c0.1,0.5,0.3,0.9,0.7,1.2c0.4,0.3,0.8,0.4,1.3,0.4c0.5-0.1,0.9-0.3,1.2-0.7l2.8-3.6l6.3,3.7
		c0.1,0.1,0.3,0.1,0.4,0.2c0.3,0.1,0.5,0.2,0.8,0.3c0.4,0.1,0.7,0.2,1.1,0.2c1.3,0,2.7-0.6,4-1.9c1.6-1.5,2.8-3.7,3.6-6.3
		c1.3-4.4-0.8-10.3-3.6-12.6c-0.5-0.4-0.6-1-0.4-1.6c0.6-1.7,0.3-3.3-0.7-4.9c-1.3-2-3.7-3-6.1-2.6c-2.9,0.5-5.1,2.2-6,4.8
		c-0.9,2.4-0.4,5.1,1.3,7c1.4,1.6,3.4,2.5,5.5,2.4c0,0,0,0.1-0.1,0.1c-0.6,1-1.9,1.3-2.9,0.7l-3.3-2c-0.4-0.3-1-0.3-1.5-0.2
		c-0.5,0.1-0.9,0.4-1.2,0.9c-0.3,0.4-0.3,1-0.2,1.5c0.1,0.5,0.4,0.9,0.9,1.2l6,3.6c0,0.2-0.1,0.4-0.1,0.6c-0.9-0.7-1.8-1.4-2.8-1.9
		c-1.7-0.9-2.8-1.1-3.9-1.3c-0.6-0.1-1.1-0.2-1.7-0.4c-2.3-0.8-3.2-2.4-4.2-4.2c-0.9-1.5-1.9-3.2-3.9-4.5c1.1-2.5,2.8-4.9,5-6.8
		c3.6-3.1,8-4.6,12.4-4.6c5.3,0,10.7,2.2,14.4,6.6c6.8,7.9,5.9,19.9-2,26.8c0,0,0,0,0,0c-3.8,3.3-8.8,4.9-13.8,4.5
		c-5.1-0.4-9.7-2.7-13-6.5C132.4,31.7,131.3,24.5,133.5,18.3z M154.8,22c-0.1-0.2-0.4-0.3-0.7-0.3c-2.1,0.5-4.3-0.2-5.7-1.8
		c-1.4-1.6-1.8-3.8-1.1-5.8c0.8-2.1,2.6-3.5,5-3.9c1.9-0.3,3.8,0.5,4.8,2.1c0.8,1.3,1,2.5,0.6,3.8c-0.4,1.1,0,2.3,0.8,3
		c2.4,2,4.3,7.4,3.2,11.3c-0.7,2.3-1.8,4.3-3.2,5.7c-1.3,1.3-2.7,1.8-3.9,1.4c-0.2,0-0.4-0.1-0.6-0.2c0,0-0.1,0-0.1-0.1l-0.1,0
		c0,0-0.1,0-0.1,0l-6.3-3.7c-0.2-0.1-0.4-0.2-0.6-0.2c-0.4,0-0.8,0.2-1,0.5l-2.8,3.6c-0.1,0.1-0.2,0.2-0.4,0.2c-0.1,0-0.3,0-0.4-0.1
		c-0.1-0.1-0.2-0.2-0.2-0.4c0-0.1,0-0.3,0.1-0.4l4.1-5.3c0.3-0.4,1.1-0.6,1.5-0.3l3.1,1.8c0.2,0.1,0.4,0.1,0.6,0
		c0.2-0.1,0.3-0.3,0.3-0.6c-0.1-1.2,0-2.4,0.3-3.6c0.1-0.3-0.1-0.5-0.3-0.7l-6.4-3.8c-0.2-0.1-0.3-0.2-0.3-0.4c0-0.2,0-0.4,0.1-0.5
		c0.1-0.2,0.2-0.3,0.4-0.3c0.2,0,0.4,0,0.5,0.1l3.3,2c1.6,0.9,3.6,0.4,4.6-1.1c0.3-0.4,0.6-0.8,0.8-1.2
		C154.9,22.6,155,22.3,154.8,22z"/>
</g>
<g>
	<path class="st0" d="M120.5,57.8c-1.9,0-3.4,1.5-3.4,3.4c0,1.6,1.2,3,2.7,3.3v4.5c0,2.9-2.3,5.2-5.2,5.2c-2.9,0-5.2-2.3-5.2-5.2
		V58.6c1.1-0.1,2.1-0.6,2.9-1.4l2.9-3c0.6-0.6,0.8-1.6,0.5-2.4c-0.1-0.3-0.3-0.6-0.6-0.8c0.6-0.4,1.2-0.9,1.7-1.4
		c4.4-4.4,4.5-11.4,0.3-15.9c0.1-0.3,0.2-0.6,0.2-1c0-1.2-1-2.2-2.2-2.2c-1.2,0-2.2,1-2.2,2.2s1,2.2,2.2,2.2c0.4,0,0.8-0.1,1.1-0.3
		c3.7,4,3.6,10.3-0.3,14.1c-4,4-10.5,4-14.5,0c-3.9-3.9-4-10.1-0.4-14.1c0.3,0.2,0.7,0.3,1.1,0.3c1.2,0,2.2-1,2.2-2.2
		s-1-2.2-2.2-2.2s-2.2,1-2.2,2.2c0,0.4,0.1,0.7,0.3,1c-4.1,4.5-4,11.5,0.3,15.9c0.5,0.5,1.1,1,1.7,1.4c-0.2,0.2-0.4,0.5-0.6,0.8
		c-0.3,0.8-0.2,1.8,0.5,2.4l2.9,3c0.8,0.8,1.8,1.3,2.9,1.4v10.3c0,3.6,2.9,6.5,6.5,6.5c3.6,0,6.5-2.9,6.5-6.5v-4.5
		c1.6-0.3,2.7-1.7,2.7-3.3C123.9,59.3,122.3,57.8,120.5,57.8z M114.2,32.8c0-0.5,0.4-1,1-1c0.5,0,1,0.4,1,1c0,0.5-0.4,1-1,1
		C114.7,33.8,114.2,33.3,114.2,32.8z M102.3,31.8c0.5,0,1,0.4,1,1c0,0.5-0.4,1-1,1c-0.5,0-1-0.4-1-1
		C101.3,32.2,101.7,31.8,102.3,31.8z M103.2,53.4c-0.3-0.3-0.3-0.8-0.2-1c0.1-0.1,0.2-0.5,0.7-0.5c1.6,0.8,3.4,1.2,5.1,1.2
		c1.8,0,3.5-0.4,5.1-1.2c0.4,0,0.6,0.4,0.7,0.5c0.1,0.3,0.1,0.7-0.2,1l-2.9,3c-0.7,0.7-1.7,1.1-2.6,1.1c0,0,0,0,0,0c0,0,0,0,0,0
		c-1,0-1.9-0.4-2.6-1.1L103.2,53.4z M120.5,63.3c-1.2,0-2.1-1-2.1-2.1c0-1.2,1-2.1,2.1-2.1c1.2,0,2.1,1,2.1,2.1
		C122.6,62.3,121.7,63.3,120.5,63.3z"/>
	<path class="st0" d="M106.1,66.4h-2.2l-1.1-1.9c-0.1-0.2-0.3-0.3-0.6-0.3c-0.2,0-0.4,0.1-0.5,0.4l-1.2,2.7l-1.9-4.5
		c-0.1-0.2-0.3-0.4-0.5-0.4c-0.2,0-0.4,0.1-0.6,0.3L94.9,66h-1.3l-0.8-10.8c0-0.3-0.3-0.6-0.6-0.6c-0.3,0-0.6,0.2-0.7,0.5L89.2,66
		c-0.1-0.2-0.3-0.3-0.5-0.3h-2.6c-0.3,0-0.6,0.3-0.6,0.6c0,0.3,0.3,0.6,0.6,0.6h2.1l0.4,2c0.1,0.3,0.3,0.5,0.6,0.5c0,0,0,0,0,0
		c0.3,0,0.5-0.2,0.6-0.5l2.1-9.4l0.5,7.2c0,0.3,0.3,0.6,0.6,0.6h2.2c0.2,0,0.4-0.1,0.5-0.3l2.1-2.8l2,4.8c0.1,0.2,0.3,0.4,0.6,0.4
		c0.2,0,0.5-0.1,0.6-0.4l1.3-2.9l0.7,1.2c0.1,0.2,0.3,0.3,0.5,0.3h2.6c0.3,0,0.6-0.3,0.6-0.6C106.7,66.7,106.5,66.4,106.1,66.4z"/>
</g>
<path class="st0" d="M39.8,35.7h-0.8v-0.8c0-0.3-0.3-0.6-0.6-0.6c-0.3,0-0.6,0.3-0.6,0.6v0.8h-0.8c-0.3,0-0.6,0.3-0.6,0.6
	c0,0.3,0.3,0.6,0.6,0.6h0.8v0.8c0,0.3,0.3,0.6,0.6,0.6c0.3,0,0.6-0.3,0.6-0.6v-0.8h0.8c0.3,0,0.6-0.3,0.6-0.6
	C40.4,35.9,40.1,35.7,39.8,35.7z"/>
<path class="st0" d="M181,45.4h-0.8v-0.8c0-0.3-0.3-0.6-0.6-0.6c-0.3,0-0.6,0.3-0.6,0.6v0.8h-0.8c-0.3,0-0.6,0.3-0.6,0.6
	s0.3,0.6,0.6,0.6h0.8v0.8c0,0.3,0.3,0.6,0.6,0.6c0.3,0,0.6-0.3,0.6-0.6v-0.8h0.8c0.3,0,0.6-0.3,0.6-0.6S181.4,45.4,181,45.4z"/>
<path class="st0" d="M206.3,66h-0.8v-0.8c0-0.3-0.3-0.6-0.6-0.6c-0.3,0-0.6,0.3-0.6,0.6V66h-0.8c-0.3,0-0.6,0.3-0.6,0.6
	c0,0.3,0.3,0.6,0.6,0.6h0.8v0.8c0,0.3,0.3,0.6,0.6,0.6c0.3,0,0.6-0.3,0.6-0.6v-0.8h0.8c0.3,0,0.6-0.3,0.6-0.6
	C206.9,66.3,206.6,66,206.3,66z"/>
<path class="st0" d="M68.8,52.5h-0.8v-0.8c0-0.3-0.3-0.6-0.6-0.6c-0.3,0-0.6,0.3-0.6,0.6v0.8h-0.8c-0.3,0-0.6,0.3-0.6,0.6
	c0,0.3,0.3,0.6,0.6,0.6h0.8v0.8c0,0.3,0.3,0.6,0.6,0.6c0.3,0,0.6-0.3,0.6-0.6v-0.8h0.8c0.3,0,0.6-0.3,0.6-0.6
	C69.4,52.8,69.1,52.5,68.8,52.5z"/>
<path class="st0" d="M3.8,54.5H2.9v-0.8c0-0.3-0.3-0.6-0.6-0.6c-0.3,0-0.6,0.3-0.6,0.6v0.8H0.9c-0.3,0-0.6,0.3-0.6,0.6
	s0.3,0.6,0.6,0.6h0.8v0.8c0,0.3,0.3,0.6,0.6,0.6c0.3,0,0.6-0.3,0.6-0.6v-0.8h0.8c0.3,0,0.6-0.3,0.6-0.6S4.1,54.5,3.8,54.5z"/>
<g>
	<path class="st0" d="M229.9,51.1c-1.7,0-3.1-1.4-3.1-3.1c0-1.7,1.4-3.1,3.1-3.1c1.7,0,3.1,1.4,3.1,3.1
		C233.1,49.7,231.6,51.1,229.9,51.1z M229.9,46.1c-1,0-1.9,0.9-1.9,1.9c0,1,0.9,1.9,1.9,1.9c1,0,1.9-0.9,1.9-1.9
		C231.8,46.9,231,46.1,229.9,46.1z"/>
</g>
<g>
	<path class="st0" d="M112.4,7.9c-1.7,0-3.1-1.4-3.1-3.1c0-1.7,1.4-3.1,3.1-3.1c1.7,0,3.1,1.4,3.1,3.1
		C115.5,6.5,114.1,7.9,112.4,7.9z M112.4,2.9c-1,0-1.9,0.9-1.9,1.9c0,1,0.9,1.9,1.9,1.9c1,0,1.9-0.9,1.9-1.9
		C114.3,3.7,113.4,2.9,112.4,2.9z"/>
</g>
<g>
	<path class="st0" d="M198.4,34.4c-1.7,0-3.1-1.4-3.1-3.1c0-1.7,1.4-3.1,3.1-3.1c1.7,0,3.1,1.4,3.1,3.1
		C201.5,33,200.1,34.4,198.4,34.4z M198.4,29.4c-1,0-1.9,0.9-1.9,1.9c0,1,0.9,1.9,1.9,1.9c1,0,1.9-0.9,1.9-1.9
		C200.3,30.2,199.4,29.4,198.4,29.4z"/>
</g>
<g>
	<path class="st0" d="M154.2,75.2c-1.7,0-3.1-1.4-3.1-3.1c0-1.7,1.4-3.1,3.1-3.1c1.7,0,3.1,1.4,3.1,3.1
		C157.3,73.7,155.9,75.2,154.2,75.2z M154.2,70.1c-1,0-1.9,0.9-1.9,1.9c0,1,0.9,1.9,1.9,1.9c1,0,1.9-0.9,1.9-1.9
		C156.1,71,155.2,70.1,154.2,70.1z"/>
</g>
<g>
	<path class="st0" d="M30.7,59.9c-1.7,0-3.1-1.4-3.1-3.1c0-1.7,1.4-3.1,3.1-3.1c1.7,0,3.1,1.4,3.1,3.1
		C33.8,58.5,32.4,59.9,30.7,59.9z M30.7,54.9c-1,0-1.9,0.9-1.9,1.9c0,1,0.9,1.9,1.9,1.9c1,0,1.9-0.9,1.9-1.9
		C32.6,55.7,31.7,54.9,30.7,54.9z"/>
</g>
</svg>
