<?xml version="1.0" encoding="utf-8"?>
<!-- Generator: Adobe Illustrator 21.1.0, SVG Export Plug-In . SVG Version: 6.00 Build 0)  -->
<svg version="1.1" id="Layer_1" xmlns="http://www.w3.org/2000/svg" xmlns:xlink="http://www.w3.org/1999/xlink" x="0px" y="0px"
	 viewBox="0 0 221 63.3" style="enable-background:new 0 0 221 63.3;" xml:space="preserve">
<style type="text/css">
	.st0{fill:#846EA0;}
</style>
<path class="st0" d="M98.7,24.1h-0.8v-0.8c0-0.3-0.3-0.6-0.6-0.6c-0.3,0-0.6,0.3-0.6,0.6v0.8h-0.8c-0.3,0-0.6,0.3-0.6,0.6
	c0,0.3,0.3,0.6,0.6,0.6h0.8v0.8c0,0.3,0.3,0.6,0.6,0.6c0.3,0,0.6-0.3,0.6-0.6v-0.8h0.8c0.3,0,0.6-0.3,0.6-0.6
	C99.4,24.4,99.1,24.1,98.7,24.1z"/>
<path class="st0" d="M25,40.6h-0.8v-0.8c0-0.3-0.3-0.6-0.6-0.6c-0.3,0-0.6,0.3-0.6,0.6v0.8h-0.8c-0.3,0-0.6,0.3-0.6,0.6
	c0,0.3,0.3,0.6,0.6,0.6h0.8v0.8c0,0.3,0.3,0.6,0.6,0.6c0.3,0,0.6-0.3,0.6-0.6v-0.8H25c0.3,0,0.6-0.3,0.6-0.6
	C25.6,40.9,25.3,40.6,25,40.6z"/>
<path class="st0" d="M156.5,52h-0.8v-0.8c0-0.3-0.3-0.6-0.6-0.6c-0.3,0-0.6,0.3-0.6,0.6V52h-0.8c-0.3,0-0.6,0.3-0.6,0.6
	s0.3,0.6,0.6,0.6h0.8v0.8c0,0.3,0.3,0.6,0.6,0.6c0.3,0,0.6-0.3,0.6-0.6v-0.8h0.8c0.3,0,0.6-0.3,0.6-0.6S156.8,52,156.5,52z"/>
<path class="st0" d="M31.5,16.1h-0.8v-0.8c0-0.3-0.3-0.6-0.6-0.6c-0.3,0-0.6,0.3-0.6,0.6v0.8h-0.8c-0.3,0-0.6,0.3-0.6,0.6
	c0,0.3,0.3,0.6,0.6,0.6h0.8v0.8c0,0.3,0.3,0.6,0.6,0.6c0.3,0,0.6-0.3,0.6-0.6v-0.8h0.8c0.3,0,0.6-0.3,0.6-0.6
	C32.1,16.4,31.8,16.1,31.5,16.1z"/>
<path class="st0" d="M196,27.2h-0.8v-0.8c0-0.3-0.3-0.6-0.6-0.6c-0.3,0-0.6,0.3-0.6,0.6v0.8h-0.8c-0.3,0-0.6,0.3-0.6,0.6
	c0,0.3,0.3,0.6,0.6,0.6h0.8v0.8c0,0.3,0.3,0.6,0.6,0.6c0.3,0,0.6-0.3,0.6-0.6v-0.8h0.8c0.3,0,0.6-0.3,0.6-0.6
	C196.6,27.5,196.3,27.2,196,27.2z"/>
<g>
	<path class="st0" d="M188.1,56c-1.7,0-3.1-1.4-3.1-3.1c0-1.7,1.4-3.1,3.1-3.1c1.7,0,3.1,1.4,3.1,3.1C191.2,54.6,189.8,56,188.1,56z
		 M188.1,50.9c-1,0-1.9,0.9-1.9,1.9c0,1,0.9,1.9,1.9,1.9c1,0,1.9-0.9,1.9-1.9C190,51.8,189.1,50.9,188.1,50.9z"/>
</g>
<g>
	<path class="st0" d="M50.1,51.5c-1.7,0-3.1-1.4-3.1-3.1c0-1.7,1.4-3.1,3.1-3.1c1.7,0,3.1,1.4,3.1,3.1
		C53.2,50.1,51.8,51.5,50.1,51.5z M50.1,46.4c-1,0-1.9,0.9-1.9,1.9c0,1,0.9,1.9,1.9,1.9c1,0,1.9-0.9,1.9-1.9
		C52,47.3,51.1,46.4,50.1,46.4z"/>
</g>
<g>
	<path class="st0" d="M116.4,16.5c-1.7,0-3.1-1.4-3.1-3.1c0-1.7,1.4-3.1,3.1-3.1c1.7,0,3.1,1.4,3.1,3.1
		C119.5,15.1,118.1,16.5,116.4,16.5z M116.4,11.4c-1,0-1.9,0.9-1.9,1.9c0,1,0.9,1.9,1.9,1.9c1,0,1.9-0.9,1.9-1.9
		C118.3,12.3,117.4,11.4,116.4,11.4z"/>
</g>
<g>
	<path class="st0" d="M3.3,32.9c-1.7,0-3.1-1.4-3.1-3.1c0-1.7,1.4-3.1,3.1-3.1c1.7,0,3.1,1.4,3.1,3.1C6.4,31.5,5,32.9,3.3,32.9z
		 M3.3,27.8c-1,0-1.9,0.9-1.9,1.9c0,1,0.9,1.9,1.9,1.9c1,0,1.9-0.9,1.9-1.9C5.2,28.7,4.3,27.8,3.3,27.8z"/>
</g>
<g>
	<path class="st0" d="M217.5,33.9c-1.7,0-3.1-1.4-3.1-3.1c0-1.7,1.4-3.1,3.1-3.1c1.7,0,3.1,1.4,3.1,3.1
		C220.7,32.5,219.2,33.9,217.5,33.9z M217.5,28.8c-1,0-1.9,0.9-1.9,1.9c0,1,0.9,1.9,1.9,1.9c1,0,1.9-0.9,1.9-1.9
		C219.4,29.7,218.6,28.8,217.5,28.8z"/>
</g>
<g>
	<g>
		<path class="st0" d="M57.2,31.5H41.5V-0.1h15.7c0.3,0,0.6,0.3,0.6,0.6c0,0.3-0.3,0.6-0.6,0.6H42.8v29.1h14.5
			c0.3,0,0.6,0.3,0.6,0.6S57.6,31.5,57.2,31.5z"/>
	</g>
	<g>
		<path class="st0" d="M83.2,31.5H67.4c-0.3,0-0.6-0.3-0.6-0.6s0.3-0.6,0.6-0.6h14.5V1.2H67.4c-0.3,0-0.6-0.3-0.6-0.6
			c0-0.3,0.3-0.6,0.6-0.6h15.7V31.5z"/>
	</g>
	<g>
		<path class="st0" d="M85.9,33.9H71.4c-0.3,0-0.6-0.3-0.6-0.6s0.3-0.6,0.6-0.6h13.2V3.5h-1.5c-0.3,0-0.6-0.3-0.6-0.6
			c0-0.3,0.3-0.6,0.6-0.6h2.8V33.9z"/>
	</g>
	<g>
		<path class="st0" d="M53.3,33.9H38.8V2.2h2.8c0.3,0,0.6,0.3,0.6,0.6c0,0.3-0.3,0.6-0.6,0.6h-1.5v29.2h13.2c0.3,0,0.6,0.3,0.6,0.6
			S53.7,33.9,53.3,33.9z"/>
	</g>
	<g>
		<g>
			<path class="st0" d="M62.4,6.8c-0.3,0-0.6-0.3-0.6-0.6c0-2.7-2-5-4.4-5c-0.3,0-0.6-0.3-0.6-0.6c0-0.3,0.3-0.6,0.6-0.6
				c3.1,0,5.7,2.8,5.7,6.2C63.1,6.5,62.8,6.8,62.4,6.8z"/>
		</g>
		<g>
			<path class="st0" d="M62.4,6.8c-0.3,0-0.6-0.3-0.6-0.6c0-3.4,2.6-6.2,5.7-6.2c0.3,0,0.6,0.3,0.6,0.6c0,0.3-0.3,0.6-0.6,0.6
				c-2.4,0-4.4,2.2-4.4,5C63,6.5,62.7,6.8,62.4,6.8z"/>
		</g>
	</g>
	<g>
		<g>
			<path class="st0" d="M62.4,36.8c-0.3,0-0.6-0.3-0.6-0.6c0-2.6-2-4.6-4.4-4.6c-0.3,0-0.6-0.3-0.6-0.6c0-0.3,0.3-0.6,0.6-0.6
				c3.1,0,5.7,2.6,5.7,5.9C63.1,36.5,62.8,36.8,62.4,36.8z"/>
		</g>
		<g>
			<path class="st0" d="M62.4,36.8c-0.3,0-0.6-0.3-0.6-0.6c0-3.2,2.6-5.9,5.7-5.9c0.3,0,0.6,0.3,0.6,0.6c0,0.3-0.3,0.6-0.6,0.6
				c-2.4,0-4.4,2.1-4.4,4.6C63,36.5,62.7,36.8,62.4,36.8z"/>
		</g>
	</g>
	<g>
		<path class="st0" d="M65.8,38.9h-7.1c-0.3,0-0.6-0.3-0.6-0.6s0.3-0.6,0.6-0.6h7.1c0.3,0,0.6,0.3,0.6,0.6S66.1,38.9,65.8,38.9z"/>
	</g>
	<g>
		<path class="st0" d="M58.7,38.9c-0.3,0-0.6-0.3-0.6-0.6c0-2.4-2.1-4.4-4.6-4.4c-0.3,0-0.6-0.3-0.6-0.6c0-0.3,0.3-0.6,0.6-0.6
			c3.2,0,5.9,2.5,5.9,5.6C59.3,38.6,59,38.9,58.7,38.9z"/>
	</g>
	<g>
		<path class="st0" d="M65.8,38.9c-0.3,0-0.6-0.3-0.6-0.6c0-3.1,2.6-5.6,5.9-5.6c0.3,0,0.6,0.3,0.6,0.6c0,0.3-0.3,0.6-0.6,0.6
			c-2.6,0-4.6,2-4.6,4.4C66.5,38.6,66.2,38.9,65.8,38.9z"/>
	</g>
	<g>
		<path class="st0" d="M55.1,12.7l-3.8-3.5l-3.9,3.4V-0.1h7.7V12.7z M48.7,1.2v8.7l2.7-2.4l2.5,2.3V1.2H48.7z"/>
	</g>
	<g>
		<g>
			<path class="st0" d="M79.2,15.1H65.9c-0.3,0-0.6-0.3-0.6-0.6c0-0.3,0.3-0.6,0.6-0.6h13.3c0.3,0,0.6,0.3,0.6,0.6
				C79.8,14.8,79.5,15.1,79.2,15.1z"/>
		</g>
		<g>
			<path class="st0" d="M79.2,22.6H65.9c-0.3,0-0.6-0.3-0.6-0.6c0-0.3,0.3-0.6,0.6-0.6h13.3c0.3,0,0.6,0.3,0.6,0.6
				C79.8,22.4,79.5,22.6,79.2,22.6z"/>
		</g>
		<g>
			<path class="st0" d="M79.2,18.9H65.9c-0.3,0-0.6-0.3-0.6-0.6c0-0.3,0.3-0.6,0.6-0.6h13.3c0.3,0,0.6,0.3,0.6,0.6
				C79.8,18.6,79.5,18.9,79.2,18.9z"/>
		</g>
		<g>
			<path class="st0" d="M79.2,11.3H65.9c-0.3,0-0.6-0.3-0.6-0.6c0-0.3,0.3-0.6,0.6-0.6h13.3c0.3,0,0.6,0.3,0.6,0.6
				C79.8,11.1,79.5,11.3,79.2,11.3z"/>
		</g>
		<g>
			<path class="st0" d="M79.2,7.6H65.9c-0.3,0-0.6-0.3-0.6-0.6c0-0.3,0.3-0.6,0.6-0.6h13.3c0.3,0,0.6,0.3,0.6,0.6
				C79.8,7.3,79.5,7.6,79.2,7.6z"/>
		</g>
		<g>
			<path class="st0" d="M79.2,26.4H65.9c-0.3,0-0.6-0.3-0.6-0.6c0-0.3,0.3-0.6,0.6-0.6h13.3c0.3,0,0.6,0.3,0.6,0.6
				C79.8,26.1,79.5,26.4,79.2,26.4z"/>
		</g>
	</g>
	<g>
		<path class="st0" d="M58.9,22.6H45.6c-0.3,0-0.6-0.3-0.6-0.6c0-0.3,0.3-0.6,0.6-0.6h13.3c0.3,0,0.6,0.3,0.6,0.6
			C59.5,22.4,59.2,22.6,58.9,22.6z"/>
	</g>
	<g>
		<path class="st0" d="M58.9,18.9H45.6c-0.3,0-0.6-0.3-0.6-0.6c0-0.3,0.3-0.6,0.6-0.6h13.3c0.3,0,0.6,0.3,0.6,0.6
			C59.5,18.6,59.2,18.9,58.9,18.9z"/>
	</g>
	<g>
		<path class="st0" d="M58.9,11.3h-4.1c-0.3,0-0.6-0.3-0.6-0.6c0-0.3,0.3-0.6,0.6-0.6h4.1c0.3,0,0.6,0.3,0.6,0.6
			C59.5,11.1,59.2,11.3,58.9,11.3z"/>
	</g>
	<g>
		<path class="st0" d="M58.9,7.6h-4.1c-0.3,0-0.6-0.3-0.6-0.6c0-0.3,0.3-0.6,0.6-0.6h4.1c0.3,0,0.6,0.3,0.6,0.6
			C59.5,7.3,59.2,7.6,58.9,7.6z"/>
	</g>
	<g>
		<path class="st0" d="M58.9,15.1H45.6c-0.3,0-0.6-0.3-0.6-0.6c0-0.3,0.3-0.6,0.6-0.6h13.3c0.3,0,0.6,0.3,0.6,0.6
			C59.5,14.8,59.2,15.1,58.9,15.1z"/>
	</g>
	<g>
		<path class="st0" d="M47.7,11.3h-2.1c-0.3,0-0.6-0.3-0.6-0.6c0-0.3,0.3-0.6,0.6-0.6h2.1c0.3,0,0.6,0.3,0.6,0.6
			C48.3,11.1,48,11.3,47.7,11.3z"/>
	</g>
	<g>
		<path class="st0" d="M47.7,7.6h-2.1c-0.3,0-0.6-0.3-0.6-0.6c0-0.3,0.3-0.6,0.6-0.6h2.1c0.3,0,0.6,0.3,0.6,0.6
			C48.3,7.3,48,7.6,47.7,7.6z"/>
	</g>
	<g>
		<path class="st0" d="M58.9,26.6H45.6c-0.3,0-0.6-0.3-0.6-0.6c0-0.3,0.3-0.6,0.6-0.6h13.3c0.3,0,0.6,0.3,0.6,0.6
			C59.5,26.3,59.2,26.6,58.9,26.6z"/>
	</g>
</g>
<path class="st0" d="M124.9,54.6h-2.4c-0.1,0-0.2,0-0.3,0.1c-1.8,1.7-6.5,2.8-7.8,3.1c0,0,0,0,0,0c0.2-1.3-0.7-2.5-2.1-3
	c0-0.5,0-1.2-0.5-2c-0.2-0.3-0.4-0.6-0.7-0.8c1.3,0,2.6-0.2,3.8-0.7c0.3-0.1,0.4-0.4,0.3-0.6c-0.1-0.3-0.4-0.4-0.6-0.3
	c-4.4,1.7-10.1-0.5-10.1-0.5c-0.2-0.1-0.3,0-0.5,0.1c-1.9,1.5-3.5,1.9-4.7,1.9c0,0-0.1,0-0.1,0c-0.2,0-0.3,0-0.5,0
	c-0.1,0-0.3,0-0.4-0.1c0,0-0.1,0-0.1,0c-0.2,0-0.4-0.2-0.5-0.4c-0.1-0.2,0-0.5,0.1-0.7l4.9-6.2l8-0.4c0.3,0,0.5-0.2,0.5-0.5
	c0-0.3-0.2-0.5-0.5-0.5l-3.1,0.1l2.4-2.9c4.2,1.4,8.5,3.7,8.5,3.7c0.1,0,0.1,0,0.2,0.1l6.3-0.1c0.3,0,0.5-0.2,0.5-0.5
	c0-0.3-0.2-0.5-0.5-0.5c0,0,0,0,0,0l-6.2,0.1c-0.7-0.4-4.4-2.2-8.2-3.6l1.7-2c1.1-1.4,1-3.4-0.3-4.5c0,0-0.1-0.1-0.1-0.1
	c0,0,0,0,0,0c-1.3-1.1-3.3-0.8-4.4,0.6l-4,4.9c-1.6,0.4-4.3,1.1-6.5,1.8c-0.6,0.2-1.1,0.5-1.5,1l-6.4,7.6c-0.3,0.4-0.4,0.9-0.3,1.3
	c0.1,0.5,0.4,0.8,0.8,1c0.7,0.4,2,0.7,3.4,0.2l-3.3,4c0,0.1-0.1,0.1-0.1,0.2l-1.6,5.4c-0.1,0.4,0,0.8,0.3,1.1
	c0.2,0.2,0.4,0.2,0.7,0.2c0.2,0,0.3,0,0.5-0.1l4.9-2.6c0.1,0,0.1-0.1,0.2-0.1l4.4-5.4c0.1,0.7,0.3,1.5,1,2.1
	c0.2,0.2,0.5,0.3,0.9,0.3c0.2,1.3,1.2,3.5,3.8,3.5c0,0,0.1,0,0.1,0c0.3,0.6,1.2,1.8,2.9,2c0.5,0.1,1.3,0.1,2.2,0.1
	c2.2,0,4.9-0.4,5.4-2c0.2-0.5,0.1-1-0.1-1.4c1.7-0.4,5.7-1.4,7.7-3.1h2.2c0.3,0,0.5-0.2,0.5-0.5S125.1,54.6,124.9,54.6z M94.4,48.8
	c-2,2.1-3.6,1.9-4.7,1.4c-0.2-0.1-0.2-0.3-0.3-0.4c0-0.2,0-0.4,0.1-0.5l6.4-7.6c0.3-0.3,0.6-0.5,1-0.6c2.3-0.7,4-1.1,5.2-1.4l-6,7.3
	C95.7,47.5,95.1,48.1,94.4,48.8z M93.7,58.5l-4.9,2.5l1.5-5.3L108,34.1c0.8-1,2.2-1.2,3.1-0.4l0.3-0.4l-0.3,0.4l0.1,0.1
	c0.9,0.8,1,2.2,0.2,3.1l-5.2,6.4l-3.9,0.2c-0.1,0-0.3,0.1-0.4,0.2l-5,6.4c-0.4,0.5-0.4,1.1-0.2,1.6c0.2,0.5,0.7,0.9,1.2,1
	c0.2,0,0.3,0.1,0.5,0.1L93.7,58.5z M99.7,52.9c1.3-0.1,2.8-0.6,4.5-1.9c0.6,0.2,1.9,0.6,3.6,0.9c1.5,0.2,2.6,0.8,3.1,1.5
	c0.3,0.5,0.4,1,0.3,1.3c-3.8,0.6-9.8,1.3-10.9,0.5C99.7,54.7,99.6,53.5,99.7,52.9z M101.6,56.5c0.4,0,0.9,0.1,1.3,0.1
	c3,0,7.1-0.6,8.5-0.9c0,0,0.1,0,0.1,0c1.1,0.3,1.8,1.1,1.7,2c0,0.2-0.2,0.4-0.4,0.4c-1.6,0.1-5.6,0.5-8.2,0.8
	C102.5,59.1,101.8,57.2,101.6,56.5z M114.1,59.7c-0.4,1.2-4.2,1.6-6.5,1.2c-1-0.2-1.6-0.7-1.9-1.2c2.6-0.2,6-0.6,7.5-0.7
	c0.3,0,0.5-0.1,0.7-0.3C114,58.9,114.3,59.2,114.1,59.7z"/>
<g>
	<g>
		<path class="st0" d="M139.6,35.8c-0.2,0-0.4-0.1-0.5-0.2c-0.3-0.3-0.3-0.7-0.1-1c2.9-3.9,5.5-6.9,7.6-9.1l18.6-20.1
			c1.2-1.3,2.2-1.9,3.2-1.9c0.7,0,1.3,0.3,1.9,0.9l0,0l0,0c0.6,0.6,0.9,1.2,0.9,1.9c0,1-0.6,2-1.9,3.2l-20.1,18.6
			c-2.2,2.1-5.2,4.7-9.1,7.6C139.9,35.8,139.8,35.8,139.6,35.8z M168.4,4.7C168.4,4.7,168.4,4.7,168.4,4.7c-0.7,0-1.4,0.5-2.4,1.5
			l-18.6,20.1c-1.6,1.7-3.6,3.9-5.7,6.7c2.7-2.2,5-4.1,6.7-5.7l20.1-18.6c1-1,1.5-1.7,1.5-2.4c0-0.4-0.2-0.7-0.5-1.1l0,0
			C169.1,4.8,168.8,4.7,168.4,4.7z"/>
	</g>
	<g>
		
			<rect x="168.7" y="6.9" transform="matrix(0.6218 -0.7832 0.7832 0.6218 54.7429 137.0848)" class="st0" width="1.2" height="9.9"/>
	</g>
	<g>
		<path class="st0" d="M163.1,12.1c-0.1,0-0.3-0.1-0.4-0.2s-0.2-0.3-0.2-0.4s0.1-0.3,0.2-0.4l3.8-3.8c0.2-0.2,0.6-0.2,0.8,0
			c0.1,0.1,0.2,0.3,0.2,0.4s-0.1,0.3-0.2,0.4l-3.8,3.8C163.4,12.1,163.2,12.1,163.1,12.1z"/>
	</g>
	<g>
		<path class="st0" d="M155.3,34.5c-2.5,0-5.4-1.1-7.9-3l0.7-0.9c2.8,2.2,6.2,3.2,8.6,2.6c0.7-0.2,1.6-0.6,2-1.4
			c1.2-2.6-2.4-8.2-6.9-15.2c-2.4-3.7-5.7-8.8-2.4-12.3c3.4-3.6,11.8,1.5,12.8,2.1l-0.6,1c-2.9-1.8-9.1-4.7-11.3-2.3
			c-2.7,2.8,0.3,7.5,2.5,10.9c4.9,7.6,8.5,13.1,7,16.3c-0.5,1-1.4,1.7-2.7,2.1C156.4,34.4,155.9,34.5,155.3,34.5z"/>
	</g>
	<g>
		<path class="st0" d="M143.3,27.1c-1.1-1.6-1.7-3.1-2.2-4.2l-0.1-0.3l1.1-0.5l0.1,0.3c0.5,1.1,1.1,2.5,2.1,4L143.3,27.1z"/>
	</g>
</g>
</svg>
