<?xml version="1.0" encoding="utf-8"?>
<!-- Generator: Adobe Illustrator 21.1.0, SVG Export Plug-In . SVG Version: 6.00 Build 0)  -->
<svg version="1.1" id="Layer_1" xmlns="http://www.w3.org/2000/svg" xmlns:xlink="http://www.w3.org/1999/xlink" x="0px" y="0px"
	 viewBox="0 0 49.5 40.7" style="enable-background:new 0 0 49.5 40.7;" xml:space="preserve">
<style type="text/css">
	.st0{fill:#846EA0;}
</style>
<g>
	<path class="st0" d="M20.2,13.1h-1.8c-0.3,0-0.6,0.3-0.6,0.6s0.3,0.6,0.6,0.6h1.8c0.3,0,0.6-0.3,0.6-0.6S20.5,13.1,20.2,13.1z"/>
	<path class="st0" d="M28.9,13.7c0-0.3-0.3-0.6-0.6-0.6h-1.8c-0.3,0-0.6,0.3-0.6,0.6s0.3,0.6,0.6,0.6h1.8
		C28.6,14.3,28.9,14.1,28.9,13.7z"/>
	<path class="st0" d="M23.2,18.3c0.8,0,1.4-0.6,1.4-1.4V14c0-0.3-0.3-0.6-0.6-0.6c-0.3,0-0.6,0.3-0.6,0.6v2.8c0,0.2-0.4,0.2-0.4,0
		V14c0-0.3-0.3-0.6-0.6-0.6c-0.3,0-0.6,0.3-0.6,0.6v2.8C21.7,17.6,22.4,18.3,23.2,18.3z"/>
	<path class="st0" d="M24,19.4c0,0-0.3,0.5-0.9,0.4c-0.5,0-0.7-0.4-0.8-0.4c-0.2-0.3-0.6-0.4-0.9-0.2c-0.3,0.2-0.4,0.6-0.2,0.9
		c0.3,0.4,0.9,0.9,1.7,1c0,0,0.1,0,0.1,0c1.1,0,1.8-0.9,1.8-1c0.2-0.3,0.1-0.7-0.2-0.9C24.6,19.1,24.2,19.1,24,19.4z"/>
	<path class="st0" d="M36,22l2.4-0.9c0.2-0.1,0.3-0.2,0.4-0.4c0.1-0.2,0.1-0.4,0-0.5L37,16.8c-1.6-3-2.7-5.7-3.4-8.4
		c-1.1-4.3-4.7-7.3-8.6-7.3l-3.6,0c0,0,0,0,0,0c-3.9,0-7.5,3-8.6,7.3c-0.7,2.7-1.8,5.4-3.4,8.4l-1.8,3.4c-0.1,0.2-0.1,0.3,0,0.5
		C7.7,20.9,7.8,21,8,21.1l2.5,0.9c1.1,0.4,2.1,0.6,3.1,0.6c0.2,0,0.4,0,0.6,0c0.2,0.9,0.5,1.7,0.9,2.5l-2.4,0.2
		c-2.5,0.2-4.4,2.1-4.4,4.5v6c0,2.5,2,4.5,4.5,4.5H26h2.5h5.2c2.5,0,4.5-2,4.5-4.5v-6c0-2.3-1.8-4.1-4.4-4.5L31.4,25
		c0.3-0.8,0.6-1.6,0.9-2.5C33.4,22.6,34.6,22.4,36,22z M10.8,20.8l-1.7-0.6l1.4-2.7c1.6-3.1,2.8-5.9,3.5-8.7c1-3.7,4-6.3,7.4-6.3h0
		l3.6,0c3.4,0,6.4,2.6,7.4,6.3c0.7,2.8,1.9,5.6,3.5,8.6l1.5,2.7l-1.8,0.6c-1.1,0.4-2,0.6-2.9,0.5c0.5-2,0.7-4,0.7-5.3c0,0,0,0,0-0.1
		c0-1.4-1.1-2.5-2.5-2.5v-1.5c0-0.1,0-0.2,0-0.3c0.2,0,0.4,0,0.7,0c0.3,0,0.6-0.3,0.6-0.6c0-0.3-0.3-0.6-0.7-0.6
		c-2.3,0-4.4-1.2-5.6-3.2c-0.6-1-1.5-1.9-2.5-2.5c-0.1-0.1-0.1-0.1-0.2-0.2c-1.2-0.7-2.6-1.1-4-1.1h-0.5c-0.3,0-0.6,0.3-0.6,0.6
		c0,0.3,0.3,0.6,0.6,0.6h0.5c0.5,0,1,0.1,1.5,0.2c-2.9,1-5.1,3.8-5.1,7v1.5c-1.4,0.1-2.5,1.2-2.5,2.6c0,1.3,0.2,3.3,0.7,5.3
		C12.9,21.4,11.9,21.2,10.8,20.8z M19,25.9l2.6,4.8c-1.6-1.1-3.3-2.8-4.5-4.6L19,25.9z M27.4,25.9l2,0.2c-1.2,1.8-3,3.5-4.6,4.6
		L27.4,25.9z M26.4,25.1l-3.2,6l-3.2-6v-2.2c0.9,0.4,1.9,0.6,3,0.6h0.4c1.1,0,2.1-0.2,3-0.6V25.1z M23.4,22.2H23
		c-3.4,0-6.2-2.8-6.2-6.2v-4.1c0-3.3,2.6-6,5.9-6.1c0.8,0.5,1.5,1.2,2,2.1c1.1,1.8,2.8,3,4.8,3.5c0,0.2,0,0.3,0,0.5v4.1
		C29.6,19.5,26.8,22.2,23.4,22.2z M14.3,16c0-0.7,0.5-1.3,1.2-1.3v1.4c0,1.5,0.4,2.9,1.2,4c-0.5,0.5-1.1,0.8-1.7,1
		C14.6,19.2,14.3,17.3,14.3,16z M30.8,16.1v-1.4c0.7,0.1,1.2,0.6,1.2,1.3c0,0,0,0,0,0c0,1.3-0.2,3.2-0.7,5.1c-0.6-0.2-1.2-0.5-1.7-1
		C30.4,18.9,30.8,17.6,30.8,16.1z M15.4,22.3c0.8-0.2,1.5-0.6,2.2-1.2c0.4,0.4,0.7,0.7,1.2,1v2.5l-2.4,0.2
		C16,24.1,15.6,23.2,15.4,22.3z M9.4,35.7v-6c0-1.7,1.4-3.1,3.3-3.2l2.9-0.3c0.1,0.1,0.1,0.2,0.2,0.3c1.6,2.5,4.4,5,6.8,6.2l0,4.1
		c0,0.8,0.3,1.6,0.8,2.2H12.7C10.9,39,9.4,37.5,9.4,35.7z M33.6,26.5c1.6,0.2,3.3,1.3,3.3,3.2v6c0,1.8-1.5,3.2-3.2,3.2h-2.6
		c0.5-0.6,0.8-1.4,0.8-2.2v-2c1.1-0.3,2-1.3,2-2.5c0-1.4-1.2-2.6-2.6-2.6s-2.6,1.2-2.6,2.6c0,1.2,0.8,2.2,2,2.5v2
		c0,1.2-1,2.2-2.2,2.2H26c-1.2,0-2.2-1-2.2-2.2l0-4.1c2.3-1.1,5.2-3.7,6.8-6.2c0.1-0.1,0.1-0.2,0.2-0.3L33.6,26.5z M31.3,33.7
		c-0.7,0-1.3-0.6-1.3-1.3c0-0.7,0.6-1.3,1.3-1.3s1.3,0.6,1.3,1.3C32.7,33,32.1,33.7,31.3,33.7z M30.1,24.9l-2.4-0.2v-2.5
		c0.4-0.3,0.8-0.7,1.2-1c0.7,0.6,1.4,1,2.2,1.2C30.8,23.2,30.4,24.1,30.1,24.9z"/>
	<path class="st0" d="M17.6,31.8h-2v-2c0-0.3-0.3-0.6-0.6-0.6c-0.3,0-0.6,0.3-0.6,0.6v2h-2c-0.3,0-0.6,0.3-0.6,0.6S12,33,12.4,33h2
		v2c0,0.3,0.3,0.6,0.6,0.6c0.3,0,0.6-0.3,0.6-0.6v-2h2c0.3,0,0.6-0.3,0.6-0.6S18,31.8,17.6,31.8z"/>
</g>
<path class="st0" d="M41.3,3.3h-0.8V2.4c0-0.3-0.3-0.6-0.6-0.6s-0.6,0.3-0.6,0.6v0.8h-0.8c-0.3,0-0.6,0.3-0.6,0.6s0.3,0.6,0.6,0.6
	h0.8v0.8c0,0.3,0.3,0.6,0.6,0.6s0.6-0.3,0.6-0.6V4.5h0.8c0.3,0,0.6-0.3,0.6-0.6S41.7,3.3,41.3,3.3z"/>
<g>
	<path class="st0" d="M45.8,29.7c-1.7,0-3.1-1.4-3.1-3.1s1.4-3.1,3.1-3.1c1.7,0,3.1,1.4,3.1,3.1S47.6,29.7,45.8,29.7z M45.8,24.7
		c-1,0-1.9,0.9-1.9,1.9c0,1,0.9,1.9,1.9,1.9c1,0,1.9-0.9,1.9-1.9C47.7,25.6,46.9,24.7,45.8,24.7z"/>
</g>
<g>
	<path class="st0" d="M3.8,16.4c-1.7,0-3.1-1.4-3.1-3.1s1.4-3.1,3.1-3.1S7,11.5,7,13.3S5.6,16.4,3.8,16.4z M3.8,11.4
		c-1,0-1.9,0.9-1.9,1.9c0,1,0.9,1.9,1.9,1.9s1.9-0.9,1.9-1.9C5.7,12.2,4.9,11.4,3.8,11.4z"/>
</g>
</svg>
