<?xml version="1.0" encoding="utf-8"?>
<!-- Generator: Adobe Illustrator 21.1.0, SVG Export Plug-In . SVG Version: 6.00 Build 0)  -->
<svg version="1.1" id="Layer_1" xmlns="http://www.w3.org/2000/svg" xmlns:xlink="http://www.w3.org/1999/xlink" x="0px" y="0px"
	 viewBox="0 0 53.4 45.9" style="enable-background:new 0 0 53.4 45.9;" xml:space="preserve">
<style type="text/css">
	.st0{fill:#846EA0;}
</style>
<g>
	<path class="st0" d="M48.5,17.3L27.3,6.7c-0.2-0.1-0.4-0.1-0.6,0L7.4,17.3c-0.2,0.1-0.3,0.3-0.3,0.5v4.3c0,0.3,0.3,0.6,0.6,0.6h2.9
		V45c0,0.3,0.3,0.6,0.6,0.6h33.5c0.3,0,0.6-0.3,0.6-0.6V22.7h2.9c0.3,0,0.6-0.3,0.6-0.6v-4.3C48.9,17.6,48.8,17.4,48.5,17.3z
		 M47.6,21.5h-2.9c-0.3,0-0.6,0.3-0.6,0.6v22.2H11.9V22.7h29.4c0.3,0,0.6-0.3,0.6-0.6c0-0.3-0.3-0.6-0.6-0.6h-33v-3.3L27.1,7.9
		l20.6,10.3V21.5z"/>
	<path class="st0" d="M35.3,30.2h-4v-4c0-0.3-0.3-0.6-0.6-0.6h-5.4c-0.3,0-0.6,0.3-0.6,0.6v4h-4c-0.3,0-0.6,0.3-0.6,0.6v5.4
		c0,0.3,0.3,0.6,0.6,0.6h4v4c0,0.3,0.3,0.6,0.6,0.6h5.4c0.3,0,0.6-0.3,0.6-0.6v-4h4c0.3,0,0.6-0.3,0.6-0.6v-5.4
		C35.9,30.5,35.7,30.2,35.3,30.2z M34.7,35.6h-4c-0.3,0-0.6,0.3-0.6,0.6v4h-4.1v-4c0-0.3-0.3-0.6-0.6-0.6h-4v-4.1h4
		c0.3,0,0.6-0.3,0.6-0.6v-4H30v4c0,0.3,0.3,0.6,0.6,0.6h4V35.6z"/>
</g>
<path class="st0" d="M52.1,39.7h-0.8v-0.8c0-0.3-0.3-0.6-0.6-0.6S50,38.5,50,38.9v0.8h-0.8c-0.3,0-0.6,0.3-0.6,0.6s0.3,0.6,0.6,0.6
	H50v0.8c0,0.3,0.3,0.6,0.6,0.6s0.6-0.3,0.6-0.6V41h0.8c0.3,0,0.6-0.3,0.6-0.6S52.5,39.7,52.1,39.7z"/>
<g>
	<path class="st0" d="M43.9,7.2c-1.7,0-3.1-1.4-3.1-3.1s1.4-3.1,3.1-3.1c1.7,0,3.1,1.4,3.1,3.1S45.7,7.2,43.9,7.2z M43.9,2.1
		C42.9,2.1,42,3,42,4c0,1,0.9,1.9,1.9,1.9c1,0,1.9-0.9,1.9-1.9C45.8,3,45,2.1,43.9,2.1z"/>
</g>
<g>
	<path class="st0" d="M3.9,34.5c-1.7,0-3.1-1.4-3.1-3.1c0-1.7,1.4-3.1,3.1-3.1S7,29.6,7,31.3C7,33,5.6,34.5,3.9,34.5z M3.9,29.4
		c-1,0-1.9,0.9-1.9,1.9c0,1,0.9,1.9,1.9,1.9s1.9-0.9,1.9-1.9C5.8,30.3,4.9,29.4,3.9,29.4z"/>
</g>
</svg>
