<?xml version="1.0" encoding="utf-8"?>
<!-- Generator: Adobe Illustrator 21.1.0, SVG Export Plug-In . SVG Version: 6.00 Build 0)  -->
<svg version="1.1" id="Layer_1" xmlns="http://www.w3.org/2000/svg" xmlns:xlink="http://www.w3.org/1999/xlink" x="0px" y="0px"
	 viewBox="0 0 48.2 55.7" style="enable-background:new 0 0 48.2 55.7;" xml:space="preserve">
<style type="text/css">
	.st0{fill:#846EA0;}
</style>
<g>
	<path class="st0" d="M7.8,29.5c1,0,1.8,0.8,1.8,1.8V35c0,0.3,0.3,0.6,0.6,0.6h2.6v11.9c0,3.5,2.8,6.3,6.3,6.3h0.4
		c3.5,0,6.3-2.8,6.3-6.3V34.6v-5.2V16.5c0-2.8,2.3-5.1,5.1-5.1h0.4c2.8,0,5.1,2.3,5.1,5.1v17.6c-0.8,0.3-1.3,1-1.3,1.8
		c0,0.8,0.9,2.7,1.3,3.5v3c0,0.3,0.3,0.6,0.6,0.6s0.6-0.3,0.6-0.6v-3c0.4-0.8,1.3-2.7,1.3-3.5c0-0.8-0.5-1.5-1.3-1.8V16.5
		c0-3.5-2.8-6.3-6.3-6.3H31c-3.5,0-6.3,2.8-6.3,6.3v12.9v5.2v12.9c0,2.8-2.3,5.1-5.1,5.1h-0.4c-2.8,0-5.1-2.3-5.1-5.1V35.6h2.6
		c0.3,0,0.6-0.3,0.6-0.6v-3.6c0-1,0.8-1.8,1.8-1.8c1.7,0,3.1-1.4,3.1-3.1V12.5c0-1.5-1.2-2.7-2.7-2.7H7.4c-1.5,0-2.7,1.2-2.7,2.7
		v13.9C4.7,28.1,6.1,29.5,7.8,29.5z M37.1,37.8c-0.4-0.9-0.7-1.6-0.7-1.9c0-0.4,0.3-0.7,0.7-0.7c0.4,0,0.7,0.3,0.7,0.7
		C37.8,36.2,37.5,36.9,37.1,37.8z M6,12.5c0-0.8,0.6-1.4,1.4-1.4h12.3c0.8,0,1.4,0.6,1.4,1.4v0.8h-5.6c-0.3,0-0.6,0.3-0.6,0.6
		c0,0.3,0.3,0.6,0.6,0.6H21v2.5h-5.6c-0.3,0-0.6,0.3-0.6,0.6c0,0.3,0.3,0.6,0.6,0.6H21v2.5h-5.6c-0.3,0-0.6,0.3-0.6,0.6
		c0,0.3,0.3,0.6,0.6,0.6H21v2.5h-5.6c-0.3,0-0.6,0.3-0.6,0.6c0,0.3,0.3,0.6,0.6,0.6H21v0.5c0,1-0.8,1.8-1.8,1.8
		c-1.7,0-3.1,1.4-3.1,3.1v3h-5.3v-3c0-1.7-1.4-3.1-3.1-3.1c-1,0-1.8-0.8-1.8-1.8V12.5z"/>
</g>
<path class="st0" d="M23,2.6h-0.8V1.8c0-0.3-0.3-0.6-0.6-0.6c-0.3,0-0.6,0.3-0.6,0.6v0.8h-0.8c-0.3,0-0.6,0.3-0.6,0.6
	s0.3,0.6,0.6,0.6h0.8v0.8c0,0.3,0.3,0.6,0.6,0.6c0.3,0,0.6-0.3,0.6-0.6V3.8H23c0.3,0,0.6-0.3,0.6-0.6S23.3,2.6,23,2.6z"/>
<g>
	<path class="st0" d="M44.7,28.9c-1.7,0-3.1-1.4-3.1-3.1s1.4-3.1,3.1-3.1c1.7,0,3.1,1.4,3.1,3.1S46.5,28.9,44.7,28.9z M44.7,23.8
		c-1,0-1.9,0.9-1.9,1.9c0,1,0.9,1.9,1.9,1.9c1,0,1.9-0.9,1.9-1.9C46.6,24.7,45.8,23.8,44.7,23.8z"/>
</g>
<g>
	<path class="st0" d="M4.1,46.4c-1.7,0-3.1-1.4-3.1-3.1c0-1.7,1.4-3.1,3.1-3.1s3.1,1.4,3.1,3.1C7.2,45,5.8,46.4,4.1,46.4z M4.1,41.4
		c-1,0-1.9,0.9-1.9,1.9c0,1,0.9,1.9,1.9,1.9S6,44.3,6,43.3C6,42.2,5.1,41.4,4.1,41.4z"/>
</g>
</svg>
