<?xml version="1.0" encoding="utf-8"?>
<!-- Generator: Adobe Illustrator 21.1.0, SVG Export Plug-In . SVG Version: 6.00 Build 0)  -->
<svg version="1.1" id="Layer_1" xmlns="http://www.w3.org/2000/svg" xmlns:xlink="http://www.w3.org/1999/xlink" x="0px" y="0px"
	 viewBox="0 0 44.6 61.3" style="enable-background:new 0 0 44.6 61.3;" xml:space="preserve">
<style type="text/css">
	.st0{fill:#846EA0;}
</style>
<g>
	<path class="st0" d="M44,47.1l-11.5-7.4c-1-0.7-2.2-0.9-3.4-0.8l-11.6,1.5l-3.9-2.7c-0.9-0.7-2.1-0.7-3-0.1
		c-1.2-0.8-2.7-0.5-3.6,0.6c-0.4,0.6-0.6,1.3-0.5,2c0.1,0.7,0.5,1.3,1,1.7l12.9,9.6c0,0,0,0,0,0c0,0,0,0,0,0l0,0l0,0
		c0.5,0.4,1,0.5,1.6,0.5c0.1,0,0.2,0,0.4,0l10.3-1.4c0.6-0.1,1.1,0.1,1.6,0.4l5.1,3.3c0.1,0.1,0.2,0.1,0.3,0.1
		c0.2,0,0.4-0.1,0.5-0.3l3.9-6C44.4,47.7,44.3,47.3,44,47.1z M12.9,38.7l3.2,2.2c-0.1,0.1-0.2,0.1-0.3,0.2c-1.4-0.9-2.8-1.8-4-2.7
		C12.1,38.4,12.5,38.4,12.9,38.7z M39.6,52.8l-4.6-3c-0.7-0.5-1.6-0.7-2.4-0.5l-10.3,1.4c-0.4,0.1-0.7,0-1-0.3c0,0,0,0,0,0
		c0,0,0,0,0,0L8.3,40.9C8,40.7,7.8,40.3,7.7,40c-0.1-0.4,0-0.7,0.3-1c0.5-0.6,1.3-0.7,1.9-0.3c1.5,1.2,3.3,2.4,5.2,3.5
		C15,42.6,14.9,43,15,43.4c0.1,0.7,0.5,1.3,1,1.7c0.6,0.4,1.3,0.6,1.9,0.5l2.8-0.4c2,0.9,4.6,2,6.3,2c0.2,0,0.3,0,0.4,0c0,0,0,0,0,0
		c0,0,0.1,0,0.1,0c0,0,0,0,0,0c0,0,0,0,0,0c0,0,0,0,0,0c1.1-0.2,1.9-1.2,1.7-2.3c-0.2-1.1-1.2-1.9-2.3-1.8l-9.2,1.3
		c-0.4,0.1-0.7,0-1-0.3c-0.3-0.2-0.5-0.5-0.5-0.9c0-0.4,0-0.7,0.3-1c0.2-0.3,0.5-0.5,0.9-0.5l11.8-1.5c0.9-0.1,1.8,0.1,2.6,0.6
		l10.9,7.1L39.6,52.8z M27.2,44.4c0.2,0,0.4,0,0.6,0.2c0.2,0.1,0.3,0.3,0.3,0.5c0.1,0.4-0.2,0.8-0.7,0.9c0,0,0,0,0,0c0,0,0,0,0,0
		c-0.8,0.1-2.3-0.2-4.3-1L27.2,44.4z"/>
	<path class="st0" d="M15.7,25.7c0.2,0,0.4,0,0.6,0L28,24.2l3.9,2.7c0.5,0.3,1,0.5,1.6,0.5c0.5,0,1-0.2,1.5-0.5
		c0.4,0.3,1,0.5,1.5,0.5c0.8,0,1.6-0.4,2.1-1.1c0.4-0.6,0.6-1.3,0.5-2c-0.1-0.7-0.5-1.3-1-1.7L25,13.2c0,0,0,0,0,0
		c-0.6-0.4-1.3-0.6-1.9-0.5l0,0l0,0L12.7,14c-0.6,0.1-1.1,0-1.6-0.4L6,10.4c-0.3-0.2-0.7-0.1-0.9,0.2l-3.9,6
		c-0.2,0.3-0.1,0.7,0.2,0.9l11.5,7.4C13.8,25.4,14.7,25.7,15.7,25.7z M32.6,25.9l-3.2-2.2c0.1-0.1,0.2-0.1,0.3-0.2
		c1.4,0.9,2.8,1.8,4,2.7C33.3,26.2,32.9,26.2,32.6,25.9z M5.9,11.8l4.6,3c0.7,0.5,1.6,0.7,2.4,0.5l10.3-1.4c0.4-0.1,0.7,0,1,0.3
		c0,0,0,0,0,0c0,0,0,0,0,0l12.9,9.6c0.3,0.2,0.5,0.5,0.5,0.9c0.1,0.4,0,0.7-0.3,1c-0.5,0.6-1.3,0.7-1.9,0.3
		c-0.1-0.1-0.2-0.1-0.2-0.2l0,0c0,0,0,0,0,0c-1.5-1.1-3.2-2.3-4.9-3.4c0.1-0.4,0.2-0.8,0.1-1.2c-0.2-1.4-1.5-2.5-3-2.3l-2.8,0.4
		c-2.2-1.1-5.2-2.2-6.8-1.9c0,0,0,0,0,0c0,0,0,0,0,0c0,0,0,0,0,0c0,0,0,0,0,0c-0.5,0.1-1,0.4-1.3,0.8c-0.3,0.4-0.5,1-0.4,1.5
		c0.1,0.5,0.4,1,0.8,1.4c0.4,0.3,0.8,0.4,1.2,0.4c0.1,0,0.2,0,0.3,0l0,0l0,0l9.2-1.3c0.7-0.1,1.5,0.4,1.6,1.2c0,0.4,0,0.7-0.3,1
		c-0.2,0.3-0.5,0.5-0.9,0.5l-11.8,1.5c-0.9,0.1-1.8-0.1-2.6-0.6L2.7,16.8L5.9,11.8z M18.3,20.2c-0.4,0.1-0.8-0.2-0.9-0.7
		c0-0.2,0-0.4,0.2-0.6c0.1-0.2,0.3-0.3,0.5-0.3c0,0,0,0,0,0c0,0,0,0,0,0c0.8-0.1,2.3,0.2,4.3,1L18.3,20.2z"/>
	<path class="st0" d="M21.7,26.9c-1.7-1.3-4.2-1.2-5.8,0.4c-1.7,1.7-1.7,4.5,0,6.3l5.4,5.4c0.1,0.1,0.3,0.2,0.4,0.2
		c0.2,0,0.3-0.1,0.4-0.2l5.4-5.4c0.8-0.8,1.3-2,1.3-3.1c0-1.2-0.5-2.3-1.3-3.1C25.9,25.6,23.4,25.5,21.7,26.9z M27.6,30.4
		c0,0.9-0.3,1.7-0.9,2.3l-5,5l-5-5c-1.2-1.2-1.2-3.3,0-4.5c1.2-1.2,3.3-1.2,4.5,0c0.2,0.2,0.6,0.2,0.9,0c0,0,0,0,0,0
		c1.2-1.2,3.3-1.2,4.5,0C27.2,28.7,27.6,29.5,27.6,30.4z"/>
	<path class="st0" d="M23.1,28.6c0,0.3,0.3,0.6,0.6,0.6c1,0,1.7,0.8,1.7,1.7c0,0.3,0.3,0.6,0.6,0.6c0.3,0,0.6-0.3,0.6-0.6
		c0-1.6-1.3-3-3-3C23.4,28,23.1,28.3,23.1,28.6z"/>
</g>
<path class="st0" d="M5.4,29.8H4.5v-0.8c0-0.3-0.3-0.6-0.6-0.6s-0.6,0.3-0.6,0.6v0.8H2.4c-0.3,0-0.6,0.3-0.6,0.6
	c0,0.3,0.3,0.6,0.6,0.6h0.8v0.8c0,0.3,0.3,0.6,0.6,0.6s0.6-0.3,0.6-0.6V31h0.8C5.7,31,6,30.7,6,30.4C6,30.1,5.7,29.8,5.4,29.8z"/>
<path class="st0" d="M39.2,34.4h-0.8v-0.8c0-0.3-0.3-0.6-0.6-0.6c-0.3,0-0.6,0.3-0.6,0.6v0.8h-0.8c-0.3,0-0.6,0.3-0.6,0.6
	s0.3,0.6,0.6,0.6h0.8v0.8c0,0.3,0.3,0.6,0.6,0.6c0.3,0,0.6-0.3,0.6-0.6v-0.8h0.8c0.3,0,0.6-0.3,0.6-0.6S39.5,34.4,39.2,34.4z"/>
<g>
	<path class="st0" d="M16.5,7.6c-1.7,0-3.1-1.4-3.1-3.1s1.4-3.1,3.1-3.1c1.7,0,3.1,1.4,3.1,3.1S18.3,7.6,16.5,7.6z M16.5,2.5
		c-1,0-1.9,0.9-1.9,1.9c0,1,0.9,1.9,1.9,1.9c1,0,1.9-0.9,1.9-1.9C18.4,3.4,17.6,2.5,16.5,2.5z"/>
</g>
<g>
	<path class="st0" d="M33.2,60.3c-1.7,0-3.1-1.4-3.1-3.1c0-1.7,1.4-3.1,3.1-3.1c1.7,0,3.1,1.4,3.1,3.1
		C36.4,58.8,34.9,60.3,33.2,60.3z M33.2,55.2c-1,0-1.9,0.9-1.9,1.9c0,1,0.9,1.9,1.9,1.9c1,0,1.9-0.9,1.9-1.9
		C35.1,56.1,34.3,55.2,33.2,55.2z"/>
</g>
</svg>
