<?xml version="1.0" encoding="utf-8"?>
<!-- Generator: Adobe Illustrator 21.1.0, SVG Export Plug-In . SVG Version: 6.00 Build 0)  -->
<svg version="1.1" id="Layer_1" xmlns="http://www.w3.org/2000/svg" xmlns:xlink="http://www.w3.org/1999/xlink" x="0px" y="0px"
	 viewBox="0 0 233.4 82.6" style="enable-background:new 0 0 233.4 82.6;" xml:space="preserve">
<style type="text/css">
	.st0{fill:#846EA0;}
</style>
<g>
	<path class="st0" d="M151.6,12.3L155,12l1.2,5.4c0,0.1,0.1,0.2,0.1,0.4c0.1,0.2,0.1,0.4,0.2,0.6c0.6,1.2,2,2,3.8,2.1
		c0.2,0,0.4,0,0.5,0c1.6,0,3.3-0.4,5-1.3c3.2-1.6,5.5-6,5.4-8.8c0-0.4,0.2-0.8,0.6-1c1.3-0.6,2.1-1.6,2.5-3.1c0.5-1.8-0.2-3.8-1.7-5
		c-1.9-1.4-4-1.8-6-1c-1.9,0.8-3.2,2.5-3.4,4.5c-0.2,1.6,0.3,3.2,1.3,4.3c-0.7,0.1-1.4-0.4-1.6-1.2l-0.6-3c-0.1-0.4-0.3-0.8-0.7-1
		c-0.4-0.2-0.8-0.3-1.2-0.2c-0.4,0.1-0.8,0.3-1,0.7c-0.2,0.4-0.3,0.8-0.2,1.2l1.1,5.2c-0.4,0.3-0.8,0.6-1.2,0.9l-0.4-1.7
		c-0.2-0.9-1.2-1.6-2.1-1.6l-5.2,0.4c-0.8,0.1-1.5,0.8-1.4,1.7C150,11.7,150.8,12.3,151.6,12.3z M151.5,10.5l5.2-0.4
		c0.4,0,0.8,0.3,0.8,0.6l0.6,2.7c0,0.2,0.2,0.4,0.4,0.5c0.2,0.1,0.5,0,0.6-0.2c0.6-0.6,1.4-1.2,2.2-1.7c0.2-0.1,0.3-0.4,0.3-0.7
		l-1.2-5.7c0-0.1,0-0.2,0.1-0.3c0.1-0.1,0.1-0.1,0.2-0.2c0.1,0,0.2,0,0.3,0.1c0.1,0.1,0.1,0.1,0.2,0.2l0.6,3
		c0.3,1.5,1.7,2.4,3.2,2.1c0.4-0.1,0.7-0.1,1.1-0.1c0.3,0,0.5-0.2,0.6-0.5c0.1-0.3,0-0.5-0.3-0.7c-1.4-0.9-2.1-2.5-1.9-4.1
		c0.2-1.6,1.2-2.9,2.7-3.5c1.5-0.6,3.3-0.4,4.8,0.8c1.1,0.9,1.7,2.3,1.3,3.7c-0.3,1.1-0.9,1.8-1.8,2.2c-0.9,0.4-1.4,1.2-1.4,2.1
		c0.1,2.4-2,6.2-4.7,7.6c-1.7,0.8-3.4,1.2-4.9,1.1c-1.4-0.1-2.4-0.6-2.8-1.4c-0.1-0.1-0.1-0.2-0.1-0.4c0,0,0-0.1,0-0.1
		c0,0-0.1-0.1-0.1-0.1l-1.2-5.5c-0.1-0.5-0.6-0.9-1.1-0.9c0,0-0.1,0-0.1,0l-3.5,0.3c-0.1,0-0.3-0.1-0.3-0.3
		C151.2,10.6,151.3,10.5,151.5,10.5z"/>
	<path class="st0" d="M148.1,31.5C148.1,31.5,148.1,31.5,148.1,31.5l6.1,7.2c0.3,0.4,0.5,0.9,0.5,1.4l0,5.5c0,0.3,0.3,0.6,0.6,0.6
		l6.5,0c0,0,0,0,0,0c0.2,0,0.4-0.1,0.5-0.3c0,0,0,0,0-0.1c0,0,0-0.1,0-0.1c0,0,0-0.1,0-0.1l0,0l0,0l0-12.4c0-1.1-0.4-2.2-1.1-3
		l-6.8-8.1l0.2-4.3c0.1-1-0.5-2-1.4-2.4c0-1.3-1-2.4-2.3-2.5c-0.6,0-1.3,0.2-1.8,0.6c-0.5,0.4-0.8,1-0.8,1.7l-1,14.5c0,0,0,0,0,0
		C147.5,30.4,147.7,31,148.1,31.5z M153.4,21.1c-0.1,0-0.1-0.1-0.2-0.1c0-1.4,0-2.9,0.1-4.2c0.2,0.2,0.3,0.5,0.3,0.9L153.4,21.1z
		 M149.8,15.3c0-0.3,0.2-0.6,0.4-0.8c0.2-0.2,0.5-0.3,0.9-0.3c0.7,0,1.2,0.6,1.1,1.3c-0.2,1.8-0.2,3.7-0.2,5.7
		c-0.3,0.1-0.7,0.2-0.9,0.5c-0.5,0.4-0.8,1-0.8,1.7c-0.1,0.7,0.2,1.3,0.6,1.8l1.6,1.9c0.3,2.2,0.9,5,1.9,6.2c0,0,0,0,0,0
		c0,0,0,0,0,0c0,0,0,0,0,0c0,0,0,0,0,0c0.4,0.4,0.9,0.7,1.4,0.7c0.4,0,0.9-0.2,1.2-0.5c0.4-0.3,0.6-0.8,0.7-1.3c0-0.5-0.1-1-0.4-1.4
		c0,0,0,0,0,0l-5.5-6.4c-0.2-0.2-0.3-0.6-0.3-0.9c0-0.3,0.2-0.6,0.4-0.8c0.5-0.4,1.3-0.4,1.7,0.1l7,8.3c0.5,0.6,0.8,1.4,0.8,2.2
		l0,11.8l-5.3,0l0-4.9c0-0.8-0.3-1.6-0.8-2.2l-6.1-7.2l0,0c-0.2-0.2-0.3-0.6-0.3-0.9c0,0,0,0,0,0c0,0,0,0,0,0L149.8,15.3z
		 M156.3,31.5C156.3,31.5,156.3,31.5,156.3,31.5c0.1,0.1,0.2,0.3,0.2,0.5c0,0.2-0.1,0.3-0.2,0.5c-0.1,0.1-0.3,0.2-0.5,0.2
		c-0.2,0-0.3-0.1-0.5-0.2c0,0,0,0,0,0c0,0,0,0,0,0c-0.5-0.5-0.9-1.8-1.3-3.5L156.3,31.5z"/>
	<path class="st0" d="M171.8,15.4c-0.9,0.4-1.5,1.4-1.4,2.4l0.2,4.3l-6.8,8.1c-0.7,0.9-1.1,1.9-1.1,3l0,12.4l0,0l0,0
		c0,0.1,0,0.1,0,0.2c0,0,0,0,0,0.1c0,0,0,0.1,0.1,0.1c0.1,0.2,0.3,0.3,0.5,0.3c0,0,0,0,0,0l6.5,0c0.3,0,0.6-0.3,0.6-0.6l0-5.5
		c0-0.5,0.2-1,0.5-1.4l6.1-7.2c0,0,0,0,0,0c0.4-0.5,0.6-1.1,0.6-1.8c0,0,0,0,0,0l-1-14.5c-0.1-1.3-1.3-2.4-2.6-2.3
		C172.8,13,171.8,14.1,171.8,15.4z M171.9,16.8c0.1,1.4,0.1,2.8,0.1,4.2c-0.1,0-0.1,0-0.2,0.1l-0.2-3.5
		C171.6,17.4,171.7,17.1,171.9,16.8z M175.4,15.3l1,14.5c0,0,0,0,0,0c0,0,0,0,0,0c0,0.3-0.1,0.6-0.3,0.9c0,0,0,0,0,0l-6.1,7.2
		c-0.5,0.6-0.8,1.4-0.8,2.2l0,4.9l-5.3,0l0-11.8c0-0.8,0.3-1.6,0.8-2.2l7-8.3c0.2-0.2,0.5-0.4,0.8-0.4c0.3,0,0.6,0.1,0.9,0.3
		c0.2,0.2,0.4,0.5,0.4,0.8c0,0.3-0.1,0.6-0.3,0.9l-5.5,6.4c-0.7,0.8-0.6,2,0.2,2.7c0.4,0.3,0.8,0.5,1.2,0.5c0.5,0,1.1-0.2,1.4-0.7
		c0,0,0,0,0,0c0,0,0,0,0,0c0,0,0,0,0,0c0,0,0,0,0,0c1-1.2,1.6-4,1.9-6.2l1.6-1.9c0.4-0.5,0.6-1.1,0.6-1.8c-0.1-0.7-0.4-1.2-0.8-1.7
		c-0.3-0.2-0.6-0.4-0.9-0.5c0-2,0-3.9-0.2-5.6c0-0.7,0.5-1.2,1.1-1.3C174.8,14.1,175.4,14.6,175.4,15.3z M170,32.3
		C170,32.3,170,32.3,170,32.3C170,32.3,170,32.3,170,32.3c-0.3,0.3-0.7,0.3-1,0.1c-0.3-0.2-0.3-0.7-0.1-0.9l2.3-2.7
		C170.9,30.5,170.4,31.8,170,32.3z"/>
</g>
<g>
	<path class="st0" d="M80.3,20.6h-1.8c-0.3,0-0.6,0.3-0.6,0.6s0.3,0.6,0.6,0.6h1.8c0.3,0,0.6-0.3,0.6-0.6S80.6,20.6,80.3,20.6z"/>
	<path class="st0" d="M89,21.2c0-0.3-0.3-0.6-0.6-0.6h-1.8c-0.3,0-0.6,0.3-0.6,0.6s0.3,0.6,0.6,0.6h1.8C88.7,21.8,89,21.5,89,21.2z"
		/>
	<path class="st0" d="M83.3,25.8c0.8,0,1.4-0.6,1.4-1.4v-2.8c0-0.3-0.3-0.6-0.6-0.6c-0.3,0-0.6,0.3-0.6,0.6v2.8c0,0.2-0.4,0.2-0.4,0
		v-2.8c0-0.3-0.3-0.6-0.6-0.6c-0.3,0-0.6,0.3-0.6,0.6v2.8C81.8,25.1,82.5,25.8,83.3,25.8z"/>
	<path class="st0" d="M84.1,26.9c0,0-0.3,0.5-0.9,0.4c-0.5,0-0.7-0.4-0.8-0.4c-0.2-0.3-0.6-0.4-0.9-0.2c-0.3,0.2-0.4,0.6-0.2,0.9
		c0.3,0.4,0.9,0.9,1.7,1c0,0,0.1,0,0.1,0c1.1,0,1.8-0.9,1.8-1c0.2-0.3,0.1-0.7-0.2-0.9C84.7,26.6,84.3,26.6,84.1,26.9z"/>
	<path class="st0" d="M96.1,29.4l2.4-0.9c0.2-0.1,0.3-0.2,0.4-0.4s0.1-0.4,0-0.5L97,24.3c-1.6-3-2.7-5.7-3.4-8.4
		c-1.1-4.3-4.7-7.3-8.6-7.3l-3.6,0c0,0,0,0,0,0c-3.9,0-7.5,3-8.6,7.3c-0.7,2.7-1.8,5.4-3.4,8.4l-1.8,3.4c-0.1,0.2-0.1,0.3,0,0.5
		c0.1,0.2,0.2,0.3,0.4,0.4l2.5,0.9c1.1,0.4,2.1,0.6,3.1,0.6c0.2,0,0.4,0,0.6,0c0.2,0.9,0.5,1.7,0.9,2.5l-2.4,0.2
		c-2.5,0.2-4.4,2.1-4.4,4.5v6c0,2.5,2,4.5,4.5,4.5h13.3h2.5h5.2c2.5,0,4.5-2,4.5-4.5v-6c0-2.3-1.8-4.1-4.4-4.5l-2.4-0.2
		c0.3-0.8,0.6-1.6,0.9-2.5C93.5,30.1,94.7,29.9,96.1,29.4z M70.9,28.3l-1.7-0.6l1.4-2.7c1.6-3.1,2.8-5.9,3.5-8.7
		c1-3.7,4-6.3,7.4-6.3c0,0,0,0,0,0l3.6,0c3.4,0,6.4,2.6,7.4,6.3c0.7,2.8,1.9,5.6,3.5,8.6l1.5,2.7l-1.8,0.6c-1.1,0.4-2,0.6-2.9,0.5
		c0.5-2,0.7-4,0.7-5.3c0,0,0,0,0-0.1c0-1.4-1.1-2.5-2.5-2.5v-1.5c0-0.1,0-0.2,0-0.3c0.2,0,0.4,0,0.7,0c0.3,0,0.6-0.3,0.6-0.6
		s-0.3-0.6-0.7-0.6c-2.3,0-4.4-1.2-5.6-3.2c-0.6-1-1.5-1.9-2.5-2.5c-0.1-0.1-0.1-0.1-0.2-0.2c-1.2-0.7-2.6-1.1-4-1.1h-0.5
		c-0.3,0-0.6,0.3-0.6,0.6c0,0.3,0.3,0.6,0.6,0.6h0.5c0.5,0,1,0.1,1.5,0.2c-2.9,1-5.1,3.8-5.1,7v1.5c-1.4,0.1-2.5,1.2-2.5,2.6
		c0,1.3,0.2,3.3,0.7,5.3C73,28.8,72,28.7,70.9,28.3z M79.1,33.4l2.6,4.8c-1.6-1.1-3.3-2.8-4.5-4.6L79.1,33.4z M87.5,33.4l2,0.2
		c-1.2,1.8-3,3.5-4.6,4.6L87.5,33.4z M86.5,32.5l-3.2,6l-3.2-6v-2.2c0.9,0.4,1.9,0.6,3,0.6h0.4c1.1,0,2.1-0.2,3-0.6V32.5z
		 M83.5,29.7H83c-3.4,0-6.2-2.8-6.2-6.2v-4.1c0-3.3,2.6-6,5.9-6.1c0.8,0.5,1.5,1.2,2,2.1c1.1,1.8,2.8,3,4.8,3.5c0,0.2,0,0.3,0,0.5
		v4.1C89.6,27,86.9,29.7,83.5,29.7z M74.4,23.5c0-0.7,0.5-1.3,1.2-1.3v1.4c0,1.5,0.4,2.9,1.2,4c-0.5,0.5-1.1,0.8-1.7,1
		C74.6,26.7,74.4,24.8,74.4,23.5z M90.9,23.6v-1.4c0.7,0.1,1.2,0.6,1.2,1.3c0,0,0,0,0,0c0,1.3-0.2,3.2-0.7,5.1
		c-0.6-0.2-1.2-0.5-1.7-1C90.4,26.4,90.9,25,90.9,23.6z M75.4,29.8c0.8-0.2,1.5-0.6,2.2-1.2c0.4,0.4,0.7,0.7,1.2,1v2.5l-2.4,0.2
		C76,31.6,75.7,30.7,75.4,29.8z M69.5,43.2v-6c0-1.7,1.4-3.1,3.3-3.2l2.9-0.3c0.1,0.1,0.1,0.2,0.2,0.3c1.6,2.5,4.4,5,6.8,6.2l0,4.1
		c0,0.8,0.3,1.6,0.8,2.2H72.7C70.9,46.4,69.5,45,69.5,43.2z M93.7,34c1.6,0.2,3.3,1.3,3.3,3.2v6c0,1.8-1.5,3.2-3.2,3.2h-2.6
		c0.5-0.6,0.8-1.4,0.8-2.2v-2c1.1-0.3,2-1.3,2-2.5c0-1.4-1.2-2.6-2.6-2.6s-2.6,1.2-2.6,2.6c0,1.2,0.8,2.2,2,2.5v2
		c0,1.2-1,2.2-2.2,2.2h-2.5c-1.2,0-2.2-1-2.2-2.2l0-4.1c2.3-1.1,5.2-3.7,6.8-6.2c0.1-0.1,0.1-0.2,0.2-0.3L93.7,34z M91.4,41.1
		c-0.7,0-1.3-0.6-1.3-1.3c0-0.7,0.6-1.3,1.3-1.3c0.7,0,1.3,0.6,1.3,1.3C92.7,40.5,92.1,41.1,91.4,41.1z M90.1,32.4l-2.4-0.2v-2.5
		c0.4-0.3,0.8-0.7,1.2-1c0.7,0.6,1.4,1,2.2,1.2C90.8,30.7,90.5,31.6,90.1,32.4z"/>
	<path class="st0" d="M77.7,39.3h-2v-2c0-0.3-0.3-0.6-0.6-0.6c-0.3,0-0.6,0.3-0.6,0.6v2h-2c-0.3,0-0.6,0.3-0.6,0.6s0.3,0.6,0.6,0.6
		h2v2c0,0.3,0.3,0.6,0.6,0.6c0.3,0,0.6-0.3,0.6-0.6v-2h2c0.3,0,0.6-0.3,0.6-0.6S78,39.3,77.7,39.3z"/>
</g>
<path class="st0" d="M193.3,41.7h0.8v-0.8c0-0.3,0.3-0.6,0.6-0.6c0.3,0,0.6,0.3,0.6,0.6v0.8h0.8c0.3,0,0.6,0.3,0.6,0.6
	c0,0.3-0.3,0.6-0.6,0.6h-0.8v0.8c0,0.3-0.3,0.6-0.6,0.6c-0.3,0-0.6-0.3-0.6-0.6V43h-0.8c-0.3,0-0.6-0.3-0.6-0.6
	C192.6,42,192.9,41.7,193.3,41.7z"/>
<path class="st0" d="M52,51.5h0.8v-0.8c0-0.3,0.3-0.6,0.6-0.6s0.6,0.3,0.6,0.6v0.8h0.8c0.3,0,0.6,0.3,0.6,0.6s-0.3,0.6-0.6,0.6h-0.8
	v0.8c0,0.3-0.3,0.6-0.6,0.6s-0.6-0.3-0.6-0.6v-0.8H52c-0.3,0-0.6-0.3-0.6-0.6S51.7,51.5,52,51.5z"/>
<path class="st0" d="M26.8,72.1h0.8v-0.8c0-0.3,0.3-0.6,0.6-0.6c0.3,0,0.6,0.3,0.6,0.6v0.8h0.8c0.3,0,0.6,0.3,0.6,0.6
	c0,0.3-0.3,0.6-0.6,0.6h-0.8v0.8c0,0.3-0.3,0.6-0.6,0.6c-0.3,0-0.6-0.3-0.6-0.6v-0.8h-0.8c-0.3,0-0.6-0.3-0.6-0.6
	C26.1,72.4,26.4,72.1,26.8,72.1z"/>
<path class="st0" d="M164.3,58.6h0.8v-0.8c0-0.3,0.3-0.6,0.6-0.6c0.3,0,0.6,0.3,0.6,0.6v0.8h0.8c0.3,0,0.6,0.3,0.6,0.6
	c0,0.3-0.3,0.6-0.6,0.6h-0.8v0.8c0,0.3-0.3,0.6-0.6,0.6c-0.3,0-0.6-0.3-0.6-0.6v-0.8h-0.8c-0.3,0-0.6-0.3-0.6-0.6
	C163.6,58.9,163.9,58.6,164.3,58.6z"/>
<path class="st0" d="M229.3,60.6h0.8v-0.8c0-0.3,0.3-0.6,0.6-0.6c0.3,0,0.6,0.3,0.6,0.6v0.8h0.8c0.3,0,0.6,0.3,0.6,0.6
	c0,0.3-0.3,0.6-0.6,0.6h-0.8v0.8c0,0.3-0.3,0.6-0.6,0.6c-0.3,0-0.6-0.3-0.6-0.6v-0.8h-0.8c-0.3,0-0.6-0.3-0.6-0.6
	C228.6,60.9,228.9,60.6,229.3,60.6z"/>
<g>
	<path class="st0" d="M0,54.1c0-1.7,1.4-3.1,3.1-3.1c1.7,0,3.1,1.4,3.1,3.1c0,1.7-1.4,3.1-3.1,3.1C1.4,57.2,0,55.8,0,54.1z
		 M1.2,54.1c0,1,0.9,1.9,1.9,1.9c1,0,1.9-0.9,1.9-1.9c0-1-0.9-1.9-1.9-1.9C2.1,52.2,1.2,53,1.2,54.1z"/>
</g>
<g>
	<path class="st0" d="M117.5,10.8c0-1.7,1.4-3.1,3.1-3.1c1.7,0,3.1,1.4,3.1,3.1c0,1.7-1.4,3.1-3.1,3.1
		C118.9,14,117.5,12.6,117.5,10.8z M118.8,10.8c0,1,0.9,1.9,1.9,1.9c1,0,1.9-0.9,1.9-1.9c0-1-0.9-1.9-1.9-1.9
		C119.6,8.9,118.8,9.8,118.8,10.8z"/>
</g>
<g>
	<path class="st0" d="M31.5,37.3c0-1.7,1.4-3.1,3.1-3.1c1.7,0,3.1,1.4,3.1,3.1c0,1.7-1.4,3.1-3.1,3.1C32.9,40.5,31.5,39.1,31.5,37.3
		z M32.8,37.3c0,1,0.9,1.9,1.9,1.9c1,0,1.9-0.9,1.9-1.9c0-1-0.9-1.9-1.9-1.9C33.6,35.4,32.8,36.3,32.8,37.3z"/>
</g>
<g>
	<path class="st0" d="M75.7,78.1c0-1.7,1.4-3.1,3.1-3.1c1.7,0,3.1,1.4,3.1,3.1c0,1.7-1.4,3.1-3.1,3.1C77.1,81.2,75.7,79.8,75.7,78.1
		z M76.9,78.1c0,1,0.9,1.9,1.9,1.9c1,0,1.9-0.9,1.9-1.9c0-1-0.9-1.9-1.9-1.9C77.8,76.2,76.9,77.1,76.9,78.1z"/>
</g>
<g>
	<path class="st0" d="M199.2,62.9c0-1.7,1.4-3.1,3.1-3.1c1.7,0,3.1,1.4,3.1,3.1c0,1.7-1.4,3.1-3.1,3.1
		C200.6,66,199.2,64.6,199.2,62.9z M200.4,62.9c0,1,0.9,1.9,1.9,1.9c1,0,1.9-0.9,1.9-1.9c0-1-0.9-1.9-1.9-1.9
		C201.3,61,200.4,61.8,200.4,62.9z"/>
</g>
<g>
	<path class="st0" d="M116.6,62.3c0,0.3,0.3,0.6,0.6,0.6h18c0.3,0,0.6-0.3,0.6-0.6s-0.3-0.6-0.6-0.6h-18
		C116.9,61.7,116.6,61.9,116.6,62.3z"/>
	<path class="st0" d="M117.2,67h10.4c0.3,0,0.6-0.3,0.6-0.6c0-0.3-0.3-0.6-0.6-0.6h-10.4c-0.3,0-0.6,0.3-0.6,0.6
		C116.6,66.7,116.9,67,117.2,67z"/>
	<path class="st0" d="M135.2,67c0.3,0,0.6-0.3,0.6-0.6c0-0.3-0.3-0.6-0.6-0.6h-4.7c-0.3,0-0.6,0.3-0.6,0.6c0,0.3,0.3,0.6,0.6,0.6
		H135.2z"/>
	<path class="st0" d="M135.3,73.7h-18.1c-0.3,0-0.6,0.3-0.6,0.6c0,0.3,0.3,0.6,0.6,0.6h18.1c0.3,0,0.6-0.3,0.6-0.6
		C135.9,74,135.6,73.7,135.3,73.7z"/>
	<path class="st0" d="M135.3,69.5h-10.5c-0.3,0-0.6,0.3-0.6,0.6c0,0.3,0.3,0.6,0.6,0.6h10.5c0.3,0,0.6-0.3,0.6-0.6
		C135.9,69.8,135.6,69.5,135.3,69.5z"/>
	<path class="st0" d="M117.2,70.7h4.6c0.3,0,0.6-0.3,0.6-0.6c0-0.3-0.3-0.6-0.6-0.6h-4.6c-0.3,0-0.6,0.3-0.6,0.6
		C116.6,70.4,116.9,70.7,117.2,70.7z"/>
	<path class="st0" d="M133.5,48H129c-0.3,0-0.6,0.3-0.6,0.6c0,0.3,0.3,0.6,0.6,0.6h4.6c0.3,0,0.6-0.3,0.6-0.6
		C134.1,48.3,133.9,48,133.5,48z"/>
	<path class="st0" d="M129,52h4.6c0.3,0,0.6-0.3,0.6-0.6c0-0.3-0.3-0.6-0.6-0.6H129c-0.3,0-0.6,0.3-0.6,0.6
		C128.3,51.7,128.6,52,129,52z"/>
	<path class="st0" d="M129,54.7h4.6c0.3,0,0.6-0.3,0.6-0.6c0-0.3-0.3-0.6-0.6-0.6H129c-0.3,0-0.6,0.3-0.6,0.6
		C128.3,54.4,128.6,54.7,129,54.7z"/>
	<path class="st0" d="M112.6,82.1h27.3c1.2,0,2.2-1,2.2-2.2V43.1c0-1.2-1-2.2-2.2-2.2h-27.3c-1.2,0-2.2,1-2.2,2.2v36.8
		C110.4,81.1,111.4,82.1,112.6,82.1z M134.3,44.6C134.3,44.6,134.3,44.6,134.3,44.6l3.4,0V78h-22.9V44.6h3.3c0,0,0,0,0,0
		c0.2,0.2,0.4,0.4,0.7,0.6c0,0,0,0,0,0c0.3,0.2,0.5,0.4,0.8,0.5c0,0,0,0,0,0c0.3,0.1,0.6,0.2,0.9,0.3c0,0,0,0,0.1,0
		c0.3,0.1,0.6,0.1,1,0.1h9.3c0.3,0,0.7,0,1-0.1c0,0,0,0,0.1,0c0.3-0.1,0.6-0.2,0.9-0.3c0,0,0,0,0,0c0.3-0.1,0.6-0.3,0.8-0.5
		c0,0,0,0,0,0C133.9,45,134.1,44.8,134.3,44.6z M133.5,43.5C133.5,43.5,133.5,43.5,133.5,43.5c-0.2,0.2-0.4,0.4-0.5,0.6c0,0,0,0,0,0
		c-0.2,0.1-0.3,0.3-0.5,0.4c0,0-0.1,0.1-0.1,0.1c-0.2,0.1-0.3,0.1-0.5,0.2c-0.1,0-0.1,0-0.2,0.1c-0.2,0.1-0.5,0.1-0.7,0.1h-9.3
		c-0.2,0-0.5,0-0.7-0.1c-0.1,0-0.1,0-0.2-0.1c-0.2-0.1-0.4-0.1-0.5-0.2c0,0-0.1,0-0.1-0.1c-0.2-0.1-0.4-0.2-0.5-0.4c0,0,0,0,0,0
		c-0.2-0.2-0.4-0.4-0.5-0.6c0,0,0,0,0,0c-0.3-0.4-0.5-0.8-0.6-1.3h15.8C134,42.7,133.8,43.1,133.5,43.5z M111.6,43.1
		c0-0.5,0.4-0.9,0.9-0.9h4.5c0.1,0.4,0.1,0.7,0.3,1.1h-3.2c-0.3,0-0.6,0.3-0.6,0.6v34.7c0,0.3,0.3,0.6,0.6,0.6h24.1
		c0.3,0,0.6-0.3,0.6-0.6V43.9c0-0.3-0.3-0.6-0.6-0.6h-3.2c0.1-0.3,0.2-0.7,0.3-1.1h4.5c0.5,0,0.9,0.4,0.9,0.9v36.8
		c0,0.5-0.4,0.9-0.9,0.9h-27.3c-0.5,0-0.9-0.4-0.9-0.9V43.1z"/>
	<path class="st0" d="M117.2,57.8L117.2,57.8h7.3h0.3c0.3,0,0.6-0.3,0.6-0.6v-8.6c0-0.3-0.3-0.6-0.6-0.6h-7.6
		c-0.3,0-0.6,0.3-0.6,0.6v8.6C116.6,57.5,116.9,57.8,117.2,57.8z M118.1,56.5c0.4-0.8,1.5-1.4,2.9-1.4c1.3,0,2.5,0.6,2.9,1.4H118.1z
		 M119.6,52.5c0-0.8,0.6-1.4,1.4-1.4c0.8,0,1.4,0.6,1.4,1.4c0,0.8-0.6,1.4-1.4,1.4C120.2,53.9,119.6,53.3,119.6,52.5z M124.2,49.2
		V55c-0.4-0.3-0.8-0.6-1.3-0.8c0.4-0.5,0.7-1.1,0.7-1.7c0-1.4-1.2-2.6-2.6-2.6c-1.4,0-2.6,1.2-2.6,2.6c0,0.7,0.3,1.3,0.7,1.7
		c-0.4,0.2-0.8,0.4-1.1,0.6v-5.7H124.2z"/>
</g>
</svg>
