<?xml version="1.0" encoding="utf-8"?>
<!-- Generator: Adobe Illustrator 19.1.0, SVG Export Plug-In . SVG Version: 6.00 Build 0)  -->
<svg version="1.1" id="Layer_1" xmlns="http://www.w3.org/2000/svg" xmlns:xlink="http://www.w3.org/1999/xlink" x="0px" y="0px"
	 viewBox="0 0 389.9 61.1" style="enable-background:new 0 0 389.9 61.1;" xml:space="preserve">
<style type="text/css">
	.st0{fill:#006980;}
</style>
<g>
	<path class="st0" d="M64.4,18.2h1.9c1.7,0,1.8,1.5,1.7,2.7c-0.1,1.3-0.3,17.9-0.1,19.8c0,1.3,0.7,3-1.7,3h-1.9
		c-1.8,0-1.8-1.5-1.8-2.7c0-1.2,0.1-4.5,0.1-8H50.8c0,3.6,0,6.9,0.1,7.6c0.1,1.3,0.6,3-1.7,3h-1.9c-1.7,0-1.8-1.5-1.7-2.7
		c0.1-3,0.1-18.9,0.1-19.8c0-1.3-0.7-3,1.7-3h1.9c1.8,0,1.8,1.5,1.7,2.7c0,0.6-0.1,4.3-0.1,8.3h11.8v-8C62.7,20,62.1,18.2,64.4,18.2
		"/>
	<path class="st0" d="M87.2,44.1c-1.8,0-2.6-1.2-2.3-3.6h-0.2c0,0-1.8,3.6-6.2,3.6c-4.1,0-6.3-2.8-6.3-6.2c-0.1-4.1,3-6.5,7.5-6.4
		c2.2,0,4.4,0.6,5,0.9v-1.8c0-2.4-1.7-3.5-4.2-3.5c-3,0-5.6,1.4-5.6,1.4s-2-2.5-0.3-4.1c1-0.9,3.3-1.6,6.5-1.6c5.3,0,8.4,3,8.4,7.6
		c0,3.1-0.1,8.7,0,10.8C89.6,42.7,90.4,44.1,87.2,44.1 M81,34.5c-2.3,0-4.1,1.1-4.1,3c0,1.8,1.3,2.8,3.1,2.8c2.4,0,4.2-1.8,4.6-3.2
		V35C84.2,34.8,82.7,34.5,81,34.5"/>
	<path class="st0" d="M108.4,43.8c-1.5,0-1.7-0.7-1.7-1.8c0-3.3,0.3-7.1,0.3-10.8c0-2.4-0.8-4.3-3.1-4.3c-2.6,0-3.9,2.5-4.5,3.8
		c0,2.7-0.2,5.9-0.1,8.1c0,1.1,0,2,0,2.3c0.1,1.5,0.1,2.7-1.6,2.7h-2c-1.5,0-1.7-1.2-1.7-2.3c0-0.7,0-1.8,0-3
		c0-5.1,0.1-11.6,0.1-13.3c0-1.2-0.7-2.4,2.2-2.4c2.3,0,2.8,1.4,2.9,2.6c0,0.3,0,0.8,0.1,1.5h0.2c0.2-1,1.4-4.1,5.8-4.1
		c3.6,0,5.3,1.7,6.1,4.1h0.3c0.2-1,1.7-4.1,6-4.1c5.5,0,6.8,4.3,6.8,8.4c0,3-0.3,6.2-0.2,10.7c0,1.2,0.2,2.4-2.3,2.4
		c-2.4,0-3-1.1-3-2.5c0-3.4,0.2-6.8,0.2-10.5c0-2.4-0.8-4.3-3.1-4.3c-2,0-3.3,1.4-4.1,2.7c0,0.5,0.1,1.1,0.1,1.6
		c0,3-0.3,6.2-0.3,10.7c0,1.2-0.3,1.9-1.7,1.9H108.4z"/>
	<path class="st0" d="M129.3,39.3c0-2.4,0.3-18,0.2-19.8c-0.1-1.8,0.1-2.4,2.3-2.4c2.6,0,3,1.2,2.9,2.6c-0.1,2.5-0.6,15.2-0.5,19.3
		c0,1.4,0.5,1.2,1.9,1.2c0.6,0,0.9,0.3,1,0.8l0.1,1.2c0,0.7-0.1,1-0.8,1.3c-0.8,0.4-2.3,0.6-3.5,0.6
		C130.2,44.1,129.3,42.4,129.3,39.3"/>
	<path class="st0" d="M144.2,15.9c1.5,0,2.7,0.3,2.8,2.5c0,2.2-1.2,2.4-2.6,2.4c-1.6,0-2.7-0.3-2.8-2.4
		C141.5,16.1,142.7,15.9,144.2,15.9 M143.3,43.8c-1.5,0-1.7-1.2-1.7-2.3c0-0.7,0-1.8,0-3c0.1-5.1,0.1-10.2,0.1-12.9
		c0-1.2-0.6-2.4,2.2-2.4c2.3,0,3.1,0.5,3,2.3c-0.2,4.5-0.3,10.2-0.2,13.3c0,1.1,0,2,0.1,2.3c0.1,1.5,0.1,2.7-1.6,2.7H143.3z"/>
	<path class="st0" d="M165.5,41.7c0-3.4,0.3-6.9,0.3-10.5c0-2.4-1.1-4.3-3.4-4.3c-2.8,0-4.4,2.8-5,4c0,2.6-0.1,5.8,0,7.9
		c0,1.1,0,2,0,2.3c0.2,1.5,0.1,2.7-1.6,2.7h-2c-1.5,0-1.7-1.2-1.7-2.3c0-0.7,0-1.8,0-3c0.1-5.1,0.1-11.6,0.1-13.3
		c0-1.2-0.7-2.4,2.2-2.4c2.3,0,2.8,1.4,2.9,2.6c0.1,0.3,0.1,0.7,0.1,1.5h0.3c0.3-1,2-4.1,6.3-4.1c5.5,0,7,4.3,6.9,8.4
		c0,3-0.3,6.2-0.2,10.8c0,1.2,0.1,2.3-2.3,2.3C166.1,44.1,165.5,43,165.5,41.7"/>
	<path class="st0" d="M188.6,18.2h12.6c1.2,0,1.5,0.6,1.5,1.7v1.4c0,1.3-0.6,1.5-1.8,1.5h-9.1l0,7.3c1.7,0,6.3,0,8.3,0
		c1.1,0,1.5,0.3,1.5,1.3v1.4c0,1-0.3,1.3-1.2,1.2c-1.1-0.1-6.2-0.1-8.6,0c0,3.6,0.1,6.5,0.1,7.4c0,1.4-0.1,2.5-1.7,2.5h-1.7
		c-1.6,0-1.8-0.9-1.8-2.4c0-0.4,0-1.2,0-2.2c0-5.4,0-17.1,0-17.9C186.8,19.4,186.4,18.2,188.6,18.2"/>
	<path class="st0" d="M209.9,15.9c1.5,0,2.7,0.3,2.8,2.5c0,2.2-1.2,2.4-2.6,2.4c-1.6,0-2.7-0.3-2.8-2.4
		C207.2,16.1,208.4,15.9,209.9,15.9 M209,43.8c-1.5,0-1.7-1.2-1.7-2.3c0-0.7,0-1.8,0-3c0.1-5.1,0.1-10.2,0.1-12.9
		c0-1.2-0.6-2.4,2.2-2.4c2.3,0,3.1,0.5,3,2.3c-0.2,4.5-0.3,10.2-0.2,13.3c0,1.1,0,2,0.1,2.3c0.2,1.5,0.1,2.7-1.6,2.7H209z"/>
	<path class="st0" d="M225.6,26.6c-1.3,0-3.4,0.3-3.4,2.2c0,1.1,0.8,1.7,2.3,2.1l2.9,0.9c4,1.2,5.7,2.8,5.7,5.8
		c0,3.9-3.2,6.5-8.9,6.5c-5.3,0-6.8-1.5-6.9-2.8c-0.1-1.3,0.8-2.6,1-2.7c0,0,2.3,1.6,5.7,1.6c2,0,3.9-0.6,3.9-2.4
		c0-1.3-1.3-2-3.1-2.5l-2.8-0.9c-3.8-1.2-5-2.9-5-5.6c0-3.8,3.1-6.2,8.2-6.2c5.3,0,6.8,1.5,6.9,2.4c0.2,1-0.7,2.6-1.1,3
		C231,28.1,228.8,26.6,225.6,26.6"/>
	<path class="st0" d="M235.5,24.5c0-0.3,0.2-0.8,0.9-0.9c3.1-0.2,3.6-2.3,3.7-3.5c0.1-0.6,0.3-1,1.1-1c0.9,0,2.6-0.3,2.5,1.2
		c0,0.9,0,2.1,0,2.9c0.8,0.1,3.4,0.1,4.9,0c0.8,0,1.1,0.3,1.1,0.8c0,0.7,0,1.5,0,2.3c0,0.5-0.1,0.8-0.8,0.8c-1.6,0-5,0-5.1,0
		c-0.1,3-0.2,7.8-0.1,10.7c0,1.9,0.5,2.4,1.9,2.4c0.9,0,1.8-0.3,2.4-0.5c0.8-0.2,1.2,0.1,1.2,0.6l0.2,1.4c0.1,0.7,0,1.1-0.6,1.4
		c-1.1,0.6-3.2,1-4.8,1c-4,0-5.6-2-5.5-6c0-2.3,0.2-9.9,0.2-11.1h-2c-0.7,0-1-0.2-1-0.8C235.6,25.8,235.5,25.1,235.5,24.5"/>
	<path class="st0" d="M258.4,25.2c0,3.4-0.3,6.9-0.3,10.5c0,2.4,1,4.3,3.3,4.3c2.7,0,4.2-2.6,4.8-3.9c0-2.7,0.1-5.9,0.1-8
		c0-1.1,0-2-0.1-2.3c-0.1-1.5-0.1-2.7,1.6-2.7h1.9c1.5,0,1.7,1.2,1.7,2.3c0,0.7,0,1.8,0,3c-0.1,5.1-0.1,11.6-0.1,13.3
		c0,1.2,0.7,2.4-2.2,2.4c-2.3,0-2.8-1.4-2.9-2.6c-0.1-0.3-0.1-0.7-0.1-1.5h-0.3c-0.2,1-1.9,4.1-6.1,4.1c-5.5,0-6.8-4.3-6.8-8.4
		c0-3,0.3-6.2,0.2-10.8c0-1.2-0.2-2.3,2.2-2.3C257.8,22.7,258.4,23.8,258.4,25.2"/>
	<path class="st0" d="M276.3,39.3c0-2.4,0.3-18,0.2-19.8c-0.1-1.8,0.1-2.4,2.3-2.4c2.6,0,3,1.2,2.9,2.6c-0.1,2.5-0.6,15.2-0.4,19.3
		c0,1.4,0.5,1.2,1.9,1.2c0.6,0,0.9,0.3,1,0.8l0.1,1.2c0,0.7-0.1,1-0.8,1.3c-0.8,0.4-2.3,0.6-3.5,0.6
		C277.3,44.1,276.3,42.4,276.3,39.3"/>
	<path class="st0" d="M302.1,44.1c-1.8,0-2.6-1.2-2.3-3.6h-0.2c0,0-1.8,3.6-6.2,3.6c-4.1,0-6.3-2.8-6.3-6.2c-0.1-4.1,3-6.5,7.5-6.4
		c2.2,0,4.4,0.6,5,0.9v-1.8c0-2.4-1.7-3.5-4.2-3.5c-3,0-5.6,1.4-5.6,1.4s-2-2.5-0.3-4.1c1-0.9,3.3-1.6,6.5-1.6c5.3,0,8.4,3,8.4,7.6
		c0,3.1-0.1,8.7,0,10.8C304.5,42.7,305.4,44.1,302.1,44.1 M296,34.5c-2.3,0-4.1,1.1-4.1,3c0,1.8,1.3,2.8,3.1,2.8
		c2.4,0,4.2-1.8,4.6-3.2V35C299.1,34.8,297.6,34.5,296,34.5"/>
	<path class="st0" d="M330.6,44.1c-8.5,0-10.4-4.7-10.6-12.2c-0.1-5,0-10.2,0-11.1c0-1.3-0.4-2.6,1.6-2.6h1.9c1.7,0,1.8,1.1,1.8,2.3
		c-0.1,1.3-0.1,6.8-0.1,11.4c0,5,1.3,7.9,5.4,7.9c4,0,5.3-2.8,5.3-8c0-4.8,0-10.1,0-11c0-1.3-0.4-2.6,1.6-2.6h1.9
		c1.8,0,1.8,1.1,1.8,2.3c0,1.3-0.2,9.6-0.2,11.4C340.6,39.3,338.6,44.1,330.6,44.1"/>
	<path class="st0" d="M357,29.3c4.8,1.3,6.4,3.7,6.5,7c0.1,5-4.1,7.9-9.8,7.9c-3.2,0-5.7-0.8-6.6-1.3c-1.6-0.8-2-1.8-1.4-3.3
		c0.3-1.1,1.1-1.7,1.1-1.7s2.4,2.1,6.7,2.1c2.9,0,4.7-1.4,4.7-3.5c0-1.5-1.4-2.6-3.9-3.3l-3.2-0.8c-3.3-0.9-6-2.7-6.1-6.6
		c-0.1-4.6,3.5-7.8,9.2-7.8c3.4,0,5.7,0.9,6.6,1.4c1.3,0.7,1.8,1.5,1,3.3c-0.4,0.8-0.9,1.4-0.9,1.4S358,22,354.3,22
		c-2.9,0-4.2,1.4-4.2,3.5c0,1.7,1.8,2.4,3.7,2.9L357,29.3z"/>
	<path class="st0" d="M375.7,18.2h3.4c1.6,0,2.2,0.9,2.6,2.1c0.3,1.3,6,19.2,6.5,21.2c0.3,1.3,0.2,2.1-1.2,2.1h-1.5
		c-1.8,0-1.8-1.2-2.1-1.9c-0.2-0.6-0.6-2.1-1.4-4h-9.5c-0.7,2-1.2,3.4-1.3,3.9c-0.3,1.3-0.6,2-1.9,2h-2.1c-1,0-1.4-0.9-1.1-2
		c0.9-3.1,6.7-20,7.1-21.4C373.5,19.1,373.9,18.2,375.7,18.2 M373.4,34.3h7.7c-1.5-5-3.3-10.8-3.8-12.5h-0.2
		C376.7,23.6,374.9,29.4,373.4,34.3"/>
	<path class="st0" d="M18.9,1.6c0,0,3.2,8-6,18.9C3.7,31.4-0.3,37.9,0,45.4c0.3,7.5,7.9,15.5,19.4,15.8c11.6,0.3,17.2-9.9,16.7-15.6
		c-0.5-5.8-4.7-10.1-7.5-12.6c-2.8-2.5-6.7-7.1-6.4-10.9c0.3-3.8,1-4.9,1-4.9s-0.3-0.9-1.2,0.7c-0.9,1.6-3.7,6.8,0.4,12.8
		c4.1,6,11.6,12.4,6.1,22.6c0,0-4.2,6.4-12.9,4.8C7,56.5,5.1,47.6,6.3,42.5c1.2-5.1,4.8-11.3,6.2-12.9c1.4-1.6,5.6-8.3,6.5-10.5
		c0.9-2.2,3.4-6,2.3-14.1c0,0-2-5.9-2.7-4.7L18.9,1.6z"/>
	<path class="st0" d="M14.4,49c0,0-1.5,0-1.7,0.9c-0.2,0.9,0.7,3.8,5.1,4.3c4.3,0.6,8.6-4.4,8.3-8.6c-0.3-4.2-2.3-6.7-6.3-4.5
		c-4,2.2-1.6,5.1-1.6,5.6C18.2,47.2,19.2,50.2,14.4,49"/>
	<path class="st0" d="M19.4,40.5c0,0-0.7,0.4-0.9,0.7c-0.3,0.3-0.6,0.7-0.8,1c-0.2,0.4-0.3,0.6-0.5,1c-0.2,0.4-1.3,1.4-2.6,1
		c-1.2-0.3-4-2.8-1.8-7.3c0,0,1.7-2.7,5.4-1.4c0,0,1.4,0.7,1.8,1.8C20.4,38.5,20.4,39.5,19.4,40.5"/>
</g>
</svg>
